<mxfile host="app.diagrams.net" agent="Mozilla/5.0 (Windows NT 10.0; Win64; x64; rv:135.0) Gecko/20100101 Firefox/135.0" version="26.0.16">
  <diagram name="Página-1" id="W6J5xzDmn_g0I0wCFlvL">
    <mxGraphModel dx="3933" dy="718" grid="1" gridSize="10" guides="1" tooltips="1" connect="1" arrows="1" fold="1" page="1" pageScale="1" pageWidth="2339" pageHeight="3300" math="0" shadow="0">
      <root>
        <mxCell id="0" />
        <mxCell id="1" parent="0" />
        <mxCell id="DhtlSGsxXgPWsNs7nV4f-423" value="&lt;div&gt;HTML/CSS&lt;/div&gt;&lt;div&gt;&lt;br&gt;&lt;/div&gt;&lt;div&gt;&lt;span style=&quot;background-color: light-dark(rgb(255, 255, 0), rgb(255, 255, 255)); color: rgb(0, 0, 0);&quot;&gt;PAGINA PRINCIPAL&lt;/span&gt;&lt;/div&gt;&lt;div&gt;&lt;br&gt;&lt;/div&gt;&lt;div&gt;LOGIN / REGISTRO&lt;/div&gt;&lt;div&gt;&lt;br&gt;&lt;/div&gt;&lt;div&gt;&lt;font style=&quot;font-size: 14px;&quot;&gt;1&lt;/font&gt;&lt;/div&gt;" style="rounded=1;whiteSpace=wrap;html=1;arcSize=24;" parent="1" vertex="1">
          <mxGeometry x="811" y="60" width="350" height="160" as="geometry" />
        </mxCell>
        <mxCell id="DhtlSGsxXgPWsNs7nV4f-424" value="" style="endArrow=none;html=1;rounded=0;entryX=0.5;entryY=1;entryDx=0;entryDy=0;" parent="1" edge="1">
          <mxGeometry width="50" height="50" relative="1" as="geometry">
            <mxPoint x="770" y="430" as="sourcePoint" />
            <mxPoint x="886" y="220" as="targetPoint" />
          </mxGeometry>
        </mxCell>
        <mxCell id="DhtlSGsxXgPWsNs7nV4f-426" value="&lt;div&gt;&lt;div&gt;HTML/CSS&lt;/div&gt;&lt;/div&gt;&lt;div&gt;&lt;span style=&quot;background-color: light-dark(rgb(255, 255, 0), rgb(255, 255, 255)); color: rgb(0, 0, 0);&quot;&gt;&lt;br&gt;&lt;/span&gt;&lt;/div&gt;&lt;div&gt;&lt;span style=&quot;background-color: light-dark(rgb(255, 255, 0), rgb(255, 255, 255)); color: rgb(0, 0, 0);&quot;&gt;FORMULARIO REGISTRARSE&lt;/span&gt;&lt;/div&gt;&lt;div&gt;&lt;br&gt;&lt;/div&gt;&lt;div&gt;&lt;br&gt;&lt;/div&gt;&lt;div&gt;&lt;br&gt;&lt;/div&gt;&lt;div&gt;&lt;br&gt;&lt;/div&gt;&lt;div&gt;&lt;br&gt;&lt;/div&gt;&lt;div&gt;&lt;br&gt;&lt;/div&gt;&lt;div&gt;&lt;br&gt;&lt;/div&gt;&lt;div&gt;&lt;br&gt;&lt;/div&gt;&lt;div&gt;&lt;br&gt;&lt;/div&gt;&lt;div&gt;&lt;br&gt;&lt;/div&gt;&lt;div&gt;&lt;br&gt;&lt;/div&gt;&lt;div&gt;&lt;br&gt;&lt;/div&gt;&lt;div&gt;&lt;br&gt;&lt;/div&gt;&lt;div&gt;&lt;br&gt;&lt;/div&gt;&lt;div&gt;&lt;br&gt;&lt;/div&gt;&lt;div&gt;&lt;br&gt;&lt;/div&gt;&lt;div&gt;&lt;br&gt;&lt;/div&gt;&lt;div&gt;&lt;br&gt;&lt;/div&gt;&lt;div&gt;&lt;br&gt;&lt;/div&gt;&lt;div&gt;&lt;font style=&quot;font-size: 14px;&quot;&gt;2&lt;/font&gt;&lt;/div&gt;" style="rounded=1;whiteSpace=wrap;html=1;" parent="1" vertex="1">
          <mxGeometry x="510" y="430" width="460" height="370" as="geometry" />
        </mxCell>
        <mxCell id="DhtlSGsxXgPWsNs7nV4f-427" value="&lt;div align=&quot;left&quot;&gt;&amp;nbsp; NOMBRE:&lt;/div&gt;&lt;div align=&quot;left&quot;&gt;&lt;br&gt;&lt;/div&gt;&lt;div&gt;&amp;nbsp; CORREO ELECTRÓNICO:&lt;br&gt;&lt;br&gt;&lt;/div&gt;&lt;div&gt;&amp;nbsp; CONTRASEÑA:&lt;/div&gt;&lt;div&gt;&lt;br&gt;&lt;/div&gt;&lt;div&gt;&amp;nbsp; CONFIRMAR CONTRASEÑA:&lt;/div&gt;&lt;div&gt;&lt;br&gt;&lt;/div&gt;&lt;div&gt;&lt;br&gt;&lt;/div&gt;&lt;div&gt;&lt;br&gt;&lt;/div&gt;&lt;div&gt;&amp;nbsp;&amp;nbsp;&amp;nbsp;&amp;nbsp;&amp;nbsp;&amp;nbsp;&amp;nbsp;&amp;nbsp;&amp;nbsp;&amp;nbsp;&amp;nbsp;&amp;nbsp;&amp;nbsp;&amp;nbsp;&amp;nbsp;&amp;nbsp;&amp;nbsp;&amp;nbsp; &amp;nbsp; &amp;nbsp; &amp;nbsp; &amp;nbsp; &amp;nbsp; TIPO_USUARIO&lt;/div&gt;&lt;div&gt;&lt;br&gt;&lt;/div&gt;&lt;div&gt;&lt;br&gt;&lt;/div&gt;" style="rounded=1;whiteSpace=wrap;html=1;align=left;" parent="1" vertex="1">
          <mxGeometry x="600" y="510" width="290" height="250" as="geometry" />
        </mxCell>
        <mxCell id="DhtlSGsxXgPWsNs7nV4f-428" value="&lt;div&gt;&lt;div&gt;HTML/CSS&lt;/div&gt;&lt;/div&gt;&lt;div&gt;&lt;span style=&quot;background-color: light-dark(rgb(255, 255, 0), rgb(255, 255, 255)); color: rgb(0, 0, 0);&quot;&gt;&lt;br&gt;&lt;/span&gt;&lt;/div&gt;&lt;div&gt;&lt;span style=&quot;background-color: light-dark(rgb(255, 255, 0), rgb(255, 255, 255)); color: rgb(0, 0, 0);&quot;&gt;FORMULARIO LOGIN&lt;/span&gt;&lt;/div&gt;&lt;div&gt;&lt;br&gt;&lt;/div&gt;&lt;div&gt;&lt;br&gt;&lt;/div&gt;&lt;div&gt;&lt;br&gt;&lt;/div&gt;&lt;div&gt;&lt;br&gt;&lt;/div&gt;&lt;div&gt;&lt;br&gt;&lt;/div&gt;&lt;div&gt;&lt;br&gt;&lt;/div&gt;&lt;div&gt;&lt;br&gt;&lt;/div&gt;&lt;div&gt;&lt;br&gt;&lt;/div&gt;&lt;div&gt;&lt;br&gt;&lt;/div&gt;&lt;div&gt;&lt;br&gt;&lt;/div&gt;&lt;div&gt;&lt;br&gt;&lt;/div&gt;&lt;div&gt;&lt;br&gt;&lt;/div&gt;&lt;div&gt;&lt;br&gt;&lt;/div&gt;&lt;div&gt;&lt;br&gt;&lt;/div&gt;&lt;div&gt;&lt;br&gt;&lt;/div&gt;&lt;div&gt;&lt;br&gt;&lt;/div&gt;&lt;div&gt;&lt;br&gt;&lt;/div&gt;&lt;div&gt;&lt;br&gt;&lt;/div&gt;&lt;div&gt;&lt;br&gt;&lt;/div&gt;&lt;div&gt;&lt;br&gt;&lt;/div&gt;&lt;div&gt;&lt;font style=&quot;font-size: 14px;&quot;&gt;3&lt;/font&gt;&lt;/div&gt;" style="rounded=1;whiteSpace=wrap;html=1;" parent="1" vertex="1">
          <mxGeometry x="1050" y="430" width="460" height="370" as="geometry" />
        </mxCell>
        <mxCell id="DhtlSGsxXgPWsNs7nV4f-429" value="" style="endArrow=none;html=1;rounded=0;entryX=0.5;entryY=1;entryDx=0;entryDy=0;exitX=0.478;exitY=-0.008;exitDx=0;exitDy=0;exitPerimeter=0;strokeColor=light-dark(#FF0000,#FFFFFF);" parent="1" edge="1">
          <mxGeometry width="50" height="50" relative="1" as="geometry">
            <mxPoint x="1293.88" y="427.03999999999996" as="sourcePoint" />
            <mxPoint x="1120" y="220" as="targetPoint" />
          </mxGeometry>
        </mxCell>
        <mxCell id="DhtlSGsxXgPWsNs7nV4f-430" value="&lt;div align=&quot;left&quot;&gt;&lt;br&gt;&lt;/div&gt;&lt;div align=&quot;left&quot;&gt;&lt;br&gt;&lt;/div&gt;&lt;div&gt;&lt;br&gt;&lt;/div&gt;&lt;div&gt;&amp;nbsp;&amp;nbsp;&lt;/div&gt;&lt;div&gt;&lt;br&gt;&lt;/div&gt;&lt;div&gt;&lt;br&gt;&lt;/div&gt;&lt;div&gt;&amp;nbsp; CORREO ELECTRÓNICO:&lt;br&gt;&lt;br&gt;&lt;/div&gt;&lt;div&gt;&lt;br&gt;&lt;/div&gt;&lt;div&gt;&amp;nbsp; CONTRASEÑA:&lt;/div&gt;&lt;div&gt;&lt;br&gt;&lt;/div&gt;&lt;div&gt;&lt;br&gt;&lt;/div&gt;&lt;div&gt;&lt;br&gt;&lt;/div&gt;&lt;div&gt;&lt;br&gt;&lt;/div&gt;&lt;div&gt;&lt;br&gt;&lt;/div&gt;&lt;div&gt;&amp;nbsp;&amp;nbsp;&amp;nbsp;&amp;nbsp;&amp;nbsp;&amp;nbsp;&amp;nbsp;&amp;nbsp;&amp;nbsp;&amp;nbsp;&amp;nbsp;&amp;nbsp;&amp;nbsp;&amp;nbsp;&amp;nbsp;&amp;nbsp;&amp;nbsp;&amp;nbsp; &amp;nbsp; &amp;nbsp; &amp;nbsp; &amp;nbsp; &amp;nbsp; &lt;br&gt;&lt;/div&gt;&lt;div&gt;&lt;br&gt;&lt;/div&gt;&lt;div&gt;&lt;br&gt;&lt;/div&gt;" style="rounded=1;whiteSpace=wrap;html=1;align=left;" parent="1" vertex="1">
          <mxGeometry x="1135" y="520" width="290" height="250" as="geometry" />
        </mxCell>
        <mxCell id="DhtlSGsxXgPWsNs7nV4f-431" value="" style="endArrow=none;html=1;rounded=0;entryX=0.5;entryY=1;entryDx=0;entryDy=0;" parent="1" edge="1">
          <mxGeometry width="50" height="50" relative="1" as="geometry">
            <mxPoint x="950" y="1060" as="sourcePoint" />
            <mxPoint x="1096" y="800" as="targetPoint" />
          </mxGeometry>
        </mxCell>
        <mxCell id="DhtlSGsxXgPWsNs7nV4f-432" value="&lt;div&gt;&lt;div&gt;HTML/CSS&lt;/div&gt;&lt;/div&gt;&lt;div&gt;&lt;span style=&quot;background-color: light-dark(rgb(255, 255, 0), rgb(255, 255, 255)); color: rgb(0, 0, 0);&quot;&gt;&lt;br&gt;&lt;/span&gt;&lt;/div&gt;&lt;div&gt;&lt;span style=&quot;background-color: light-dark(rgb(255, 255, 0), rgb(255, 255, 255)); color: rgb(0, 0, 0);&quot;&gt;PANEL ADMINISTRADOR&lt;/span&gt;&lt;/div&gt;&lt;div&gt;&lt;br&gt;&lt;/div&gt;&lt;div&gt;&lt;br&gt;&lt;/div&gt;&lt;div&gt;&lt;br&gt;&lt;/div&gt;&lt;div&gt;&lt;br&gt;&lt;/div&gt;&lt;div&gt;&lt;br&gt;&lt;/div&gt;&lt;div&gt;&lt;br&gt;&lt;/div&gt;&lt;div&gt;&lt;br&gt;&lt;/div&gt;&lt;div&gt;&lt;br&gt;&lt;/div&gt;&lt;div&gt;&lt;br&gt;&lt;/div&gt;&lt;div&gt;&lt;br&gt;&lt;/div&gt;&lt;div&gt;&lt;br&gt;&lt;/div&gt;&lt;div&gt;&lt;br&gt;&lt;/div&gt;&lt;div&gt;&lt;br&gt;&lt;/div&gt;&lt;div&gt;&lt;br&gt;&lt;/div&gt;&lt;div&gt;&lt;br&gt;&lt;/div&gt;&lt;div&gt;&lt;br&gt;&lt;/div&gt;&lt;div&gt;&lt;br&gt;&lt;/div&gt;&lt;div&gt;&lt;br&gt;&lt;/div&gt;&lt;div&gt;&lt;br&gt;&lt;/div&gt;&lt;div&gt;&lt;br&gt;&lt;/div&gt;&lt;div&gt;&lt;font style=&quot;font-size: 14px;&quot;&gt;4&lt;/font&gt;&lt;/div&gt;" style="rounded=1;whiteSpace=wrap;html=1;" parent="1" vertex="1">
          <mxGeometry x="720" y="1060" width="460" height="370" as="geometry" />
        </mxCell>
        <mxCell id="DhtlSGsxXgPWsNs7nV4f-433" value="&lt;div align=&quot;left&quot;&gt;&lt;br&gt;&lt;/div&gt;&lt;div align=&quot;left&quot;&gt;&lt;br&gt;&lt;/div&gt;&lt;div&gt;&lt;br&gt;&lt;/div&gt;&lt;div&gt;&amp;nbsp;&amp;nbsp;&lt;/div&gt;&lt;div&gt;&lt;br&gt;&lt;/div&gt;&lt;div&gt;&lt;br&gt;&lt;/div&gt;&lt;div&gt;&amp;nbsp; GESTIÓN DE LIBROS:&lt;br&gt;&lt;br&gt;&lt;/div&gt;&lt;div&gt;&lt;br&gt;&lt;/div&gt;&lt;div&gt;&amp;nbsp; GESTIÓN DE USUARIOS:&lt;/div&gt;&lt;div&gt;&lt;br&gt;&lt;/div&gt;&lt;div&gt;&lt;br&gt;&lt;/div&gt;&lt;div&gt;&amp;nbsp; GESTIÓN DE PRESTAMOS:&lt;/div&gt;&lt;div&gt;&lt;br&gt;&lt;/div&gt;&lt;div&gt;&lt;br&gt;&lt;/div&gt;&lt;div&gt;&lt;br&gt;&lt;/div&gt;&lt;div&gt;&lt;br&gt;&lt;/div&gt;&lt;div&gt;&amp;nbsp;&amp;nbsp;&amp;nbsp;&amp;nbsp;&amp;nbsp;&amp;nbsp;&amp;nbsp;&amp;nbsp;&amp;nbsp;&amp;nbsp;&amp;nbsp;&amp;nbsp;&amp;nbsp;&amp;nbsp;&amp;nbsp;&amp;nbsp;&amp;nbsp;&amp;nbsp; &amp;nbsp; &amp;nbsp; &amp;nbsp; &amp;nbsp; &amp;nbsp; &lt;br&gt;&lt;/div&gt;&lt;div&gt;&lt;br&gt;&lt;/div&gt;&lt;div&gt;&lt;br&gt;&lt;/div&gt;" style="rounded=1;whiteSpace=wrap;html=1;align=left;" parent="1" vertex="1">
          <mxGeometry x="805" y="1130" width="290" height="250" as="geometry" />
        </mxCell>
        <mxCell id="DhtlSGsxXgPWsNs7nV4f-434" value="" style="endArrow=none;html=1;rounded=0;entryX=0.5;entryY=1;entryDx=0;entryDy=0;exitX=0.5;exitY=0;exitDx=0;exitDy=0;" parent="1" edge="1">
          <mxGeometry width="50" height="50" relative="1" as="geometry">
            <mxPoint x="1575" y="1060" as="sourcePoint" />
            <mxPoint x="1460" y="800" as="targetPoint" />
          </mxGeometry>
        </mxCell>
        <mxCell id="DhtlSGsxXgPWsNs7nV4f-435" value="&lt;div&gt;&lt;div&gt;HTML/CSS&lt;/div&gt;&lt;/div&gt;&lt;div&gt;&lt;span style=&quot;background-color: light-dark(rgb(255, 255, 0), rgb(255, 255, 255)); color: rgb(0, 0, 0);&quot;&gt;&lt;br&gt;&lt;/span&gt;&lt;/div&gt;&lt;div&gt;&lt;span style=&quot;background-color: light-dark(rgb(255, 255, 0), rgb(255, 255, 255)); color: rgb(0, 0, 0);&quot;&gt;PANEL USUARIO&lt;/span&gt;&lt;/div&gt;&lt;div&gt;&lt;br&gt;&lt;/div&gt;&lt;div&gt;&lt;br&gt;&lt;/div&gt;&lt;div&gt;&lt;br&gt;&lt;/div&gt;&lt;div&gt;&lt;br&gt;&lt;/div&gt;&lt;div&gt;&lt;br&gt;&lt;/div&gt;&lt;div&gt;&lt;br&gt;&lt;/div&gt;&lt;div&gt;&lt;br&gt;&lt;/div&gt;&lt;div&gt;&lt;br&gt;&lt;/div&gt;&lt;div&gt;&lt;br&gt;&lt;/div&gt;&lt;div&gt;&lt;br&gt;&lt;/div&gt;&lt;div&gt;&lt;br&gt;&lt;/div&gt;&lt;div&gt;&lt;br&gt;&lt;/div&gt;&lt;div&gt;&lt;br&gt;&lt;/div&gt;&lt;div&gt;&lt;br&gt;&lt;/div&gt;&lt;div&gt;&lt;br&gt;&lt;/div&gt;&lt;div&gt;&lt;br&gt;&lt;/div&gt;&lt;div&gt;&lt;br&gt;&lt;/div&gt;&lt;div&gt;&lt;br&gt;&lt;/div&gt;&lt;div&gt;&lt;br&gt;&lt;/div&gt;&lt;div&gt;&lt;br&gt;&lt;/div&gt;&lt;div&gt;&lt;font style=&quot;font-size: 14px;&quot;&gt;5&lt;/font&gt;&lt;/div&gt;" style="rounded=1;whiteSpace=wrap;html=1;" parent="1" vertex="1">
          <mxGeometry x="1350" y="1060" width="460" height="370" as="geometry" />
        </mxCell>
        <mxCell id="DhtlSGsxXgPWsNs7nV4f-436" value="&lt;div align=&quot;left&quot;&gt;&lt;br&gt;&lt;/div&gt;&lt;div align=&quot;left&quot;&gt;&lt;br&gt;&lt;/div&gt;&lt;div&gt;&lt;br&gt;&lt;/div&gt;&lt;div&gt;&amp;nbsp;&amp;nbsp;&lt;/div&gt;&lt;div&gt;&lt;br&gt;&lt;/div&gt;&lt;div&gt;&lt;br&gt;&lt;/div&gt;&lt;div&gt;&lt;br&gt;&lt;/div&gt;&lt;div&gt;&lt;br&gt;&lt;/div&gt;&lt;div&gt;&lt;br&gt;&lt;/div&gt;&lt;div&gt;&amp;nbsp; CUENTA DE USUARIO:&lt;/div&gt;&lt;div&gt;&lt;br&gt;&lt;/div&gt;&lt;div&gt;&lt;br&gt;&lt;/div&gt;&lt;div&gt;&lt;br&gt;&lt;/div&gt;&lt;div&gt;&amp;nbsp; TABLA DE LIBROS:&lt;br&gt;&lt;br&gt;&lt;/div&gt;&lt;div&gt;&lt;br&gt;&lt;/div&gt;&lt;div&gt;&lt;br&gt;&lt;/div&gt;&lt;div&gt;&amp;nbsp; TABLA DE PRESTAMOS:&lt;/div&gt;&lt;div&gt;&lt;br&gt;&lt;/div&gt;&lt;div&gt;&lt;br&gt;&lt;/div&gt;&lt;div&gt;&lt;br&gt;&lt;/div&gt;&lt;div&gt;&lt;br&gt;&lt;/div&gt;&lt;div&gt;&lt;br&gt;&lt;/div&gt;&lt;div&gt;&lt;br&gt;&lt;/div&gt;&lt;div&gt;&lt;br&gt;&lt;/div&gt;&lt;div&gt;&amp;nbsp;&amp;nbsp;&amp;nbsp;&amp;nbsp;&amp;nbsp;&amp;nbsp;&amp;nbsp;&amp;nbsp;&amp;nbsp;&amp;nbsp;&amp;nbsp;&amp;nbsp;&amp;nbsp;&amp;nbsp;&amp;nbsp;&amp;nbsp;&amp;nbsp;&amp;nbsp; &amp;nbsp; &amp;nbsp; &amp;nbsp; &amp;nbsp; &amp;nbsp; &lt;br&gt;&lt;/div&gt;&lt;div&gt;&lt;br&gt;&lt;/div&gt;&lt;div&gt;&lt;br&gt;&lt;/div&gt;" style="rounded=1;whiteSpace=wrap;html=1;align=left;" parent="1" vertex="1">
          <mxGeometry x="1435" y="1130" width="290" height="250" as="geometry" />
        </mxCell>
        <mxCell id="MDVyfrV4ghfDJYjMpp-2-1" value="" style="shape=image;verticalLabelPosition=bottom;labelBackgroundColor=default;verticalAlign=top;aspect=fixed;imageAspect=0;image=data:image/png,iVBORw0KGgoAAAANSUhEUgAAAxYAAAILCAYAAAB1gQpWAAAgAElEQVR4Xuy9C3hV1Zk+/gVUQNHWJxX92dHOEKvNxEh6mWovf3+jT21VUi8hSkRCsbWjbb1ha6BGjVGjAireqrYKotyihuAFvCv+vFU7HYXGiOCEVqetLTbWOkgJFPJf39q3te/7nLPPOXuf/e555qnk7L322u/61lrfu75b1bC4SFz/+Mc/+H9ol112kf/rvP7+97/TmDFjPH/jP/7pT3+i/fbbL+dn8V47ZMDZjgfkysIjSDYwjzCPsD5bMoB1A+uGlzKCdRLrJNbJ4q+TVSAWIFIsZiA0IDQ4GNBkAATOmgtQxKCIQRErviKG/Rf7byXtvyAWsNCEKlOwSEVXLqCIRccKchUdK8hVdKwgV9GxglxFxwpyFR0ryFV0rCpRrkAsQCxALDxs5nClgCsFXCngIuuUAZws42S5kk6WIc+Q52LIM4gFiAWIBYgFYqQUGYArFFyhEGuoyQAUTyiexVA8IVeVLVcgFiAW2EBALEAsQCy8DDRI6uFABQpRZStEGF+ML4hU+KFCmKtb1ZYtWyJlhRoaGqJRo0Z5bj78x8HBQaqurvb8PejZsA7ivXZIgbOFB+Qq+sky5hHmEdZnTQawbmDd8LNIYZ3EOol1svB1EhYLWCxgsYDFAhYLWCxgsRAIhB104UQbJ9o40S78RBvzqLLnEYgFiAWIBYgFiAWIBYgFiIVLBqAAVrYCiPHF+BaDKINYgFiAWIBYgFiAWIBYgFiAWKAQsE0GkB3RggNJPaK7UIJYgFiAWIBYgFiAWIBYgFiAWIBYgFjst5/nWghiAWIRqizDl9Y+d2AShUm0GCZRyBXkCnIFn3Snpob9F/svKrpbMlBpliFYLGCxCCVhfEOlCT4UXii8UHih8ELh/YeEAHU7wucC9sHoZAjEMTpWlShXVdu3b4+UbjZMEdu0aRONGzfO04S0detWGj16dFFM7XivBStwjm6qgzzbpyPmEeaR1wJdqIIAuYpPrl544QXPPZT/+OGHH9InP/lJz9+3bdtGu+22m+dvO3bskH8fOXJkzs/ivXbIgLOFB+QqumwkeR41NjbmpbeDWORpscCGGd+GGWQSBc7AGQpv4WlQMY/SPY+6u7tpxYoV9LnPfc5zo9+5cyeNGDHC87fh4WGqqqryJSVBP4Q9i/da6IVhBZyjYwW5io5VseTqrbfeolNPPZUmTZrkekXYgRNcofIkFnANsmQNQU0WFmETLsxSArmCXBWDSEGu0i1Xd955J3300UfU3NycF0HAQ0AACACBXBDo6emRRa+nT58OYqEiAIUXCi98hzUZAKGxr41QtNOtaGdNnkEsclGJcC8QAAKFIgBigfRgocojTtLt0yxrigm+F8QCwerhJDup66STWKx44lXa+xNjXbrDX/+2mU7+1uGF6hR4HggAgYwjAGIBYgFi4VgEkqogQMGHgg8FP70Kfrnmr5NYPPdKP5107Ndcqs+Dj79E/35EXcZVInw+EAAChSIAYgFiAWIBYiERgOtXuNLKd8AVypowcBm1sEjqgYSTWKz+5RvU+A23ZWLl06/SUV85tFCdAs8DASCQcQRALEAsQCxALEAsFBko18ky3guLVDEsUk5i8fSLa+n5p3ppuQiwNK7JkyfTV48+kb7x9QkZV4nS9fnrrj2SjrvjXavTB55Njz0/i2pj+IwV3/1nmnfwY/T8rDhai6FDaCI1CBRELLZs2SLrWITlHR4aGqJRo0b5gjI4OCgjyL2uoGfxXjtiwNmOB+TKwgPzyMIC6wbWjSztRwsXLiSxV5tZoZ74f6/T4Q2fdW23r655m771fz+fGuUFHSWSxGLDDPrdgpMlHEwGZtA889+FYARiUQh62X6WicWee+5Jra2tLiDC9l+km0W6WSk0OGm1zx24ylh4wFXGwiKprjKYv5U9f50Wi0ef/TXVH/xPrg2/b8Pv6fijv5RtjShlX+8kFoJZ0D/PO1hYLQ6huf88j+hoomefFRYN3ZLxFhOPZ/WPPNogIOvo2iOPI9PwwX//9iP0z+aNopl5v6OL1tutI/w35jOyD4+KV7z7LknbCb9rxgY6znjefI9kPla7MVpXUjZsFd/dgiwWoqhLLJW3oYhBEfOaaVDE7KhAAaxsBRDji/EthStUz6Mv06hd3dWyh7bvoObjv1rxSk8lfaC/xYLou/88g/77bMuVyeveR76tEwbV6nHttfS5WbOISYivK9S6a+nI4zbQjN8toM9JYnG87oKlk5SDdNKi3Hey/O9H6fjHnif2rnKRokoamIx/C4gFYixCrQ5Q8KHgB1U4x8EADgZwMFB4hfNizSPUsahcLc8VY2FaB1YIYjGPDtaVeEZAukkZ1godkgOZeBwyV7MiOCwIblcobnMGWU0cTfMMYmESE41YbJihWTPEW61+vCWsFY9823LTUklH5Q5RJr8MxALEAsTCMfVBpECkQKQsGSiWwgsLTWksNCAWlavb+Z/6exOLwGBsqejfIdyZNMIgGIFisdAIw6PH6xYQp8UCxKJyhSyPLwOxALEAsQCxkAgg3awmCFB4S6PwAufS4AxikYdmlJJHciEWmnXjIEkapDFBkINr35pFhzxyJK2/SHNPUi0Mh8x1EwvTEiFjJSg3iwXBFSolYlVwNwsiFiLbRKSsUNu2baPddtvNt7N/+9vf6BOf+ITn70HPhkWX4712SIGzhQfkysLCax4de+yxtO+++0LR9liVcIJvgYLgfAuLpFo6QSwK1pMS20AuxELSBps71IF0NrtKsYuS4iMl3aO0IAjdgqEFby8gNfD6QBGsfZAVYxHFYsHEBcHbiZWlODtWELG48MILh/fff/84+4O2gAAQKDMCf/zjH+nDDz+k+fPng1iAWKAgoCIDaSRSIBZlXlDxeiCQMQQKIhaPPvro8L/+679mDDJ8LhCobATefPNN6u3tpSuvvFJ+KJ/E+rlJ8e+bN2+msWPHeoIS9OzOnTvlMyNGjMj5WbzXDhlwtvCAXNllY9myZcSYNDc3V/bCha8DAkAgEQgwsWCdgQtvOq+w9bkKxCIRY4hOAIFYEWBiIeY23XLLLbJd+MLb4YUrlIVHGk/wsybPsFjEujyiMSAABEIQiM1iseKJV2nvT7hPLf/6t8108rcOx0AAASCQEgRALP5OyAplCSuIVLqJFIhFShZedBMIVAgCsRGL517pp5OO/ZoLlgcff4n+/Yi6CoELnwEEKh8BEAsQC1XKQSxALCp/1cMXAgEgEBcCsRGL1b98gxq/4bZMrHz6VTrqK4fG1V+0kwoEOIf2I/RtI61dKvqMThoIgFiAWIBY7Oe5IKTR9WvJkiV02223kV9Vb/Z59otzGh4epqqqKt/F8Ve/+hV9+ctf9vw97NlC3hu0WuO9dnSAs4VHmGxArqJjFSRXfBh13nnnecZYhGXPs8VYPP3iWnr+qV5aLoI2jIsDN7569In0ja9PgNZWBgQ4Fd1Z9HMtdZx++aenK0MH8cpEIgBiAWIBYlE5xIJdobZs2eK5yRe6AE2aNImWL19eaDN4HggAgQpC4P7776e99tqLpk+f7vqqnIjFE//vdTq84bOuRl5d8zZ96/9+voIgS8+ngFikZ6yS1FMQCxALEIvKIha77rqr5yZf6Lpz1FFH0erVqwttBs8DASBQQQjcc889xNahgonFo8/+muoP/icXNH0bfk/HH/2lCoIsPZ8SSizUYjWkFcs58SG7lYML6sw7WCuYo1XufNcEQBbNESU8NSvIQXT0s8/Ss+LXo+fNI5qhuEIphXbEr1blz/RAmameMrF45JFH6Prrr5ffPTQ0RKNGjfLFYHBwkKqrqz1/D3o27OQC77VDCpwtPCBXFhZh80gUspXJCLw2+UIXNhCLQhHE80Cg8hBgYsFrdGtrq+vjwtYrmytUz6Mv06hdR7oaGdq+g5qP/2rlIZeCLwomFiTiIObRwVx5kz2lhPJ/7Vuz6MT1/sTC9smSLGywKm/ecZBCGNQYC/7vGSR+lCREVt6cdzA99vwsshy0UgBmhroIiwUsFqq4I3jbQiONMRbsCgWLRYYWcHwqECgzArFZLMr8HXi9BwLBxOJzdO2RxxEbIAzLAzfhfEa1WAhWIEkCWyW0S7M+fE5aLGbQ7yRz4EshFkxAziL6uUkk+DeF0GDkEocAiAWIBYgFXKGiLEywWERBCfcAgWwhAGJRwePtFajtRTaYPMwQbOHAsx8Tod5n2QK+LWJBkog8erzmFsUWDpvFAsSiYiQJxALEAsQCxCLKggZiEQUl3AMEsoUAiEUlj7ei/Gu2BMUt6XOCGMw9hJ7XrQwGCXns4HmK9UG7/78F4RAGB0ksNsxQXJqkh1OIxUJ9J1yhUiFtIBYgFiAWIBZRFisQiygo4R4gkC0EQCwqfbxtAdqaVUJLP7vOdIXSIDCCqlV3p6Pp6KOfpf/Wg7dlfASbNvg68EA68N2DrBgLP4sF34vg7VRJGYgFiAWIBYhFlEULxCIKSrgHCGQLARCLbI03vhYIhCIAYgFiAWJR4cRicSNVta5ShnkiLRpeSVPF32v6umhgtlZ7au3MGmro76ThlVM91w0vYjGzpor6O4fJ9oh8H2nvCF2BCrxh7UxqXDqFVurfUGBreBwIAIEcEQCxyBEw3A4EKh0BJharVq2iG2+8UX5qUCYc/n3Tpk00btw4T1i2bt1Ko0eP9vwtLO0c3muHDThbeECuLCzC5tH8+fNlumhbulkHgSDj3/XtFrFw3uMxiyNbLEpGLNbSzJoG6mleY5KjSl+v8X1AIGkIMLHYsWMHTZs2zdW1sPXKlm42aR+G/gABIJAfAiAWwRYLKPhQ8L1mVtiGWS6inBexmLKUatrracDHUmF8f7DFYjE1CjMF20XGjx9PGzfW+lgsdDJAfM9GcbdlPanqWEfj+W9tgigI0mNYWSYu0iwi0qIyh5/hxxbRcEu3ec948UxnfwMZhhn+98DsPrNP2jNt1LZuDnET2u/CUiMsHjUNc0i2Or6N1gzMJs1+gwsIAIEoCIBYREEJ9wCBDCEAVyi4QqnijjoWFhoVU8ci0BWqjmrnzKF1hqIdsPYFEYuuPqH09zRLxVyYEQQBCCEW0srAt+oWB0kkDPcpJikdVLdmgGYTK/791DncRX0u64SPxYK/t6NO9KWe2rVGaWU9t9NDzaLNKUuNviq/T4X1I0PbHj41RgTgChUjmGgKCFQCAiAWIBYgFpUfY6HGUpjjbbossdLeRNQrFPmA4/ogYtHSXUWtJKwIbFoIdIXSFHgjLmNxo/4cWx8kGRAWA9WKIDs7XhgxRN/6lFgRaV2YQktVsqESKPm7k1gwQdFiS+S7eomadLKhGS+CY0wqYb3HNwCBuBEoiFj827/92/CYMWNC+zQ8PExVVVW+9+3cuZNGjBghf//444+JT8hqamrkv8OeDXp52LPqe53thD2L91oIhGEFnKNjlQS5Yv/1r3zlK5FjLHCine4T7TAXHYxvusfXs/K2X/yE7e9sJeimloCA6zgtFnNqmYTU2y0WBrEgxWLhRXQk8dBIgug0ddQJ6we7c+l/M4lDGLFQf4fFIlS3ww1AwAuBgojF66+/PtzQ0BArsmvXrqWFCxfSvHnzYm0XjQEBIBANAecchOJpxy2JivaC48bT+ms3Ok6XNR/34YXb6aHTiXbZZRdxcFxDfV32U2iMb/LHtxAXrPyJhcBFP8kfZh8ljys4xkKzRMj4hVxiLIy4BtN9SYtxcMVTCEuItG4Yya04xkL8zbhvfNv91Nxzqny/6ICI1agVxKOFum2uUA6LBVtHXFYOxFhE2zlwFxDQEACxgCQAASBgQwDEIk2uUIby9i/CNcSbWKz6l5/Qf224hr4AYiHlPGtEypNYxLTmeRELP+8Etmx7X5Yr1KpWf8+GmLqcVzP+fc+rOTwEBCoaARCLih5efBwQyB0BEIsUEYu1i4WTyFTaNkuxWJjuLCIDTk0fndL0AHVSD22c+wVYLEAscl8QAp6InG5Wb8NmYdD/ZlgWXLUvYu0pGgMCQKBUCIBYlAppvAcIpAQBJhaconL2bM39YWhoSObB97sGBwepurra8+egZznPNV8jR47M+Vl+AO+1YFt00r/S+ivfpKvqVSiXUVNdP132m2a6v76T6t9cISJT60SQbL/tPoyvXfwqTa7YtZhjIW11LGJai3IlFjG9Fs0AASCQYASYWPC+0toqMrA5rrB9vwoxFgkeWXQNCOSJACwWKbJY6GPsG2MhLBZXrO+iw5acSLs+cJrI0dOBGIu/p298Y4+xyHNtcD4GYhETkGgGCFQQArBYVNBg4lOAQBwIgFikT/EMJRZCMLpP2lUEuuppOpXMOlmLOcja95Y6xiKONQhtAAEgkF4EQCzSO3boORAoCgIgFiknFo4YC2mxEJKyS3+7WRBMrU2QNUU7a98LYlGUZRKNAgEg4INArMTClg6OX6injeOqm+31A8R1cvjiAC6ZZ9qj8o53ulnvHNbyfXplz4AaPkUbfBTPKRq0aLiMCIBYpI9YFOIqkzVFO2vfe/XVV9MHH3xAxxxzTOyryg9+8AO6/fbbY28XDQIBIJBeBJ566ikaN24ctbW1uT7iH//4h/wbpz/3ulwxFqxoqwTC+HdXn/V35z3OhnOpY1FuYpHeYUfPgYA/AiAWIBaqdCSxbgeIlDVCYRv1zJkzaePGjfTFL34x9mVv7ty5dNFFF8XeLhoEAkAgvQi89tpr9NnPfpa6urpKQCyokWr6ujwtFcbbQy0WxBU255BW82a8+N9mWsNFbVzdV60cyn8rzxNNpEWiUmc9Wz76O63iOvK/tQqgsriOuCYuGhYWF62ddeM3ive20f3NPXSq/pwsJGRU6tEL9aRXLNDzLCMAYgFiAWKxn+cSkEZCA1eoLK/m+HYgUHoESucKJQjAujlzqFYq6NFPS7U7LWJQ3y4qbYrcJlxhU+bEXteWE7GYstTtPqW6NHm5N1l/I1nJVrAR+Q3m37v6FN9lrdqtcU/phxRvBAKFIQBiAWIBYgFiEWUVQVaoKCjhHiCQLQRiJxaqK5RphTBjIeqpvaqbWoSVwI9bBFssekUe9gbqadbiM4JdoXwsFhM0xX+V7JyWIUWSDZfFYqrWvmWyEGSGiUUH1YlnODzEJBYt3cJawVxC+66gGJJsiRe+No0I8By84447qKOjQ3afXS38/CH5982bN9PYsWM9PzXo2Z07d8pnRowYkfOzeK8dMuBs4QG5ssvGsmXLaO+990YdizQuxugzEEghAkwsPvzwQ5o8ebKr92Hrc2iMhUosTMKxVrgyNRH1erovCWVdKDVc0GfevHlKh/K1WOiWg3p2n+qhZp0QaA2vla5OXO2TY0CMIPA+toKwRYTJQkedtIZw8LlGPHyIBSwWKRR9dNkPAVgsYLFQZQMxFhYacIWyrxqwWGAfAQJAwIlAySwWzqBuw0Lg7FAYsZitWByCYyw0y4EMexCxGCIsQiMWfUoshB5jMZXJjhq3UWuQCM2yYb2HLS4eFgvhF+W2bgT4e0EOgUCCEQCxALEAsYArVJQlCsQiCkq4BwhkC4FYiUUc0OWSFSqO96ENIAAE7AiAWKSfWHR3C5fTlhY5sGFZg7KWfjVr34vgbazwQAAIlBKBVBCLqqoqX0yGh9fYsjcZN2pZnIiCni020MPDw8V+BdoHArEjAGKRbmJx7733yrgV9q1fsWKFGcPiFyeTNUU7a98LYhH7EokGgQAQCEAgFcQCIwgEgEDpEACxSC+xuOmmm2jPPfek7373u/Txxx9TU1MTLViwgPbdd1/fAPysKdpZ+15PYqGmR5dLi5Z6fapZtV1L4B5WBNbLFWpmTZWMXbRlf5TvsxKclG4109/E79djJstRTLfk34sXAoEyIgBiUUbw8WogkEQEQCzSSSxmzxb1fCZMoJNPPtkmVpyZ49JLL6VDDz3UU9yypmhn7Xv9iIWtppRBKOrbrVpTDpLhJTyRYyzKTSySuNCiT0CgQhEAsajQgcVnAYF8EWBiMX/+fGJFla+hoSEaNWqUb3ODg4NUXV3t+XvQs2G+/3ivHdIgnC+88EI69dRTiRU9r+uss86SMRdHHHGE62fgHB3nNMozZ1kcM2aMPd2skzQ4icWUpVTTXk8DQUWnBGzBFgsrtbtMgLKx1kzJbkfcytC4cqr63+7U8DL5imF5UKwQMpujlkOexrdxOnpO5ihS04uU8vK9i4hajeeUZC3iZp86WPmunngOCAABJha8Vra2CjOl4wrb913pZuOAE8HbcaCINoBA/gjAYpEuiwUv3hdddBEddthhgYPe3t5OX/nKV6ixsdF2X9ZO8LP2vbm7QtVRrShmu04q6MGOQ0HEQk3jLlO2z8mRWJCH+5Tq0uTl3mT+bQotZWKh17wSKSJ1QsKZHY0CthqJMe/Jf8nEk0AACCgIwGIBcQACQMCGAIhFOojFtm3bpNsTFzM84IADIknx3Llzab/99rOdJGVN0c7a90ZyhTKkx3RZ6qI+reCULAbrdwURi5ZuvSYUWz0CXaH8LBba360atSJug8mGh8VighozIq0QGrEwYz0MYiFr7Fo1rcJiSCJNKtwEBICADYGCiMUVV1wxfOCBB8YK6bp16+ipp56i8847L9Z20RgQAALREPif//kfeu2116i3V+zC4sqaIpaG7/3zn/9M06ZNk2O0xx57RBtY/S52c+PAbmONTcP3Oj8wjYXqyoVzrsTCir1gVySRtpiDun0kLE6LhWY56BPvNCwK1ku5JlVHnfhdxIAYQeD1bAXpaaY1kiz0U6cefK4RDx9iMQCLRU6LBW4GAnkgUBCx6OzsLAqxePrpp+ncc8/N43PwCBAAAoUiYBALTlUKYuFGs9yVqPnwRay9xLUq8r14bH/zm99QR0cHiKMDxHKPr9eYFkKk8icWoif6Sf8wBy14XMExFpbFITjGQs8+JU0TopitqGZby1ml6q3Ctfz3Ni5w61kgVyMR2uNcDLdWkAy2uHhYLMR3uK0b4m/5TiQ8BwSAgAuBgojF66+/PtzQ0BArrIixiBVONAYEckYArlDJdYUaGBigJUuW0G233ZbzuDofeO6552Sdi2uvvVYG9/pdlaZol8tyUK73oo5FwVMFDQABIJADAiAWOYCFW4FAFhAAsUgmsVgkUtu89dZb1NXVFZsYstWCs38xWQGx0BCoNCJVamLhV5SWC8ayS5ORvcmQNy2L0wQUs41tVqMhIFBeBEAsyos/3g4EEocAE4u7776brrvuOtm3sJPWTZs20bhx4zy/Y+vWrTR69GjP38LSzuG9FmyLFy+WCu+sWbNilxd2ffvBD35ADzzwAO26666u9jG+FiRplGeOqeF00dOnT49ddiLXsYj9zWgQCACBpCLAxGLHjh0yDtB5he37SDeb1FFFv4BAAQiAWARbLEqtaN9yyy30iU98QlbTLta1efNmmWGKax5wlW71KvX3Gu/Ge+MhNCAWxZo1aBcIAAEvBEAsIBdAAAjYEIArVHJcoS6//HLPatrFElkuoscB3bW1teYrKs01KMwSVmnfW2pXqGLJJtoFAkAgHQhkyhWKc1a31w9QSDFRj5FT82xbP5sp8LhKqZIbW+S4sOXflk9MXETDxovVnNs0Ua9Gys+0U/2AldrP2V/pn0p+7fBLjMwZWh8XN9ZQX5eRh1ykDqzpoy7OiqH9KNL2aaVKJy4SGTg4n6Dzb5yVw6v6qisnub1tmx+t8d22b9YxtFU9dRcrMr9f5C63UiDKzuvfwtlA7Jhp2Dv/lo7JmJReglgkg1icf/750orw7//+7yUVjR/+8Ic0depU+upXvyrfW2mKNohFfOIEV6j4sERLQKBSEACxiDqSrBh3t1jkgJXbqg6qEynwpiwVhKW/ltbVdemVSt3KrankE6fQ03NuGwq+bLc+hFiwMq2ll2wxyIfok03hXqsQAfHfjUun0EqubsR/b5hDG01FnvunFz/i/sj/ZCXd+TeRYnBmIy2dstJeJEknCUbQnaXoz6Y+I9+4XlXJVYBI7aMNe4OMGURLS0EoiSCIRVQpjeU+EIvyE4uo1bRjGXCPRtQq3SAWFkCFpH0tF6GBxaJYswTtAgEg4IVASogFK/GtpJ2vWyfsUmnVc1+bOa6l8r2KVm0Up/eLmqmnVSjUulWAC+o09RBt3CgSXutKNivOTT2rxD2iWqcstMP3y5coJEIyAHuxIKOSpyy4w0WEWqjbtAj4EwtJQpxWExEsu1bo/87Td9Viwf/dRL3i/5qs5wOIhWqtWCsCP7nCUbvZP9XCYPTVp/9eREC+t4Waezr0yqxGewIL1SoiR8uBRSCxEJaGTqJWncCBWJRn0QKxKB+xGDlyZM7VtIslJRy8z/EWxxxzjKzW7XWlUdEul4JfrvdyYL5IDU//8i//EruoPPjgg3TSSSfF3i4aBAJAIL0I/Pa3v6UvfelLdOutt7o+IkHB24pSbyimXX36Sbtw7eG/ycN2VvI1K8LsPmFhkBU4tVP07pZh6urTlHNObWcorerfbMq4h9sUu/hwO+w2ZP63OE03LBnW7/6uUP7uWB7PmCTKy8LgKPQjh89whfJyB1LJRA7EwnQ7UooIGYSGXcCkqxTprkkxEAutMenCZZIwWCxKusKAWJSHWLzzzjv0H//xH3lV0y6WgHDgL1f5vvjii0EsBAJpJFK8uXOGlsmTJ8cuJieccAI9/PDDsbeLBoEAEEgvAvfff7/MRHfWWWclnFgYJ+EGsWjpVtyAPE7dldN8lUSY1gL9d8sC4FbsLVcfHRvztF3ovtJKwUqwIy+3tHSobk0KKZBeSW6LBaeSnDo1wBXKVoFUIRCCPJmuUDZXLUc8hex+vsTCg6Qo2GpkahFRB8dvxEMspupEsbO5h7rZuuOM9TDHwY0ZYiwKX4xALEpPLLiaNgdN84KctGv58uXU19dHHEjuvNKoaJfLclCu98IVKmkzCv0BApWNQHpcoSSw6aQAACAASURBVJzEws9iYdznQyy8LBYG2bAHO3sNvK5kG+46ah/k7YYS3kV9agCxaVHRrSvOGItWEgHcjme4NZ2EtHRblhKNI+iEor7dFmNht5g4A5idVopoMRYTgiwWMo5Cd1PTXcsKi7Gw+my4uWmB5XY3NMMtTBijPAK1Ebxd6JLFxIJPqrlwGl9DQ0Py9MHvGhwcpOrqas+fg57lU1S+2P3H68rKe3/5y1/KGhK33357oUNXtOdXr15NTDDmzp1rewfG14IjqfLMKYS5sjrqWBRteqBhIAAEFASYWPDewLGCzitsnSxhHQtFKVZ89L1jLPTMR37EwhVjoVgQjCBnHQkzW5KCjPZOIo7pYFcdg6gYt2hK77Ui/uAeV4Yn896cskJJFiOtI5y4Sbt0RVsaCoyAceXv0pKiZoTSf/PMCqVkkjL7pfzNN8bCeq/EpKdZup1JqqFacZyxKmExFmZWLI2wCMYlXc+ssRYvsAWhN5AMs5EX91sGyjj+ZmTGwtyPggAsFqWzWDzyyCP0yiuvxFpNO8oY53MPV+lmYsEVwI0LFgsLyTDfYVgs8pE6PAMEgEDaEEiJxSJtsCagv2pWqAK6s9YrK1QB7eHR5CMAYlEaYnHvvfcSF4H7yU9+knyh0Hv47rvv0o9+9CNpvdhtt91SGXNQLgW/XO+FK1Rqphc6CgQqAgEQi4oYRu+PCHftCvl4X+tCBYOGTyMQi+ITi5tuuon23HPPolbTLpYoc5XuSZMmEROjvfbaS7rZeF1JPcEvl4JfrveCWBRrJqBdIAAEvBAAsYBcAAEgYEMAxKK4xOKqq64qaTXtYok3V+meOXMmff7znwexEAgklUiBWBRrBqBdIAAEQCwgA0AACIQiAGJRPGJx4YUXUlNTU8mraYcOep43cI0ErtL9ta99zdVCUhXtclkOyvVeEIs8hRuPAQEgkBcCsFjkBRseAgKViwCIRXGIBSvgbW1tdNhhh1WU8FxyySV0+OGH07e//W3bd4FY2Ic5UcTClkCE+zlR5MkQCUIcRVdl0oz+TkexWOu7jjrqKOKMYeo1s6aK+ju1pBvmJd/HuTjUJCTGr1qqd/kM14WS9aemiIKx+t/Udipq5uBjgEBlIgBiUZnjiq8CAnkjAGIRL7HYtm1bYqpp5y0UIQ8aVbrV9IIgFskmFmYNJO6mVwpzB8nwEgEvYuEpKlGJhUkiFLIBYlGsaYt2gUBREEgcseB87tdccw299tprRflgNAoEgEAwAkws7rjjDlmwjS9WEHfZZRffhziYd+zYsZ6/Bz27c+dO+cyIESNyfpYfSMN733//fbrgggtkdeI99tijokXvF7/4BfH3fu9735PfmYXxVQc0qd+7bNky2nvvve11LJykwUkspiylmvZ6GrCZHdziG2yx0GscicfGjx9PGzfW5myx6BEpxDdu5HzilkWlqmMdjee/ta2hAe6nyP8uM46bacgreprh44BA4hFgYvHhhx/S5MmTXX0NWydLWMci8Tiig0CgYhCAxSIeiwVX0+7s7KTu7u6KkY2wD1mxYoXMKsZVumGxsKOVHleoOqqdM4fWseIui6D6X0HEoqvPqm8kfJ1E/ac8iEUz94ELoTZQD/+3KApruVSptY40C4e8J6TPYTKM34EAECgMgcRZLJxKTWGfh6eBABDIFQEQi8KJxUsvvURLliyh2267LVf4U3//c889R0wwrr/+evktftaucinaWXuvZ/C2n5uT6bLURX01TUS9wcVFg4hFS3cVtdIiLT4jqiuUT4yFLLrKbbV06zEYohirLGjbQ82iWC1zibB4kNRPLHwAEEgJAiAWKRkodBMIlAoBEIvCiMXTTz+dmmraxZIprtI9R5x6L1y4EMRCB7lchCZXYmHFXrBFoJtaPAOutY8qtsViTi0Tk3q7xUIGdwtiQbBYFGv+ol0gUAgCIBaFoIdngUAFIgBikT+xmD9/Pv31r39NVTXtYokwV+k+++yz6cEHH5RVup1XuRTtrL03f2IhRowtDUKRH2Z/JI8rOMZCc0+aIwIg4o2xMIiF3r/WVVrPEGNRrKmMdoFATgiAWOQEF24GApWPAIhFfsSCq2lzELsRvFz5khL+hR9//LGs28FVuvfdd1/bA1lT8Mv1vaWuY1FVVeUpGMPDw4EC4/dcuJTZ7wh7T67t4X4gAARyQwDEIje8cDcQqHgEQCxyJxYcrDxhwgSZVhaXGwGu0s1Zxmpra80fy6VoZ+29pSYWQfIvYyV0A4Nx3/gIQeKYU0AACKQHgUwRCw7uaq8fIM5Wwf+rZdLzzpfNC2BHnZHOzgoQM+5n8655TdQD1PgPtsJDeoo8+Y52qh+wigMZfTGy+ZnBadYfRPYLdQUeL7LreQfS2duyzM+Wadjrbx5C6groEz6sNX3UpRcrUjNumO+sFwF0ZlpC5T3cvIlLwPdzsJ5jp5m4yFFcKT3zqSJ6ysSCXXpmz9bcH4aGhmjUqFG+3zY4OEjV1dWevwc9G5Y1KC3vveiii2jSpEnS3xyXPwJcpfuUU06hr3zlK5ArD5iKNY84zmXMmDH2dLMxCWrkOhYxvQ/NAAEgkHwEmFjw/q3WNTJ6HbbvpzbdrFOpl2Sgu0WpLspBYR1UJxT5KUsFCemvpXV1XXoaO7eSvLixhvq6hNJPnKWinzqNYDezXQ4+CyIWrMBrKSlbDPLhVPI5A4ZHXnHjBMhUxpVv4d+6W/Rqpvr3mX/zKjoUQizmbDSIkpaBQ5IzhViYZExP92f9m9MF+ny/IBa2Qk3JnzMV30NYLKJbLHjhZGIRTzVtBzFXybmrUjLzdouAex1MuOaVuYZowbDq4Yh6auxqK0aJb29vpyOOOEJW6c6a5aDQ72UXH64Vcvzxx9PBBx9sjkrYRp0ki0WMooSmgAAQSCgCqbFYWCZU4+TeUMZX0aqN4m+LmqmnlQvlKIV0zJNw7W/1nhYLHhlH9gs9YG3NQD21y6wYLdQtT+45E4U/sZAkxLSE6CMuTn/XilR4SwOIBSvpTdQr/q/Jej4SsVhMixdPpXrFAmMjTXobge2qghlILAQx6CRq1QmKm1iQbt1gjIxLtXiAWCR0DXB1i4kFxwucf/75nifLTl9oPmn91Kc+Zbaj/u60Oqi/GYVyRo4cKZ91trt161YaPXq0529871/+8hf5Xi6wZ7TFN7MCZjzr5W+9Y8cOeY/xXuc9/KyXhca4j9+71157SULBp8EHHnhgTEMbcGjRF0TAIxxMcA89Dyf4nWpaUY+2Yvo6oxmu0j1u3DhpveCTdL/rT3/6E+23336ePwcp6WGKdqEKvl+fS/HeE088kX79619LYnbhhRdKghH2XhCLmAUYzQEBIBCIQDqIhW1DNJRVVvo1q8Jssely5gpOQdenn9J31a+VPs+SNugWBUPxt7tCafioJ/nBJ/3+p4ouS4gJvccz4jftxFHZ2NniIfd4oZy7TiijuUIVlVgIa4pgD9I6Y5Iow2LR1edhUTEUJc6J7k8s7K5QllUEc7c8CDCxmDFjhjl/WHExlHBDcVd7xgG6u+++u2dnt2/fbks3qirxrODz5Vd5W33Wqfzzv7ds2SLfy0rqpk2bzPcz6TAqfqtkxfhvZ+VPJ6Hhfhm1F7wCSplIvfHGG8S1Kvwqjuc3cvkRi0gHEz7EwrlmebaV38cEPrVgwQL64IMPAt1zeEx5bL0ulXQ6fw9TtIOe5ba83mvIn9+z/HuU9wa5FEb53g0bNkhCxvd+9rOfpWOOOYZ+/OMf0wEHHOCb1hfEoggCjCaBABDwRSAdxMKlZLPyqVgRlJN2a6PUclxrUQqaUh5ELKzTPKE767m7xX/YA81kzIDq1mQ/7fMiFosXL6apUwNcoVgxb2BLi3HpBEI9oXS5atnHU31vQcTCeaJpc53QiQH/TZCfzuYe6ra5QnlZLAQ+jUtpykomfLq7mG7OMN3HAk9iMXPLgQBcoYJdoX70ox/ROeecYwtEjmeccnGFUuO3dIuD42DC3xVK94N0rSs+hxzxfJyrlcmTJ0vLkd8VRACY/KlkV23DaNMvy1DQs9yO871sNWHrCV9+z/K7orzXr1ig+l6vfqvvff3112n9+vWyP7vuuit9/etfpyeffNKXWFx99dWSxDEJifviuJnbb7897mbRHhAAAilG4KmnnpKHQm1tba6vCDuAKV2MhacJ37BcaKf7xiaqKda9VNdhnJBbm2UgsTBcnAx3Hz6BN6wHEhqf03dd0ZZWBlkJ1BFj0UqCBPmf2HN1UhkHYcQ8GN9S326LPQiKjXCSCSNeJOcYC4dLmHF6ySnM1RgJWeFUOGhLi4tnjEWfFqMi3NP6+6bQShFzYbXFzEJxPfOrAJviSZX2roNYhMdYXHHFFXT66afT1772tRiHW7VYOFyU/OaJXHNCDiaMHqrrqLpuqb97tWX5Nsb2rexmN3HiRPrmN7/p2yZcoSxoDPet1atXE2fY+uijj2j//fenWbNm0RlnnCFv9CMtM2fOpI0bN9IXv/jF2MbPaGju3LnSJRAXEAACQMBA4LXXXpMW1a6urgQTC1ZFVeuBLIQjXKGMuAcPiwW7O7Hyy9YKsX9xVLSZDcrLFUpSB6kwk2nd4LiHAT0Q2fi9ia6l5p57XBmezHtzygolWYyjsqmudC8i6ugzAsb57f5VUH2zQtmyMunBmsbffILBDdIgpcEsOOR00VAqntqyQjnGSWtEz2alWpCUwFOPoFSkHyzvAgViEU4s+BSbA5E5w1FjY2NMA+aYZ6ry70MsXAcOPgcTsoPmnLessmoOB9+2lDUwjg81At5540GMhYVoFCJ1+OGH0/vvv0+XXnqpSSjCTgDhChWH1KINIAAEoiKQDleoqF+D+6IjIJSMxqWaNQEXEFARYGJx9913EwfZ8hUW7BrFN9wL4TCFKA3vveGGG2SA8bRp02IQIu+0zPLQQlgwnWmZx7d1Ue2cl30PJlrVNM58oGDEQbV0u9qi8RPp/xPnMP9hZLSTX+N/mJHPx27btk3W+bjtttvo05/+NOTKAWKUecQngV/4whdsT4bNI04dzbEd06dPz2fYAp9ButnYIUWDQCD1CDCxYPdNr30xbL0qnStU6mHGBwCB9CAAYhFssXAqgJwZavPmzXTBBRekZ5BL3FM+jf/Od75D9913nxnwngbi6ISpkKDxcn0viEWJhR2vAwIZRwDEIuMCgM8HAk4E4AoVzRVKxW3FihXEuHEFblx2BNatW0ednZ3U3a3V6jGuMEU7imuQF9ZhJ2JZey9coTAjgQAQKCUCcIUqJdp4FxBIAQIgFrkTCx7W5557jnp7e+nmm29OwSiXpoucknfJkiXS/cl5ZU3BL9f3gliURtbxFiAABDQEQCwgCUAACNgQALHIj1gwiP/5n/8picWiRSL7QsavRx55hF555RXPzCAMTbkU7ay9F8Qi4xMRnw8ESoxA4ojFs88+S7fccguxawEuIAAESo8AiEX+xIKVVi6gd9ZZZ8k1bLfddiv9ACbgjffeey/9+c9/loUW/dKgZk3BL9f3lppY2NKRq2nHPOXSnbCgHOLLa55RUDe+97vr0mhFca03yGyXxPWxpupZKa2KVvIukXRhTV2HnuHSeI4zLXZSf4NRp0v9ey9Rk5Zqv15muawV6e5XkvZKvT+1/D7ODOd43swiGR8CaCmbCIBYZHPc8dVAwBcBEIvCiAWnUOVg7kmTJkmTMGeNytJ100030Z577mlmBAGx0EY/K8TCLH4aKeFgAohF0WopeaVpF/WdRLFeLRkj1+LS4o5aBBEw+YajP16Fd631xPkO699MLJp6iGo7BzQyI9NXyz+QeJ14dx91cf2tLC1O+NaSIJA4YuFUakqCAl4CBICAiQCIReHEwgDztNNOo8suu6wIVbqTKbAcvN7Q0EAnnXQSIYjaPkZZIRZa5XCuDN9C3capuFkTSalnJE/I62Xx1f7aVbRqFZdOWiNrR9nqVvmepGtKtP1ZUcy1sYl6VomTf9FWLzWZp/2GtcBqm0/++YRfq/HEv3PBWjNLs0f/JrKLYyuf9Bv1mRSrhPmNxrh7kCZHzS1OJc19bK/XlX/JN6yCv/zPQohFOzXTuv56QSQ0i4j1bxCLZK6gldErEIvKGEd8BRCIDQEmFpyicvZsUXJdXENDQzIPvt/Frj/V1dWePwc9y3mu+Ro5cmTOz/IDaXkvuwNxUbh4q3THNtyxNXTuuefSCSecQF//+tdlm1kZXwPApH4vp0NmK1qp6lgYFospS4UiayjMurLMSrRRTFa7T1Ps+zvZRYhP8PkUfYrQpicI1ySpZQecrGtKvfasocR3UV9NE1EvWwXUZ43fBdlxntSbirx4reu9U2ip8Q4uBtvQT53Cj0haA3RSYHwPK+72orpBxEIQIKOfxJYE7rJuPfAgFlqxX/2yEZhgi0V7vSjC26FhulSQsPreOupoZ6LhdoVyumnFtjCgocwhwMSC937e95xX2DqJOhaZExd8cBYQgMUiPouFIS/xV+lOliQa1bQPO+wws2OwWNjHKCsWC4NY1Lcrp/8MhbAALKIOQSYMVyD+o6oYK0RAKNdmQUiXJcDA1a5UW0RFizGYyq4/DXPIUsk1KwMTHkNRl8o0KRYC13t1hdxoTyrlwq9IV/47+5us7zEr2xtOTd4FLyXZkiTF3TfpIhWnxUK8q6VbELiWZurpFn03imTCFSpZC2iF9QYWiwobUHwOECgUARCL+IkFj8mcOXNirNJd6CjH8zyfSjU1NdEdd9xBBxxwgK1REItsEwubxUKHQj3V11x8eqmuQycChnVCxh/rCryMC1BO822QsuJuWCdUi4WjPb84AoMIiEr0NX1dNDBlKdW43htMLFQLTLjFwuovk67uFiWQWyUTMRMLJk5M0iSJYkJjWCwQYxHPIohWXAiAWEAogAAQsG/XwhWK3SfmzZsn/16uk9ZKfG8lVek2qmlz7Y499tjDNYtALLJNLKQrkpJ5SIufYBcgLaZBBFTQGsNFRwYvW65Q7H6k3TNRRGs4gptNWDVFvUfYJDaKe632DWKhxSdYbkSOuA8jToJdkYT1oHbRGkFynO9l1yrFAuKwWLi/Rw2G9ssKxbh0U4uZrYk/SPlbmCuUuNtyWwpzheLYDW5bDxrnb/VxheLxGOYPwgUECkQAxCJPAO2ZL1RfT6tBDhLrqBOLKZ+ENPRQs5kNwr3gsJmYU87JSzXHyiA4XnQDzKrmY1bqOnc7/Bcj4Ez9aGXxN03Oav88gtQ828kTSDyWOARgsSiOxcJQtLm+Q9qrdL/55pt05ZVX0oIFC6T/vtcFYpFNYlG6BS0BGaVK97F4ExBIDQIgFnkOlSulHpOB7haLHMgTCO2UQJqE+2tpXZ0wt0onSveCaLYnT0+0ADHJF8x2tewZ0ndU77M9W4RH6jpnGj2XD6g944TVnmirkWilmnCbv8f1tzzBw2OJRgDEorjEgtOvcpVurnPBqVnTdr344ou0dOlSWU07yKoEYgFiEZds27JEGY1O7KK2dS/b9sS43od2gAAQyB+BlBALQ2kWKen0tHBaFgjdbMln8U4zq3HSr5z+8z2WT2SfZR7sM0iBkilBtyCsndkockGvEsZWYbaVCSw44Go8jR9P1CwzTxjgO8yb/N6OOmHqrad2afZUs1H4Ewsvv1RxvMlJMrSsDj7EwvDvtKWui0AsVNExiYUaWGZYMdRAON9guvwFEU8mBwEQi+ITCx7t3/zmNzR37txUVelma8urr75KV111lRRYEAtr3iaVSJW6QF5yVjL0BAgAgXIgkB5iYfgIminklJR0xkm8mfHAKm3pa1kQ9za29xMJK0KXngKvs7/BDKjiExIOrurqs1LIWW2pQWPWsBnPaEkj9OAsDpzSLRnW7/6uUP45qz2eEa/WfC2V/qip62wuVdxPL1covf9qkJxifTED0urbze9wB6mVQ3TxzmIhAGJRGmLB4/f73/8+NVW6uZr2+++/Tz/+8Y9N0QOxALFYvXp1sZYitAsEgEAKEUgPsTAzGNgrS5qBWbqFwV78RlgU9MAsmXJO3sNWiW6qaxP/ntJC/e0iMIxaBYngwC3FIqDk3dZycXultlMtFqI909VIewcHZ4n/sArumH1Q3ZrsJMWLWCxevJimTg1whfJLXScsMTLbBZtVXK5airSa1hWPKpxeVUmLVqk0hTOoArvMxIKz/HR0dMiv45NYv+rJ/DtXmR47dqwnEkHP7ty5Uz4zYsSInJ+tpPd+/PHHklzwPE9qlW4O5Odxmjx5sm2sML4WHEmV52XLltHee+9dsjoWFbgk4pOAABDIAQEmFh9++KFrv+AmwtbJEtaxUN2M9MwRnf3UFKQ0u5RfewGdHqqlzgGR8UFW6RT/rZMAIwWcarEwivyEWSzM2AlRk6aVrRRsQbGlyvNKiacTEuM+6XLkiLEQNUYWDSvZKfQBNkgIVwv1TF0nrAwmsRDPqBYVU0Z84i7Uoj/8/arlJrgSaA7Sh1sTiQAsFqWzWKgCwEo7V66ura1NlFxceuml9IUvfIFOPvlkV79gsbAgyaIr1L777kt//vOfEyWv6AwQAALlRSBFFosOWidyyrHlQXP/UbIZTRQp6dbVkVbE0yg6o2VTUi0GWhzGBC0FXU+ziH+Que/M/54gA65baRWPiRljoVQPNeMMvGIstIHU0tuRWYjHXolT+72JrqXmnntc8RLmvTllhZIsxjt13SIuumkEjHPv3GnunEFxrlgVM1uV4oqlZrAqr/zi7UVAAMSiPMSClXR2Mzr99NMTU6X7vPPOo6OPPppOOukkT0kDscg2seBq8i+99FIRViE0CQSAQFoRSBGx4LL0Hq46aUUe/QYCCUUAxKJ8xIJTtyalSjdX025ra6N99tnH10ULxCLbxOKoo44ixFgkdCFHt4BAmRAAsSgT8HgtEEgqAiAW5SUWLBfXXXcdjRs3jqZNm1ZyMXFW0+ZCeH6xHyAWIBYgFiWfonghEEg0AikhFonGEJ0DAhWFAIhF+YkFCxQXn/voo4/oggsuKJl8MYmYPn06cTXt3XffXb4XxMKCP41ECulmSzZ98CIgAAQEAiAWEAMgAARsCIBYJINY8KBwEb1SVenu7++X9Sk4i5B6gViAWPgtkXCFwuYBBICAEwEQC8gEEAACLmIxf/58mj1bJDcQF7vGjBo1yhelwcFBqq6u9vw96NmwLDp4rwbpCy+8QCtXrqSbb765aJLK1bQ53S2nlXVeGF8LkTTK88KFC4ljd9gSFfcFYhE3omgPCKQfASYWvFZynJ7zCtv3S5huNv1A4wuAQFoQgMUiORYLQ2a4SjcTvSVLlsQuRg8//DD96le/MqtpO18Ai4WFCFyh7NLhRSy0zIgb9eyNYeJqrw8Vdrf/73oa+kISvORUn6mAfjsL145vkxkqRbUp7ZLZJ3uoeQ3XyVIyVZofz4VuO6m/Qc9gafxdZGtcU9chsbddnMWxpVtPPS8KA4vMl+v0DJnyPtmfdWYmS/vzAUV18x8sPFnhCCTOYvHAAw/QNddcQ6+99lqFQ4/PAwLJRADEInnEgiXl9ddfp0suuUS6R+22226xCA9X037vvfdo5syZvu2BWIBY+AmHF7Gw6j1FEdECFHRb86UmFlG+zeceB4GRRKy/UxTvnarzCpHivr+W1tWpqeKdOIV8r5Mkmf8WxKJGpO6nZurVyQyPV8c6oubeAZqyVEmvX8An4tFsI5A4YuFUarI9PPh6IFB6BEAskkksWMHnCueTJk2SwXGFVum+8cYbaa+99qLTTjtNusr4XSAWIBa5EIuqqipxO9eRaqFuoy6UeSrvrBVVL0pJtVN/7SpaJQpIGbWmbPWVAuomGdYRGi9qS+nKsqxNpZ/ay5pX9cICoBaglf89hZbWNJC8zeiboXwrhWWtYrDe/a4fWElTFQuEVmNLqfkkm9fqZ5mXb/Fe0ZZZa0pgV6Om2I+TWPRRXW0Pifz9mkVEvMf4N4hF6ffbSnwjiEUljiq+CQgUgACIRXKJhUEmmAxcdtlleVfp7ujooM9//vOy8F2Qew+LEYgFiEUuxMKwWNiUVF2Z7hXlYY1CsNp9sqot9XfqRW+lMj1FuANNoAlSFw86mVd+Y/chSRjqqd1UyA1lnAmOVkS2Xhao7RX/Z/VDK1rbSwMGofAgFl19+j2CIFj9bhdFbq22LVLQRX1aZ0zF3VaDK4hYMEnpbpHWCyZX3S2MC+PgQSwM0qYPjkZq9H8EWiz6qKW5h7rrB2glNUoXqc7+JjEWmsXC5grldNMqYF/Bo9lBAMQiO2ONLwUCkRAAsUg+seCB/OEPf5hXlW6upt3c3ExHHnmklAcQC/u0qDQiVep0swaxqG+volZhhTAvYXlYRB1SgbUO8FWFWSEKahyCn3LLZKK9ngakNq0/K3nKHLKiDLQYAe5Ld8saquvQFP76diY1ej+Mdow4BA9i0dKt3C8/SO93bx11mH3gcAWDLDHp0C0QNssDd1VT5i0rhvXdfYJMODHTXKTitVhIPif63amPh4EHLBaRtkjcFIIAiAVEBAgAARsCIBbpIBY8aLlW6Z46daqspn3YYYeZYw5iAWKR7xIYFGPhpaSa1gHBLDQ3o16h7DuUcF3plYTBtEQowc1mZ8MsFspXSUuAcNASREe1XLByH2SxMKwGqsXC3m8/i0UOxMKwUnT1WS5bKnmRBCVmYmG4gpEWON4nCRFiLPKdB3jOjgCIBSQCCAABF7G4++67ZfVnvsIUz02bNskq0V7X1q1bafTo0Z6/haWdw3vtsPnhfMMNN8h4i6Aq3Zz67+STT6bbb7+dPv3pT9saBs7RcOa70ijPnDqa00WXKt2sFbxtz2ikxRqQCIFQYxs41sGphKvxDxNFtIYgA1K5dl9hMRZarIcRuyCyKJnxGkochDPGYraWOYmNLeNF7EZtp3AZUuMm5P1Kvz1jLIKJRZVqltDfz7EhhpuY8aUWJzHY2QAAIABJREFUEWPcjDb5V49sUaplJ8QVil2zZCyKHjSuuq85s0rZXKywVwKBCAgwsdixY4fnnhS27yPdbASAcQsQSBsCbLEAsfAPZk4ikbrrrruk0utVpZuzPrFSyRn3jGraqkyCWIBY5LtGoY5FvsjhOSBQuQikh1gIZWctR3NJ8ymfICRxUKKlvDNPWcxP0PxAZeBUT7OV09r0ISWZuUENALOfMNTqpzLcoH4SUytyV3uBZPNL9cfQyoYRhHNQqsAALCL2If8RDu/XSj6xweWJAFyh0uMKZQwgk4PHH3/cVaV73bp11NnZKYvf7bLLLp7jHUYsKi3mIGvfW+oYi2Isq7YsUcYLArJFFaMPaBMIAIFoCKTEFSqawh7tk8t/l5/S7iosFJFYNInMcZq5lnkFZ8eQf9CD2hzfK35vXDqFVqrp7zwgiUYsgrAUY9ZIomKwBwOM2IfijFRAv4rzwtS1CmKRTmLBKWOfe+45WefipptuopdfflkW1OP/5gvEQpuKIBbxLUmwWMSHJVoCApWCQCqIhXnCr1eWZIsFB1NxEZlVWvJr/ZTfmWva26yhKs2mP2gfV5/UUlhovqBcSEa3EpgKPufc1v1DbfeJgjMbN1LtokVEHdozVi5td+XKIGLRXt9J1KqlxpsakVi0i/zd6/q17BiybfPfWo5wLTuFm2DUmNkzjD5a+Jm+pZyOTgS9cZLxjQLnRSJNXSsn/5anRUb7nF7PiYuSt9tvtih+oCYmnHPc6JftHfYMG7bsGcZ9jU3Us0r0re1+au65R/tul/9rpUzd4n0HiEV6iQVLBVfpvu+++4jrCVx11VUU5tOaNUU7a99bCRaL4q12aBkIAIG4EUgFsVBzWRuuUEwsjMAjQylt6bbyPttzQNth8yIWtvRz8nZHxgmZUq5euBro+bVVpV/PkS3zWDMZ4awWroI8VlYLlyuUErwl3bz03NIDU5bq6fSCXaEkGZGERg8oc6TA8xQa3bWM1X8DD0nWdDczEz/Rl6qOOj1zRBV11OmkS34zEwomLiF5u3MgFmoftMe80hF65Tnnbzdyh7vzl1s5xr2DAOOeWGluD8Qi3cRCzhoxvydohQBALByTEcQivtUJFov4sERLQKBSEEg1sTBjLeTJ93esU2rJC5y5oq0h87RYkPOkXFHmlZgAGymQJ+Wq0q8Ti85+ajLzVLv9/YMtFkYGCqEkdzZTT7dGaOyWB6tNLvjDOMg82y36/Zy2Tsmt7S2s9uqgnPlBzdVt9tEgOWZhIM79bbxfJRYBWTByIBYrpypWJ2f2DZXsufKcq9lFgnKMqznUK2Uax/sdIBbpJxaqRMBiYZ8fIBbxrRdMXnm9wAUEgAAQMBBINbEwUrPlb7FgBdQ45TYgUU67DVcoI8+0UUCH4xPMCpkexCKCxcIrAN1GOJjMsEuQHqBms8Aoub3NYHa2LAhXLpkajt2JQoiFlRKQP0Wz9PhZLIxiPtYz8RMLLwuTq9iQ8d2eec49iIVnVVRYLMKWPxALEAtVRhC8baERREqSSuCK6QpVU1NDAwMDYUsKfgcCQCBDCKSEWFiZjtbUdcgTelmwRsQobxSxDbnGWMgAZ+nHP17kqSZqlpU4rYqXWozFBKlwy7ALcdN4GQwtSISe35omivza6+qE+1E9tZsZmyz3qbAYC69c0U43IPl+UatUZncy+8zSacVtWGSET/o7qE5kl5rN1hfddcs3xkKNPRDfsq6OK4F65O8u2GIRkqHJkS9curhxDAdfOqly5yr3ynNuWE8cxYQQY5HzcsbEgnPfz56tZc7iGgicB9/vGhwcpOrqas+fg57lPNd8jRw5Mudn+QG814INOFtYQK7s02nhwoXEgf2lqmOR84KDB4AAEKgoBJhY8J7U2trq+q6w9bmsdSwKz1pUUeOY4I8RxKJxKU1Z6VU5NcHdznDXYLGAxUIVf1gsLDRgsbAvjIixyPBGgU8HAj4IpMRi4e59JGKh+uGbTRiVOCETQAAIeCEAYgFiAWKxn+fiAGIBYoFdAwgAgWAEUkssMLBAAAgUBwEQCxALEAsQiyirCywWUVDCPUAgWwiAWGRrvPG1QCAUARALEAsQCxCL0IVC3ABiEQUl3AMEsoUAiEW2xhtfCwRCEQCxALEAsQCxCF0oQCyiQIR7gEDmEEgcsXj22WfplltuoRUrVmRuMPDBQCAJCIBYgFiAWIBYRFmLCrFYqEUc/d+lFKoN6pBHPKVMvS7TsBMtEgWnRG5FcRntqenJtYbV2k1VreuojTMsajUmtQyR69pkoVj+k5YKvZP6m7gwbUyJSdSiu2amySijwJ1fS2tFTRG9u7aH1NTy9tY8sFVqdkV8c6TbrJhY0U+jyLDzSfnuT1DzupdF0V1nWnilvpV8zp4Z055lU/ttylIlw6R8xBg/LctoT7OW/dM29pqQaFk4ZWZNZ3FiZz/sfdFkhWUjrnpZ/vIaCnyATESKUQ59gf8NIBYFgIdHgUAlIgBiAWKhyjWyQlloIHjbvuLlTSwCCtiGKr9ei65fezrhMFLIRyUWNR3rOA+9rniyctdB66iZeplECKWzcekUWsnp2RuJVnI6+DiuvJX6YPK1WOukTqzUjornnP3Puw/BABiKrDOlvu0pA9cpS3V8VZrk+EaZfr+fOgVhNIoEO4fBV3mW39hPtbJcgEYKXfeGkjz/NPr+eOcjJBGJtavpoDT//L2NtHTKSpM459OzoGcSRyycSk3cH4z2gAAQCNkExEnHHXfcQR0dHfJGLvy1yy67+D60efNmGjt2rOfvQc/u3LlTPjNixIicn+UH8F4LNuBsYQG5sk+nZcuW0d57712yOhZm3SHRDWk1EHq3WRNKnjRzhdMG4nJF/HtLt1VDyr92kVAAg2oSBRCLmr4Wau4Ra5moVzV7QjSLRU1fHdWKOllS8ZRtW//uc51Ic5vd4mtX0Sr9m9zfrL/bqIPlhY1aL0u3WPQZtbTME3r7iTnjZ9Z+4rpPXX16jS75Aq0GVoTLXbNrqmPMRP/7hPWnu0VrUy8QbNQV0/6kn9RzHS1ZJ8zqg6a4d5IobCBQcloULOuD1lUvpditYIeRFT9iYRTjbem2LAtxEgv1G/prhUyIWmgGsXXPDb1Gm166y3Ufy4QktJaFjYmUYaHR5pdHG/XtsmCyZqURtdYMuTOtNhGEooBbmFh8+OGHNHnyZFcrYetzWetYFPDNeBQIAIEABGCxgMVCFQ9YLCw0YLGwLxxeFovGmpn6SbChILZQt9O1xyQC7MUjXHjk4bShPCpFZ/nkuIk5AStH3dQiXZpYuTb+W++PyxVKTytvvEecgttdW4JdoTQy0i1dcgRrUNye3M/JfhvFaQ3iwtxJutKwYq98l9Fv40SciYBxn66si08UrxQuVlHbUNx1VNIT2d1FtVIYfVD7ZfSf+yPHYjYx4elu0UgNFyxWiUV9u1thN+4z7683xlWzAGljbLmUud2JgomFzRVKV56tIsWajGhKuCI7Jt5TY7VYWMSigfo7DcW/XciSOg+MucGFfeXHK6TXS/4NuYvahp2IGGPEhLCmj4sheznNxacWwWIRH5ZoCQhUBAIgFiAWIBaIsYiymHkRi5qqKu20Wl5uf3cj9sFUcFRSwEqhl0Jt+5uHH3ugxUJTpLST6kVEHVpchNPyYCqz4mSe+9ZLTdopu7zfUPYUpc/8RlXp1RVGeTgvTozNi4mOohQaynxLt6XoOd1vOvupIUobJrFgZVKzBJnot1lxBL7jqWKn9EueeNv6byjBIrakQSN2qhuShp9ljVL7oGE5YBEREftiKbhuC4WbFLmJhTFeHEthKs5Kjz2JVRgBtYJq9P4JdzfPeJdgVyOn1UX29TvN1HOqbskx54YUbD2mRP9GT0KpE4XeOuowrEFBbSgWDsF6yT6U0S1ZUdYAr3tALPJFDs8BgQpFAMQCxALEAsQiyvIWbLHwaMGpUJuWBHGyr1onDGUuB4uF50msjXDobkTKiXaToA/a6a39JFu2xX0TSpzw3RL3GAqmn8VCsaa4rA0GDopynLPFIqANH4tFlPGT94RaLKyWWFlv6q8lEvEJbGFgq4Cm1LOirZ28qxYL40mX21LBFgtrvKLHWFh9NPiDST7U/rA06BYZaeHIm1gYlogAy53N7SvIYudlsTDRFdg7yInDdcqLeEWWjzxuBLHIAzQ8AgQqGQEQCxALEAsQiyhrnBexUP3IhQOKdlJvxhbo/vS6H37tojVU16Gfso+fKO4mahHuR6YfueljHh5jYT9h1/3aha+5Sjhk33qa9exO7ngFzXPJOE1nvdlwZ7EUTO8YCxHcvXGjtNS440rEHw1fd5Uw6S5Q7vgGKxORFWMR1Ea97OecWkeMhdIXHsugbEXBMRbGu3W3JZNsCUImg6j5FF7EAozneHfh0qPGWOh9MF2gZJYuLeOWlbUpYoyFEp8SnBVKGwNXoLiHy5VFZjX3LvNk34xPcWaB0l3sPONA1BmjkZgegYwQC88YC21usBXISQo0wibdu0JiLILakN8jM5kpMRZyKCNYsaJM/oB7UkMsNMF3CqDfl+UbSZ8vmkHvC0iv5vM6+8IsZ6Y9CEua8/QUeh5p9uQi5jKjcjPKIq68Wwug0/0iOUDLN9We29RqpXDLFzs8lzQEQCxALEAsQCyirEt5Z4WK0nhS7zGzQhl+6qXWN/IDJt5sRfn1IdJTLnwjPZWwm8JcpRLW3Zi7kxJikesgJWeiRw6gUgbW+QyTqo46i2XyyQPnoBBHOzJoSl7ONHEhQTrO0wubf6lvqj0vM3DMEonmyo4AiAWIBYgFiEWUhSiTxEIAY98/k6NvRBmzZN+Tq66X1K+plO/ID99UEAvzBN8I7HKkMrPMcYaZh/0hnenfvNN6uWHTc1YL+1WtLRWeZS0xzIbjJ0rDrVJERT3RV03A/CwX09HMpdyumSJOKfRi9CUwcMkw5zmC2WIlFr6p9kAs8ptm6XqKicX8+fNp9mxhkhXX0NAQjRo1yvcjBgcHqbq62vP3oGc5RSpffqls8V47pMDZwgNyZWERNo8WLlxIY8aMKVm62XStdugtEAACcSPAxILX6FaRXth5ha1XJUw3a7E/LfWbVtXQUMA5DzanPtMCiPS0Xkb6N/b3k76M9VZau8AiMEoQl+0+d8S+JDz9ncJNySs9nAanRRIc7Rrp1Tz8/oKIBfveaQFn7IZnBAfJF1lp6/jFftkP9FEOtFgEptrLI+tE3FKL9oqKACwWsFioAoZ0sxYaSDdrX3qyarEo6gKMxoFAyhFIhcXCSt3FgS5OxfZ+kW/6HkcJeI/sC8JnyBa74Fs8RnnWSzmX2er0PMAe1RmdBW2sVGj2dnNKtWa+Rw/S8konF6crlG+qPVgsUj7fI3UfxALEAsQCrlBRFgsQiygo4R4gkC0EUkYsjGI1msXCuKzUYIbvI7sdabmqZfEVtlio+aKVwiju4fYmJeZ9XqnZlHRvZrf0GAcjf7MtbZlqpYhgsZAp3thKwdUUjcqXskMBfS0kxiKnVHvZmjBZ+FoQCxALEAsQiyhrHYhFFJRwDxDIFgKpIxZTzfRm2kBZ1RS5VLz8g+WapBILVv6NdGUiNmKiyMMsiYdrvO2BWGYaNr5Pz39tWiU4FVhtpxVjIWvDGAVQrMqfWpYlheyIpizriTvTlV9WKJVAuUgV52E2K30y5+DsTmqBG3uasWBXKLbIeKXa88gKJVOmcTVUXJWCAIgFiAWIBYhFlPUMxCIKSrgHCGQLgZQQiwQNiqfFAmp1gkYIXSkQARALEAsQCxCLKMsIiEUUlHAPEMgWAhkmFvYsUcawRykeYlkxotbVyJZQ4WvTjQCIBYgFiAWIRZRVDMQiCkq4BwhkC4EME4tsDTS+FghERYCJxd13303XXXedfCQoEw7/vmnTJho3bpxn81u3bqXRo0d7/haWdg7vtcMGnC08IFcWFmHziFNHc7ro6dOnR10CIt8HYhEZKtwIBDKDABOLHTt20LRp01zfHLZelTDdbGbGAx8KBMqOAIhFsMUCCj4UfK9JGrZhlosog1iUfUlFB4BAphAAscjUcONjgUA4AnCFgiuUKiWoY2GhgToW9vUDFovw9RR3AIGsIQBXqKyNOL4XCIQgAGIBYgFigRiLKAsliEUUlHAPEMgWAiAW2RpvfC0QCEUAxALEAsQCxCJ0oRA3gFhEQQn3AIFsIQBika3xxtcCgVAEQCxALEAsQCxCFwoQiygQ4R4gkDkEQCwyN+T4YCAQjACIBYgFiAWIRZR1EhaLKCjhHiCQLQRALLI13vhaIBCKAIgFiAWIBYhF6EIBi0UUiHAPEMgcAokjFpkbAXwwEEgYAkwsOEXl7NmzZc+GhoZkHny/a3BwkKqrqz1/DnqW81zzNXLkyJyf5QfwXgs24GxhAbmyT6eFCxfSmDFjUMciYessugMEKhUBJha8J7W2tro+MWx9rhIFd4Y/+clPhmIzPDxMVVVVvvfxi/yUi7Bng14e9izea6EXhtX7779P++yzjyfcYc8C5+g4J0Ge//a3v9GBBx5Il19+uexOWP59pCO1Ri2N6UgxvvZZV2ny/Mgjj8iCl5/5zGc8l5dC1uctW7bQ7rvvjn1BIIB90C4GhchVEvZBZx8wvtHH97e//S2dffbZdOyxx7qGMqzejyyQx0+FMRCceNqxTdtJKwvCD37wA7rzzjs95zvGN93j6zV/DzroIBo7diyIhYfEV5riCWJR2cSCx3f9+vW+ulra9iPoG/ahLNb+u337drr++uupra2NRowY4ZKfYr0X41ua8S02zocffrjnmhNKLASDk8Qi7EZsXOneuLZt20bHHXccPfPMM56CgvFN9/hi/trHD/IMed5vv8qJsYA8Q57zkee77rqLZsyYQbfccounGx3kCnKVj1yF6RtVIBa7ZELR3rp1KzU2NtLTTz+die8NE3wsqFhQi7GgQq4gV5ArTQbgUmjNhXLtR2y1HhgYIP7ft99+27X3Y73CelWM9QrEYpdsEAteQE444QR66qmnQCxCNj0GCK4ylphAQSi/glAuxQTvhSWMg8b9LqyTyV0nFyxYQOeeey5xDA2P4W233eayWoBYgFiAWHisbljYoi1svLicdNJJ9OSTT4JYgFi4ZADzKNo8gqINRRuKtiUDWDeSu2589rOfpT/84Q/EyXk+/PBD+vSnP+2yWoBYgFiAWIBY5H2SvnnzZmpubqbHH38cxALEAsTiT3+iYiyo2KixUUOuNBmApbN8ls7ly5fTBRdcQLNmzaIHHniAJk+eTFdffTXdfPPNdPLJJ5sdw3qF9aoY61XVe++9J4O3d+7cKRH2yhzAf+eTul183Ib4d1ZcjQw0Tq3F/uxyaj1iHc165RKqU9+74jv0f84huvW9RTRJNqDdd9GLs+iwWN5r71XpvjcZ72WLxfe//31asmSJJ7GIb3yT8b2VML79Vx1B19a+Qou0CaHPwfV01RHfoJWNT9Mrl/AMIuL7rjnkZbpX3Ff8+YvxLc06CZyBs10xLXj/Xd4q9lgtxu4bt74n1xVzncT+q6yx3u7Ruek55Z2/H3/8MY0ePVqWCOADxd7eXpn5k2Mt99hjD7Nz2Pft4xRdj81zfD3moClXT/wgZx04qXpOaWMs1s6kmoY5tHF8G60ZmE0TdGWJgd2l+ySqal1F49vW0MBs/mUxNdb00WVvXE5fho+nKcX5mp65rsGUKVNo1apVnsQCJxd2WPLFOS5XmcWNVSSmA01cNEwrp2p908ZoA82saaA5GyfSouGVxD+tnVlDF//renrodDGPMhIzFBfOXpMBJ612hVauz5ArZQ6mMeaA140mot4Bmk1iH5b/OZvqxIEh9l9L3itxH/zGN75Bzz33HPZ9cw8t1/z1noOs7Up94+kzc9aBk7oPlpRYrF28mFgTaheEoUsnFvdMHE9vXLmB5r55EtX0tVBzT4e2+E0AsfBaCfJVeJlYnH766bRy5UosMGVfYMIWtqdp8eKpVN9XQ+31AxqxEKR8/KxDaONjXxQKQjvVdxK1drfQsPgRxMIt0pWoIEDBr2wFsLjju1we1Gn77lptDRlYSTuw/9oWj0pcN0AskrJueM9BMTHplRkvCW+dM3PWgUEsTKuDRhgMYmECIywWNX1dNDBlKdW015NY82Cx8KAA+RKLv/71rzRt2jTiCq65ntLy/fm+N6mCn4YNhAmDSSxsFgtNKeAFqa9rgKYshcXCKdNpGN9c+ox5ZEcL42vHI3x99lZqWhSLBfbf4LiQtO6DIBbJJhZ8bmhYLHKdg0ndF0pqsdCGN4RYCDcodgPpbllE1AFXKKfyEb6BeJ+Gf/DBB3TGGWfQQw89BGKReIuFVtgrjFhMZddC4dLQ2dxDy+AKVfEnj8U90fZeN5K6cYFYFIlYYP+VqVn9rnz333LOIxCLlBGLHOZgOeUqaD9KJLGQ5KOqlVaJWIxXEWNhW+PyXdj+8pe/0JlnnkkPPvggiEWlEAudfDTM2UjHL9yOGAtFsqF45qp4glgwYkndqAuX5/AYC3laasQ3Yv/13Cfz3X/LKVcgFkkhFuExFrnOwXLKVaKJhT3GwljYtNPahp5mEAvH8pbvwvb+++/TWWedJbNDeF2Fb1xQTOJWTGwWC2eMhXCF0mK6NRI+DGIBi0WFnbTCQhOzQrS4UQaHEo2ntjUcx0iE/de+G1biPghiEfM88lCgIiv4HnNwsS3GIjcdOPJ7fUxw+eqTYe+tEmlIZbrZsBuHhoZo1KhRvibCwcFBqq6u9vw96Fm81w5ZsXDetGkTnX/++bRs2bKcx4gfwPhasEGeLSwwf0szf4EzcMb+a8kA9qPo+9HEiRPpiSeewL4vECiWfoX12S5eZXCFsncgbEAq8QShHCdxzEzPOecc6unp8VxggLMdlmIxeeAMnItRkAhyBbmCXGkygHTR9oMfWCwSZLEoseWgXPsCiEVG8rOLQoh03nnnySqcXle5BBDvhUIEhQgKkXNNwoGTHRGsk1gn810nQSxALHz4TNGyfYJYZIRY/OEPf6ALL7yQ7rvvPhCLkFMtBggWi2iLMRRAKICVlkWnHBZlzCPMo2LNIxCLaHsZ9v3oczBsvQKxyAix+P3vf08/+clPqLu7G8QCxMIlAyBS0TafsAUVJ8s4Wc73ZBmEJtochAKYmwIIYgG5gsXCgQA26ng26nfffZdmzZpFS5cuBbEAsQCxEDFHUAA1MYBPujUdQByjK61Q8KNjVU65ArEAsQCxALEoSoGed955hy6++GJasmQJiAWIBYgFiIUpAyAWIBa7ZMRyX04Fv1wWKRALEIuSE4vt27dHSjcbZjngdKbjxo3z7P/WrVtp9OjRnr8VOtHxXgvWIJyZWFx66aV077335kUsgHM0nCHP0U/x+E7IFeTKa0HCPMI8Coo5wLoRfd341re+Rc888wz2/QgHipCr6HIVRJSrQCx2ycSE+93vfkeXX345LVy4MBPfC8UEigkUE0sGsGHGs2HigM2+rkCuki9XIBbRLRaQ53jkGcHbGTEBDwwM0BVXXEH33HNPXsQCwb3RFqdCCQ1wBs7FOMGHXEGuIFfhhYDDiGMa5xFcoaLNfb4rjeMbZDkolzyDWGSIWFx55ZV5Wyww4aItTiAWuVlKIFeQKyi82VR4k6gQlUsRK+Z7QSyirbEgFtH37jA9B8QiI8Ti7bffpquvvpruvvtuWCwi+FpC4Y22GIctMMXcMKGYRBsjbJjxbZiQZzuWWCejzcFyrpMgFtHGCOtkfOskiEVGiMWGDRto9uzZNH/+fBALEAuXDEBBiLb5lFNBAJGKNkZQEOJTEECk0k+kQCywbngqfeKPxdr3QSwyQizWr19Pc+bMAbHQZxg2zPRvmFC0sWGWesPEuoF1I231b0AssE6Wep0EscgIsVi3bh3dcMMNdOedd8JiAYsFLBaoY2HKAOpYWNMBFqno1g5YhqJjVU65ArEAsSg5sdiyZYusY7Fjxw757pEjR3r2YWhoiEaNGuXXPxocHKTq6uqcn8V77ZAVC+e33nqLbr31Vvn/Xlex3ovxLc34AmfgjPXZkgHsRxYWQWs71o3KXzeOP/54euKJJ7DvCwSg59jFoFjrJCwWGbFYvPHGG5JU3HHHHbBYwGIBiwUsFrBYeKyE5TxZ5u6gArY2KHA5swtnIb7wsFhYWEKu4pOroPUKxCIjxKKvr49uu+02uv3220EssHGBWIBYgFiAWBCIlF0IKlHxBLEAsfBU+sQfCyGsIBbYQGjt2rX0i1/8gn72s5+BWIBYgFiAWIBYYF8AsXDIAIhFaU60KxFnWBwt2YHFIiMWCyYWHLjtF2OBiY4FNW3ZTrCQ4ySu1CdxWCexTqZtnYTFAutkqddJEIuMEIvXX3+dFixYQLfccgssFrBYwGIBiwUsFrBYwGIBiwWNGTPGT+8smqsMCHplE3QQi4wQi9dee43uueceuummm0AsQCxALEAsQCxALEAsQCxALBQZKFbMQdaIFIhFRojFr3/9a1q8eDHdeOONIBYgFiAWIBYgFiAWIBYgFiAWIBY564RhSR+q3nvvPVnHYufOnbLxESNGeL6EG/JLhccPbN68mcaOHZvzs3ivHbJi4cwxFr29vdTZ2ZnzGGF8o48R5Dk6VpCr6FhBrqJjBbmKjhXkKjpWaZWr5uZmufd7XcXSNyBXlS9XQXwBFouMWCxeffVVuv/+++n666/PmZ3yAzARWrChUrGFRdjJRdZMwPhe+/KCdQPrhp9Cy39H3Q4NnWKuGwjejjYHoefYZ2oheg6IRYaIxQMPPEDXXXcdiEWRF3JsmFjIPScZCLoNlkI2rmIqYpi/mL+VNH9BLCDPpZZnEIuMEItf/vKX0hw6d+5cEAsQC5cM4GQ52uYDC030Uy2cAEbHCnIVHSvIVXSsWK5ALKKt7ZCr3OQq6AAGxCIjxOLll1+mhx56iGbPng1iAWIBYoGpdeUkAAAgAElEQVTgbVMGYDmwpgMU/OjKBRSx6FiVU65ALEAsYLFwIACTtx2QfE+WX3zxRVq5ciVde+21IBYgFiAWIBYgFh4rYTkVwKATQOyD8eyDWRxfEAsQCxALEIuipH974YUX6LHHHqOrr74axALEAsQCxALEAsQC6WYzoG+AWIBYlJxYbNmyRaabDWPyQ0NDNGrUKL/+0eDgIFVXV3v+HvQs3muHrFg4s8Xiqaee8k03W6z3YnxLM77AGThjfbZkAPuRhQX2XwuLLK6TEydOpCeeeCJn3YwfwDzCPPISnLB5hBiLjMRYPPfcc/T000/TVVddBYsFLBawWMBiAYsFLBahB4pwwUq/CxYsFrBYlNxiMSyuKBYLLDDpXmBWr15Nzz77LF155ZUgFiAWIBYgFiAWIBYgFg4ZqEQ9B8QCxALEIgMTnT+x1IWBnnnmGXr++ed9XaEqcUEtB85hJkLgnG6CjvG1jx/kGfK833775XxYhXlUunkEYgFiAWIBYlGU4G12g+I4i8svvzznTYAfyDcbFTaQ0m0gIFLYQEq9gYBYgFiAWGgykNS0zSAW2BdKvS8gxiIjMRZPPvkkvfLKK3TZZZeBWIRsAiBS0ckQiGN0rCBX0bGCXEXHCnIVHassyhWIBYgFiAUsFkWxWDCxePXVV+nSSy8FsQCxcMkALFLRNp8sKiawhEWTDSj4UPDHjBnjub+Wc90AscD8LTmx2L59eyzB25s2baJx48Z59n/r1q00evTookw4vNeCNQhnTjf3X//1X3TxxRfnRSyAczScC91AgDNw9pqgkKvoSivfiXmEeYR5pJUR+Na3vkUcY+l1hbkyYh5hHuUzj6pALHbJxIR7/PHHZS7refPmZeJ7oYhBEfM7PYTiaZcNHPxYeGDdwLpRaevG17/+dekGDWIRHAeDfSG+fQExFhmJsVixYgW99NJLxMVyjjrqKNcaE3ZyAVeZaObUQhUT4Ayc8zkhwvy1o4Z5hHmEeUSydhXv/c3Nzdj3hUBgnSzNOglikQFi0dvbS2+88YYM3L7iiiuorq6OJk2aZJMwTLjSTDjgDJyRRUeTgaRm0eG+lTodOA4kcrOUgDiGE0fs+25qif23NPsviEWFE4u77rqL2NXhnHPOMSXqlltukQHiZ555pvk3TLjSTDjgDJxBLEAsnCoPiAWIRZALVq5Eav78+ZK4Y9+HXMUpVwaaYesViEUFE4u5c+fS/vvvT6effrqLui9evJj++Mc/UltbW+jpId+Q68IWVQChaEPRhqINRRuK9j8kBLCUhM8F7EfByjL2fcwjQ0LKpV+BWFQosfjpT39KRx55JB133HFue6D+l0cffZReeOEFuuaaa+B76EAJRCrc1M53hJ1clGthw3tBWEFYw5V0zN/KOtHGvg+Crkp0ufZBEIsKJBZnn302TZ8+nY444ghfUmH88Mtf/pIWLlxIN954Y1HqZ2DjqqyNCyfL2LiSsHGVa8PEe0FYk0pYse/joMu5P5drvarasmWLrGOxY8cO2aeRI0d6KqNDQ0M0atQoX0V1cHCQqqurc34W77VDVijOHDdx9dVX08EHHxxKKowb3nrrLWpvbyd2j/K7ML4WMkFjBHmOV5791hzgDJyxH1kygPU52+vz97//fbrqqqvokEMOwb4PPdaUgUL1yXz3X1gsKsRi8dFHH1FTUxMtW7aM9tlnn8iLi3EjF8KZMmWKTE235557up6Ha5AFCbLZWFjAIgWLVDmCA8t1Eof3wmKRJIvF//7v/9LJJ59MS5cu9S1QHKQMYN+HPBdDnkEsKoBYvPPOO3TeeefR8uXLfYP/ojANVhJ5kbr11lvpM5/5jO0REAsQCy8ZArEAsQCxsGQA6yTWyVKtk++++67M+sRpZf2C/rHvY30ux/oMYpFyYrFmzRoZH8FxEnFd06ZNoxkzZtDnP/95s0lsmNgwS7VhGu+BZQiWIWRJ0mQAlhKcLKsny2vXrqUbbriB7rnnnri2fcK+j+yXqjAVsv+CWKSYWDz77LP0yCOP0Lx582JbXIyGLrjgAjrxxBPNap0gFiAWIBYIDnTKABReKLzFcKWAXPnL1erVq+nhhx/Gvu+xIcGCngwLDYhFSokFuz29+eabdOmll8ZOKowG1SrdIBYgFiAWIBYgFn9H9jxFCLAvlHZfUKtpF2vjx76/nye0hZzgZ40og1ikkFisXLnSVU27WIuMUaW7sbGRcDIV7paAE5NknJhkbSHH98JygPW5stfnVatWuappY9+3I4D9Nxn7L4hFyohFR0eHTCXrVU27WIsMp6F9++23qbOzE0w+xN8ZC1syFjYo2lC0oWhXtqKdpfHlvfeggw7Cvo/917awJ1XfqHrvvfdkHYudO3fKDo8YMcJTeeQPCMo8sHnzZho7dmzOz+K9bsbth/O1115LxxxzDE2cOLFYHMK3XbaSPPPMMzRz5kzXPUGygfGNPr58J+aRhRfkysIC8wjzCPuvJQNZWid53//mN79Jxx9/PPZ9gQD2heTvC7BYpMRiwVU1zzjjDDr88MNLvrgYLzSqdP/85z+39QG+h3ZlmP+FbDbhp6V8B3y0LdnBPMI8wrqBdUPdXM866yz67ne/i31fAQXrZPLXSRCLFBCLyZMn05VXXplTNe1isY/169fTZZddRvfdd5/5Ckz05E90uAbZZwQIDQiN1xqZVNcCzN/szd9TTjmFurq6ErHvv/XWW3Lfv//++7HveywcWDfsoIBYJJhYcFVNrqa9ZMmSvKpqFotcOKt1gliAWOCkFSetXusNCBwIHAhcbtnkPvroI7nvd3d306c+9alibeM5t4t93z8jHIgFiIVEIOmCEFdVzZxXj4gPqFW6x40b55uCMek4+30uFCIoRFCIkr9OYv5qCGC9qoz16ne/+x1xDSlOK+sX7xpxiy7Kbdj3x3jiCj0HxCLxxGLDhg2xV9UsyiojGuVqnT/84Q/piCOOwIRLAWGFIgZFzCkDsDhaiEBBsEsHXLDseBSTwLG70c0330x33313sbbr2NrFvm+HEusGiEWiicXjjz9OTzzxRFGqasa2qjgaOv/88+mkk04yq3SrP2PCYaMeM8b7lAcnrdFlA/MoOlaQq+hYQa6iY1VMueJ9/8knn5QHimm5sO/jQMLPBbpqy5YtMt1s2AIzNDREo0aN8pX5wcFBqq6u9vw96Fm814LsoYceIj61uPzyy9Oytpj95DzbXF+DCUYuxAJyZR9qzCMLD6wb0TcuzCPMI+y/mgykbd148MEHZZ0oDo5O24V9Xxsx6LF2yUXwdkKCt+fPn1+yqprFWryMKt1nnnmm+YqwCQdTu300imlqh+XAwho4W1jAFSo6gcN6hfUqzsJ8d955J23bto1+9KMfFWtbLnq72PfDiUXW1g0QiwQQi7lz59L+++9f0qqaxVptuEr3H//4R2pra4vE5AubcAvolEPXU9fAbJrg+CAQGjsgheGMbBgGmpAryBUIOgi61/6ZK0GfM2cO/dM//RNNmTIlZDteSzNrGmjORuu28W1rSGx74u/tVD+wkqbqP62dWUPt9QO0khqpqnWVrd2Ji4bdfx/fRmvk/ul+B5m/hWsLpd33sR8lfT8CsSgzsfjpT39KRx55JB133HHhszcldzz66KP0wgsv0DXXXBNqIsxb4V07k8Y3zKHf+ix+UAChAEIBhAIYhwKotpH3eiUayVXxxHsrNzYrt32flX6VQBj/7qK+AGJR09clyIfjyG1xI6l/ZyLS0N9JwyvrXSQlV3WjJPs+5pFtWJKq54BYlJFYcDXt6dOn+2ZUynViJ+l+o0r3z372M9mtuOscrBWWkaFJ2+gKWCxKYBnCCVHST4ig8NpXP7i6WXiA0FhYJEER433/jDPOyKGadvGIBUlLBZMWN0nJR58o5r4vSVBPM736xuX0ZU4IIg4Xa9rraWClYa+BS5JzzMq1L4BYlIlYnH766XTFFVfQIYccks/8TcUzHIh+6aWX0rJly2InFgzA3/8OVygovLt4zoVyLah4LxT8OH3wDTQhV5UhV+z2dNVVV+VYTTsOV6iJtGhYuEw5LBZ2YuHlbuV0Mg5XPYq170tiIfzBjp2/hR77LogFj0QSiLKXRIBYlJhY/PWvf6VTTjmFli5dmqhq2uHLRX53cLXO0047jTjzxZ577ulqpLANE8QCxALEQiPZ/lYl/h0n+DjB91rBk6qYVJo8f/DBB3TqqafmWU3babGwRnJxYw31dQ2Q4fFk/rvP7vJkPuEiFoupsaZPxClOoaUOt6r8dnztqWLs+1r8SCftaF1Cpw8/RlNhsUgusdi+fXukdLNhE50FiSswe11bt26l0aNHe/5W6MKWpvdyNW3O/bxixQrfE/xCJnNSn+Ux5jS0N910E33mM5+xdbMwuVpIkw9bT1duuIYOc3x8luQqjpOLNM0jfK97phc2j7A+x0XQMY8s2cS+r2HB+z5X0+Z9f+TIkXls0/7EgpXtJurVYykESajqphZPy4T+WiexEP+u6m6JJcbC+WFx7/u/+enBdOmhG+i+7Y102PqracNpy+jgSw+lDQ+dbr4a+759FMq1L1SBWOR34pnrBvKb3/yGbrzxRrr33nvzWFgq45HW1lZJrBoaGswPKkzwQSygEJVm/gJn4MwyUNh6BQKXtXm0du1a4nSsCxcuLGAT9ycWREwmWsnI/yQzP3HIARMGR1YomUmqvt3+96CsUKS7TxXQc340rn3fJBaT/pM6DxNkomMSLb8fxIIxzjeGNVc9Nur8hStUCVyhVq9eTQ8//HCqqmkXuJb4Ps4nNyeeeKJZpTtso4YLhwUlgjAtLAo9mYJcQa68FinIVW4nnphH/vMI+76FTRz7vpFK94FJwu1zw+VUI7JCbpy4SFhbELydL7Eo1vwFsSgysejt7aU33ngjlVU1i0UuOGi9rq6OJk2aFHoCWCzBB6Gxjy5whqINRTu5wZBYr9K1Xi1fvpz6+/ux7yvDVui+byMWIivU4sYqaiUQi0IsFsXa90EsikgsKqGadrHIhVGtk7Njod6AhXKxJjoUk3QpJs55h5N0nKRjnUzHOnnXXXcRx5ecc845xdo+U9su9n3voau0fR/EokjE4tZbb62YatrFWsW4WicHtl188cW+r6i0CQcFHwo+0pFqMgDXPrj2Jc2Fo9D1Gft+uLaAfd+NUaXpOSAWRSAWbW1tMoYg/mraRmq42WRkl7anm9PyXfc0iyAtpeKmkf9ZirMZrGUP+pK/SX9FsgWDaY/Y2wtfOqLfoVbr9Hqq0iZcoRuX36klTrRxoo0T7XScaHutc5i/6Z+/xdv3o++nabkT+35lH7CBWMRMLIpbTTuEWMi8zv1Uu65O5KXWyQdnh+ioozX6v630dH16/mqLpGii7nxHUEaKeJYxo1rnz3/+c1eDIBYWJDjhxQlvpZ3wgihrMg1ikW5iUdx9P559NmmtYN+v3IOQqi1btsg6Fjt27JBf6ZdneWhoiEaNGuUrm4ODg1RdXe35e9CzlfTeadOmyaqaxaumHUwsOJipu2WYWrqtojnOAjo8QJwCb8KE5BAL7hNX67zkkkto0aJFNhmCXFlwZGUeGV+M77XGvpLWSYyve5vE+NoxSZO+welUu7q6irjvJ40SxNcf7PsalpWm58BiEZPFgjMc3X777UWupu3hvkTjqW0NV960F8fRit5MFZkT7JU5rSXB3ZaWA9v992K6QqlLFOdU5pMfzqRlXLBYWAjBYmFhgRNe++YOFzs7Hlg3sG54qb9xrxu8799xxx20zz77xKdtZ6wl7PtElbZegVjERCyeeuopWrNmDV100UVFXBYCLBZ9zoI4WnEb4e9EfV1MPIxurSURM01Tp0axWChkpYhfZTQ9d+5cYUmZQN/85jdBLDzwBrEAsYArlCYDIFIgUklIglCafb8Em28ZX4F9H8TCV/wqjXHls3FxQNKLL75IV199dZGmqR+xECf8TU1EvRaBMHI+ryR3jEVDT7OIuain9po+KxbD7LHjHRyjoVs/ivRRstmf/vSndOSRR7oC3iFXOHksxcmj+g4QOBA4EDgQOK91x2s/Kv6+X8ydt7xtY9/X8K80PQcWi5gsFsb05ICke+65R5pH4798iMV3mqlnFvMKJRCbA7kl15hNIlUUNczZqHUnKCuU/M1NOIzYDaXAZayfFhT45jfh2MXr9cveoOtHiQqc7fU04Ohc3CZvKJ5jPMccONthyedAwmgBhAaEBoQmnYSmuPt+rNttYhrLZ9/nzmOdTP46CWIRM7HgIefg6GuuuYa6u7sTM4mT2pFTTjklMOC90pg8FE+7JGJ8LTywYSZ/w8T8xfz1c8HCvh9dy8C+X9nzCMSiCMSCN5+PPvqIOEsUByLvscce0WdcRu783//9X+G91UQLFiygAw44wPeroXhC8fQSDlhKYClB3Q5LBrBOJmOdxL4frMAUuu/DU8GOb1L3QRCLIhEL3vS2b98ulefbbrstUHnOCJcwP/Odd96hc889V5IuxggKAhQErzmAE3yc4MM1KJ2uQVl2WcG+763RYN/3didmtCrtYKDqvffek3Usdu7cKaVhxIgRnlLBzMhvkecHNm/eTGPHjs352Sy894ILLqCLL76YDjvssKxxCNf3cuasOXPm0A033CB/g1zZIcI8sivTfmtOFtYNVTLwve6TOuxHFiZYN5K3bmDft8YE+3629GdYLIposVC3whkzZtAJJ5xARx11VGbJxerVq+nhhx+mefPmmRjk47PMGa84s9Wrb1xOXxaWIZIVx+0B3Ek1EebzvQZYOMHHCT5O8HGC77WBVNqJZ6Wsk/Hs+8GFccUGKPKzNFBP8xoasPLKi20xYtKWiYtEzSuRmb6qlVYpwhVX/aq49n3sg+6Zn1Q9B8SiRMSCReKKK66gQw89VLpHZe1it6c33niDLrvsMtun57OBGAvmsfO30GPfBbEwLD/8v1A8oXhC8aw814J81kkoYslQxArf90OIhTxY66fadXVW+nhOE99RJ7I8apkiec9sol5BPKLUr2LcmKy0U/3ASppagLIS574PeU6GPEfRN0AsSkgseEBuvvlmGcz9ve99r4Dpmq5H58+fL1PEnXPOOa6O57NhajU6OmlH6xI6ffgxmgqLhXQpA7GwxCsfucLGlZ6NC+NrHytYLKLN/XKtk7zv77777nTmmWfmsXkHEwsjHXxLt1UMl4Oc7YVxtWyVEyaUjljEve9b6/MCOuXQ9R41uDTXauyD0eYC31WsdQPEosTEggV/2bJlckCLW6U7j/WrCI9wVU1Oz9fa2urZej4KglH874Ftx9Gh66+lgSlL4QqFBdUmX/nIFYgFiAUUE7sMYB7FR+Dy3/cFsXC4KYmCVNS2hgvi8m/d1CJ8maYqxWy9iIX2Je62Ji4appVT3X8vxBWqGPu+7L44RBzfMId+a9bjso8P5m8y5i+IRRmIBQ/9U089Rc8//7ysd1GpF1fV/NrXvkbHHntsrC46JrGY9Cu6/NDTiDpFgcBuxFjgpKb8JzVQxOJTxCDPkGe/vbFYJ63Fnr/57fsBFos+4fLUqkZGTKRFMmDCabFYS4sXE02dGsVioZCVPJSTYu37kleIjxiatI2ugMVCjkxSiRSIRZmIBfvCv/LKK7Rw4cIiVenOY0WI8RGjquaXvvQl2Wqcvv8Wsfg7jdkgKm+LE4yNMgDN8gZN6oQr9sYVJ86GOCBo3JoYkKtknIhhHoHA+RWqS/p6lfu+70csekkEbBL1suVCkwdjb1xJ7hgLTniyZqCe2mv6PNyIHO9QrB+5qAXF3Pet/QiuUAYWSd2PqrZs2SLTzYZ1cGhoiEaNGuUrY4ODg1RdXe35e9CzWX/vhg0bqKuri+6///5c5m+i7z311FOpvb2dDj744KLIVd8lddRR10/LmjSZXNa0O32P5tOWXmG90K+sy5VTQDB/7YhgvbLwwPocnThiHmEexaHnvP3223TllVfSAw88EGEv9yEW3xGW+lnMK7QAbZ1ZUI3kGrNJRF9Tw5yN2t9N1yEPtyr5m5twGLEbynldYF+Lve8bLx8aWkSnfWE9dfZfRfWOHmHftwNSrvUKFosyWiwMEdi0aROdfvrpsmDcnnvuGWGhSeYtRlXNJUuW0Lhx42QnwyY6Th7tY5lWEz8sJdo4Qp4hz2k9SffaVSDPxZPn999/n6ZMmULLly+nvfbaK5mbeoRelX7fh8XCGJak6lcgFgkgFoYCzmlob731VjrwwAMjTOdk3fLuu+/KrE9MjlQlM6mCjw2zeBum2jJwBs5QtMNJJ9ZJ+zzJyrrB4z5p0iSZLfIzn/lMsjb1CL0pz74PYgFiEXKKhwXVPns5e9KPf/xjamhoiDCtk3ELp7HjStr33HOPq0MY32xumMZXZ0VBwPd6r0WwwFm4JN33HxaL8lkcp02bRhdeeCH2fV0IsW6ke92AxSIhFgtVMbn44otTU6Wbq2quWLFCnrh4XSAWIBZjuDq6z4UNJN0bCIgjLFKwSMVjkeJ9/9vf/jYdffTRyTgxDOgF9n07ONBz7Hj8/+19C3xV1ZX+CqiBiqM2w8NXa5OOiDESa2dqVUy1nVolVolRIyTCoBWnahXFxDZKiJrKw4JVa2trfSXSiDGIBhoppY7WCp2qxJgC/hsQXyiaqbaUITKQ/177vPY599z3Oec+znfn1zHce85+fHvtvde312ODWGQhsWBFLP3bOv1fm4xbNfk+jmjKIyYciAWIhSUDIFIgUjiAQeydUwYMgs4B3ccdd5x0j8rWD/b9yJGBngNiIRHIBUHgeAtWyrLxlm71Vk2Y+K1JlQty5bZhQeGFwguFNzf2Bcxf/24MzgYLHO/7I0aMSPGWbn/pCPZ9d+s79n0HsdizZ09C6WbjTTjObGRkAnKK9u7du+VE8WPjyvd6U7+t078FxrhV85JLtPSuGF/viEW+y7NTKtFfCxHMI8yjVLOrYR7l1zzifX/79u1UX1/v30aeZMnY96HHGiITj0gVgFjs5zq9solIdXd30wsvvEALFojc1Bn+qLdqGk2BQgSFCAqRJgPZtG6oSwUUz/xSPEHQ8/8gk/f9F198ke64444M7/pE2PdxgKoKYVxiMSQ+/EK8B+NtmHClsGD3wzVo/fr1xGbIn//85xlbZIxbNU8++WRbG/zor1EB5MpfuQLOkdMJ8uwdUcb8xfx127Cgb9hRibbm8L7/4IMP0v333499X0cA63P2r88I3s7S4G23VYRv6W5oaJBZmIL+VFdXyxvCx48fH1E1Jnr2T3QcDNjFFgovFF4ovDhQdMpANq6TvO9zxqiOjo6gt33Cvo91MpV1EsQih4gFD/Cf//xnuuaaa+RFdAcffLDvC41xq+aSJUvo+OOPd60PxALEIlVXKCj42LhS2biyUQHkfkCeIc9+yHNvb6+854L3/YMOOgj7fpQU5rCEJWYJM57ya70CscgxYsGCwEHyfEv3XXfdRUcffbRvi4x6q+ZHH31EyFeuQQ0iBSIFIhV/LkDRTnyTh0KUOFZhlat//ud/lvs+Z4363Oc+h33fBQHMo+yYRyAWOUgsDAV/xowZdO2119KJJ57o+SLjvE3bL2aLk0f70AFnnHj6ceIJuYJcQa7yw/Vr+vTpNHv2bF9u6ca+/z4OUPWFIp0DVBCLHCYWPP68wHh9Wyffqvn0008Tuz/5bTIDsQCxgCUs/uk/TuKy4yQO6xXWq2xYr3jf//a3v01nnHGGZ4eK2PfhyqgKU1rEYteuXTIr1N69e2WZw4cPdxXUwcFBKiwsjCrEAwMDVFRUlPS7qNcOWSo4z58/X8Y/XHjhhWkvMk8++STxqQWnl1M/GF8LjVhjBHlOX56NEoCzhSXkCnKF/deSAexHJNPQTpw40ZNburHva7IFufJGz4HFIsctFoYYsN/lAQccQFdccUXK5EK9VdNZCFwpLETSYfI48cSJZzaceHp1MgV5hjxDnjUZyMS+cM8998jLh7/zne9g3xcIwLJrF4NMrc8gFnlCLFicHn74Yfrggw9kStpkPwsXLqQjjjiCpk2b5voqiAWIhZtgYCHPjoU8UxsI6gWxALHIHLHgmh966CH68MMPU7qlG/s+5q8f8xfEIo+IBW/yzz33HD3//PNJ3dbJbk986d15550XlY+AWIBYgFjgRMwpAyAWUEz8UEwgV8nJFcdHvPDCC9j3/+//JHDI2hef7PITful1IBZ5RixGivzO69atk6cYidzWadymzb6a/G60j18CiA0kuQ0k2hjBcgDLAeavJQNYr3AQEraDkJdeekl6LWDfB7EwZD9T+hWIRR4SCxaqzZs30y233ELLli2LShYuvvhiuvXWW+Vt2pkSQNQLYoETz/inSyCOII4gjiCObpu5uodu2rSJmpqa6PHHH8e+74IA9I1g9A0QizwlFiw+7Hd5ySWX0PLly223dRq3aT/22GPysj3+YMIFM+GAM3AGkQKRcuo8II4gjl4RR46z5FhJ7PuRzAL7bzD7L4hFHhMLFiHesNTbOtXbtFU/REy4YCYccAbOIBYgFiAW8IVXZcDrfYH3/SlTptBPfvITeUs39v34aw4/ARdKSyrTyXJWsH37dnmPxb59+2SJw4YNczWhsaBGC4jhF3bu3EmjRo1K+l3Ua4fML5z5Qh0O0ubc1+rFd0btftWL8Q1mfIEzcMb6bMkA9iMLi1hrO9aN/F43eN+fM2cO3Xnnndj39YNWrJP+r5OwWOS5xUIlDjNnzqRHH33Ulfx5fWKi1st/I0sDTkzcBA8nRN6cEGH+2qULcgW5cltvwuhyxpfn9vX1uV5+jHUD64YfFnQQixARi7POOot+85vfuFqlsMBggfFjgYFcQa4gV/EPFcKo8OLAKTHyx0+lQ5QnT55MTz/9NLnd3I71GeuzH+sziEWIiMU555xDXV1d8oZu5wcLDBYYPxYYyBXkCnIFYuHcb0Ck7Ij4uU7y/VScHYmZ6GAAACAASURBVPLAAw/Evi/u+vIqSF4FE/JsFy0QixARi3PPPZc6OztdJ5afCxtOpoI5mQLOwNnN/SPdE0/IFeQKcqUhkI7lIFPziJO3tLW10T/90z+BWIBY2GTAL3kGsQgRseAsEUuXLrWlnjWkDMQCJ8s4WcbJMk6Wka1IlQHsC7m/L1x00UX0y1/+kg499FAQCxALEAtGAAubdwtbdXW1vJnzkEMOwQKDBSaQBQbz17v5m6kTT9QLiwUsFrlrseC7rO677z4aPXo09n3s+4Hs+wW7du2S6Wbj+YgNDg66Bv8YrRwYGKCioiLX9SfWu6jXDpmfONfV1cm81p/97GcjxsnPemMpJqjXPhSYRxYeWDcsLLBOBrdOYr1KbA7yU1ivEsMqk/OXs0EuWrSIxo4di30feqxNBvyav3CFCpErFN/Geffdd7suMDhZxskyXKE0GUjnYiDMI8wjzCPMI6cGH49Y+LluzJgxg+bPn09HHnkkLBawWARjsRgSn0QsFn4KfqwTItTr3UZ96aWXyotyDj/8cCwwWGACWWAwf72bv1gnLSwhV5ArELjECNxll11Gzc3NdPTRR2Pfx74fyL4Pi0WILBZsEm1paaGjjjoKCwwWmEAWGCiAUAChACamAII4gjhGbMz6F+lk77niiiuosbGRSkpKsO9j3w9k3wexCBGxuPzyy2nevHk4uYjj7sIzL52FHAoCFAQ/FATIFeQKcqUhgPU5sbnALljf/e53ac6cOXTMMceAWIBYgFgwAjjx9O7Ec9asWfSDH/wAJxeQq4gNBht14hs1FPzEsIICaJ9miN2x8MhkzEHY5u8111xD/L/jjjsOxALEAsQCxCLyfCodBZBPLm644QYaP348FhgsMIEsMDgY8O5gIGwKEfoLAgcLTfoWmuuuu474ULGsrAz7Pvb9QPb9gj179ngSvL1jxw4aM2aM6zqwe/duGjFihOtv6Z5coF4L1ng48wJz1VVX0YQJE5JeYIBz4jinoxABZ+DstlBinUz89J+fxDzCPMI80q4RqK+vJ07cUl5ejn0/DrHAuuHNugFikWKMRS4KIPtZcoaIVE4ucrG/UPATP/HE+HqzoMaz0ABn4AyFN/69WZhHdilJZ91g9+eLL76YTjrpJBALEAubDKQjV7H0KwRvp0gs0nFJSkfhTadeJhbTp0+nE088MekFJp16M9Vf1Js4scD4JoZVupYD4Ayc/SAWkCvIVTS54oxQU6ZMoZNPPhn7PlyhbDLg17oBYhEiYnHTTTdRTU0NffnLX8YCgwUmkAUm3smjXwsb6rVPceAMxROEJn1LSS7Oo7lz59LkyZPp1FNPxb6PfT+QfR/EIkTEgk8uqqqq6Ctf+QoWGCwwgSwwUPCh4OMeC00GkBXKmguw/NnXBT/XyVtvvZW+/vWvU0VFBfZ97PuB7PsgFiEiFnxyUVlZSaeccgoWGCwwgSwwfm6YcHVL7BSen8rFk1aML8bXzcoCeU6clDCB++EPfyitFUwunB+szzj48ePgB8QiRMSiubmZ/v3f/51OP/10LDAgFiAW48a56i04WcbJ8n4h2hdA4PKbwC1YsID+9V//lb75zW9i38e+H8i+D2IRog3k9ttvl+bQM844AwsMFphAFhiciOFEzI8TMcgV5ApypclAvIOQH/3oR3TCCSfQ2WefjX0f+34g+37Brl275D0We/fulRUOHz7c9RRvcHCQCgsLo1kmaWBggIqKipJ+F/XaIfMT5zvvvFMGbruZRP2sF3JljTFwtss71o3EZAPrZHDrJNarxGSSn8L8TQyrTM7fe+65h4455hg655xzIvQz7EfYj/zQ22GxCJHFgk2ifMozY8aMCAKJE0CcAOIEMLETQH4KrjLxseInENthrSvxTpYhV4lhBbmy71Xx5IqJxRe+8AU6//zzI4gF9n3s+37s+yAWISIWr776Ks2bN49qa2vpkksusc0oLDBYYPxYYCBXkCvIVXwShixJiSvLIBaJY8Vy9dOf/pQOO+wwqq6uBrGAK5RNBvw6+AGxCBGxYIlatWoV9ff30+zZs0EsRo6MWGiNL/yacFC0oWhD0Yai7Vx4QCwSV5ZBLBLHiuXqF7/4BR166KHyDivnB/sR9iM/9iMQi5ARi5UrV9LWrVvpuuuuA7EAsTBlAEQqMTcMKICJKzVQABPHCnKVOFaQq8SxYrl68MEH6cADD6Rp06aBWMBiAYsFIwBG7S2jBrGIf1qKjSu5jYufRswB5MrN/AfCCsLqJhcgUomvsenuR48++qhcny+99FIQCxALEAsQi8glOd2NGsQCCiAUQAQVqzIQL/gTxDExcpCuAgicgbPb2pyuXLW1tdG+ffto5syZIBYgFiAWIBb+EIs333yTrr32WlvhsAx5axnCCT4IHAgcCBwInHscGywWwVksfvWrX9Hu3bvpO9/5DogFiEUwxGL79u3yHgtmtPwZNmyYK2nmhSCassQv7Ny5k0aN2ka3n/wN+sk28cXnr6I1626mUvGn9u5m+VtX5RpadzN/S9R3+8l0x/g/0KMXpFvvqKTb7E1/c6/e1atX09tvvx2xyCQ2vrnX3/TkGf3liRVLNsI6jyBX2pKLdcO+9Wj7INaNeLKBdcMuN37Oo2eeeYY+/vhjmj59eoSe5Ge96euT4ZxHrBfPn7COWoVebM2j3NKfvQ3eXnM5FbTX0FBXLbVVFlB7zRCJP/U4iTeooaScFm6ZTK1DXSS+pp6GEvrBcZtphYgpwgmvJkR+Ww66urpo27ZtsFjg5MK2yaTrYof5G8z8Bc7A2e0UDfPXQgWufRYWTByWL19OH3zwAV199dURouO3voH1Krn1ivXmupVEk1s13dnSCXNLf/aUWHyw5FRqLOvXAGmrpJLeFuqfupSKbxpPW359kiAWjVTWTFSnkw8Qi8gtwu+JDmKR3ER328Sxcdk3Lv4XNhDIFRReuH6pMoB1MjvWyaeffpreeuutiEyQQRxkYl9IZl9YQ21ttVTWW2Lp0T0NOak/+08sFkxULBaCWPR3EVWWUG9LP01dCouFczP2m1iwWZRdob73ve/Zqva7XiwwySww49x0tJjWLPgs2yGDPNvxwIk2TrTdFhWsG/m/bnDClr/85S90ww03wGKRA54KfOBuHtCLEdP2MrZY5I7+nBFiUStYWEkVUXN1B/0KrlCBKvggFlDwcbKMk2WcLCOomGUAxCL/icWzzz5Lr7/+OjU0NIBY5AGxyAX92VNiMS5ujIXGuIz4ivKFW+ich/cgxkKZ7n6ftLJZ9N1336VrrrkmUEIDiwUIDQgNCA0IDQgNCE3kSujnvv/b3/6W/vSnP1FjYyOIRT4QCzGKbNXIZv3ZW2Ix7gM9QFv0fHKrDOIWCNh9xHRiIYIwqLKgjoZALAJV8EEsoOBDwYeCDwUfCj4U/GAVfK4tEwdszz33HP3hD3+guXPngljkGrHIUf25YNeuXTLdbDyT6ODgIBUWFrrpJPK7gYEBKioqcv091ruo1w6Z3zizv6VIMUxXXnmlrWK/6422oKJe+/hjHll4YN2wsMA6Gew6ifVKwxvrc+6vz0wqnn/+ebr55psj9DOMb+6PbyzCmqnx9dhigaBTHuRszobBFov33nsvIvWcn6bYTJ3UoF5r0cT42jcQBDMnJhvxCA3kCnI1bhz2/Wze91966SXq7u6mlpYWWCxywGLhHKRs1iejHcCAWOy3n6uVJd82TM4KcfTRR9OKFSukxYJzWvMN3PxdvEWRf4ciBkXMbaJA8bSjkm/rBsYX4ztypLvbGPaFxGUjk/Poj3/8I/GB4vz580EsQCxsMuCXXgdiERJi8bWvfY0OOOAAqqiooH/84x8y5eyrr75Kr732mrxtHQoRTh5x8qjJQC6eEGH+Yv5i/mL+OpkDE5pXXnmFli1bRnfeeSeIBYgFiEW8TR4nJomfmHR2dtKll15KBx10kAwgY3coXmhmz54dV5kCzonjnMmTKW5lJoIDUW9i1izMI8yjaKf/WDcSlw3Mo8SxYrniw8PW1lZasmQJiAWIBYgFiEXEOpCWS9KXv/xl6unpkYUeddRRtHXrVho+fDiIRSTMaeEMRRuKtotIya/8Mj3DYmFHHDgnNgdBaBJX0nN1/vb19dEvf/lLuvvuu0EsQCxALEAsvCUWfDne9OnTSWQCo0WLFpnWCuDsLc4gFokpNbm6UWN8Mb4gjhoCIHCJzYVMErhNmzbRfffdJ//n/OBAAgcSfrhQFuzZsyehdLPxBHDHjh00ZswY1/V29+7dNGLECNff0p1wqNeCNRGcTz75ZProo4+ov7/ftFYkQiyAc3I4p+qSBJyBs9tCiXUyuZNlzCPMI8yj+NcIQK+zSwnWDW/WjYKXX345IWIRS2nlpvzP//wPffazn3UlD+nko0e9dkjTxVmMN3344YdUWVlpKxg4e4tzNGIBnO04syteaWkpDiQEAokcDICwaqIChSh1hYiTd/DBEn/iEVasV9gXoNdpMgA91poLvG6wpePwww933bsLLr744qGDDz7Y9Uf1y6GhISooKIj63N69e20n4Mm8G6ty1GtHBzhbeMSTDchV4lhlSq62bdsmc6y7fZCdyb6Q879SJRaxXFYePLuYNs/fQgsmqqPQRpUFdTT08B5aMU2rt62yhHpb+m3PxVPw4SpjYZot8sw3ML/xxhuEfT9y1Ym3p2RqnUS9ie9l2PcTxyoduXr33Xepq6vLnVisWrVq6LjjjotLLPAAEAACQMBrBC655BLim2FBLDKR5raHGkrKaeGWL1D9BndisfILc+jlN+6gL4FYSBHNByJ1zTXX0DnnnEPY971ezVAeEAgPAtOmTaPf//73IBbhGXL0FAjkBgIgFhk80e5pozaqpU9vUiwWbZVU0ttC/Qt6qbKkly6seoKaqYO2LPoSLBYgFrmxqKCVQAAI+I5AwsRi+bPr6dCDR0U06K+f7KQpZ33F94aiAiAABMKFAIhFBomFXnVUVyhBLG7dfDH96phbaOKWlSSYBlyh8iBdpdNigX0/XGsuegsEvEAgYWLx3Lo+Ov9bp0bU+VT3i/S1k90DLL1oIMoAAkAgnAiAWGQ7sWihEx47j/Z/4hJqpSYQizwkFtj3w7n2otdAIB0EEiYWv3vpdar8RqRlomvNejrjq8en0wa8mygCG+fT6bOI7n/+JpqQ6DsJP7ecZh79DJ375oM0JcY7y2ceTc+c+yY9GOuhhOvEg0AgOgIgFjlALEQT28/fn+pWFotYDARvR7s9m0cyF4LVnRYL7PshXqEVfYPmn05nvzGb3sTGH2KBSLzrCROLNb/voed/00lPdnSYpYusUXTKmefRN06zpQxJvHY8aUeAJ/LZb9BsVbl3+y4qbkwOltAxv36ebvKeechaEyIWss0/o7fMdn6OrvSoTRuxwIVm1tTU1NDatWtd+xsrvR9ns+CPcXO8s4BY7/KzAwMDVFRUhHoFAq3nH0ebb/sz3V4m/vGrKirta6a+21+nqtI+mvtaM/HXw//cRKVfWU5T1vdpz+kf4GwXoVyQqxtuuIHOPfdcM3gb+34IltsEdAzsuyGQAw+7OHXqVFqzZo1riQVqVqhn/+tV+kr5v0Q8uH7D/6OzKk70sEkhLiqviIVCkJbPpKNnEy2JYw1JZOSxwCWCUn48A4uFNY7Zko5Ulax49xzkQ5aksPXXabHAvp8fa2nMXoBYhGCQg+1iwhaLVWv/RGXHHBnRut433qFzzvxysK3O19riEQubK9RGYZ08m35mmAXOXEJLaDbNNg94z9QVeftzZy7R3Zj0ur545lpxKiwAPXManbl2u+4K5SibjLKSsViolhfLkjJ+0dGinWcSV/oW6ZaMTUw8jIbb6zK//tyV9Ov7iWYplpDPXflren78IuVdIvkdm2tk/1aJL96ityRGXNdseuPs2aTVZNWjPWtYWKJ9L94wsMtX+cuyfoFYgFi4iSQIjR0VLwmck1hg38+yRdGP5kQjFk5XKLmdiv3Utn9qe7u2pYtfeJ8WrtqbhMu0sXebe7IfbUeZWYlAwsSiY9UfqHD/4RGdGNyzl6rPOSUrO5dzjYpwITJ6oCu7MXwel8+fT8feNJ4WOVyh2HVptlDlNd9IxVWKNGX6i6ayHD3GQrUSJO4K5W6xEKsQzf6LtvhIby3nosbWjWfOpTfPfYaOXnKM+dxG0b9NN91Ex8Z0hXL2bxWdo7tgyT787Is2svXGbCZZ/I40p2hxI1y/rPc8WiGIm/YMN3Q5zZ9/LN3kl49Zzgmr/w0GsQCxALGIfwO2n8QC+77/61zGa0iYWJxj7seWXkFy//yLcaAnt3Sx164yntUOKa19NOO9RQMCQCBhYhFAW1BFMhYL6V4kzt71EwItpMIZY8GTWkZ7mzEXvCAsOUac6p+3whHP4SAWRvkmt9HISeLEQo2xsFshZP2Ggu6sh+uzWScUC4KxaNmCyJzWFd0KIomTRW6cLlQ2HGwB8Xbrigax0l5IaWAIgFiAWIBYZJZYBDbZUVHmEEiUWKj7rnkA536YqSZ4gfty5oY2UzWDWGQKebd6kyEWxvumlYMV8HPpGZvFIkViobsR2U779UUlcWLhCELX22sq9CqxUCwTkbBoFoW1utvUeSvs2SliW2TSIxZGEzVrhzDzCnczZMUIbsKAWIBYgFiAWAS34oS0JhCLkA68f90GsfAP2+RLToJYbJp5Om2+0bBEGKfsHENgzwqVqOKtWTv0dLOOdqhleE4sdGJkuWQJMjR/E50n3LcWjX9ed0OyzKk3bo4kFqYFRCVEiVosbtoUxRVKnMScvpluNFy2zBMaP1L9Ji8qYXgDxALEAsQCxCIMa11G+5g0sdD241XnsCWf90+7zgFXqIyOZlZUDmKRFcOgNyIJYjHB4UJkuOuYp+tmcHLs4G0rta3dFUqSCT2e+nOf+xy99UUth7XnxIK77tYX6aqluFOZ1gLDgqG7KKnPiXaKWG0triJhYmEEekcGb6sYaMHf/qXxzSYxzJa2gFiAWIBYgFhky3qUt+1wje0UHhC/PoaW6G7C8h4LM1OMQMK2H0emuLfpD3AlzlvRidYxEIvQDTk6DARyAwG+J+epp55ybSxnBtpvv/1cf9u3b5/8ftiwYUm/yy/s3LmTRo0alfS7Yaj3gw8+oLFjx0pswtBfVQjC0N9bbrmFqqqqzHsscmOlQCuBABDIJgT4ULCzs9O1SbZ7LLKp0WhL5hGwn+bb24O0rJkfn3xoASwW1ihmwz0WO3bsoKamJql0clpSpH21zzIvszOpJQeJszPdbD6sI+gDEAACwSIAi0WweKM2IAAEEkQAxCJ7iMXmzZtp7ty59Pjjj9OTTz5JfX199IMf/EA2MJrlKB8U7Uwp+JmqF8QiwcUJjwEBIBAVARALCAcQAAJZiQCIRXYQi56eHnr44YfpZz/7mdmg3/3ud7RixQq68847QSx0VPKBSIFYZOVSiEYBgZxCAMQip4YLjQUC4UEAxCLzxIJjXNavX0933HFHhOBt2LCBFi9eTI8++qirUOaDop0py0Gm6gWxCM/6ip4CAb8QiEksxMY+dPDBB8ete2hoiAoKCqI+x0FvRiDl3/72N3pLXAt//PHHy+fjvRur8njvqvU6y4n3Luq1EIiHFXBOHCvIVeJYbd26lbq7u5NWWoP0Sc+UAhhEvY899hi9++67VF9fH1VseS2/6qqraPny5RGWCxALO2zvv/8+jRs3Lqvlefbs2cQB+tj3I4cJ+6AdE+z7ie9lYdv3t23bRqtWrXLtdkF7e/vQ+PHj4xKLZB5444036Omnn6Y5c+Yk8xqeBQJAIGQIXHnllbRu3bqsVsSCUPC5jqCDt++55x76zGc+Q5dddllcqfv73/9OU6ZMoaVLl9KYMWPM50Esco9YXH311TRp0iTCvh9X7PEAEAACURDgw6YXX3zRnVi8+uqrQ+Xl5Z6CZ/jrLlmyxNNyURgQAAL5hQArOKtXr3bt1ODgIBUWFrr+Fs9iEetdLnBgYICKiopCWy+7PU2cOJEuuOCCpATqwgsvpJtvvpmOOeYY+R5wtsOXC3LV0NBAM2fOJOz7SYk+HgYCQEBBoKKiIqq3QQGIBWQFCACBTCFw+umn0/PPP+9afdAn+EYj8r1edoU577zz6Gtf+1pKw85WpunTp9NXv/rVmFYWLjwXXINUEOIR1nyw0PD48/iBWKQk/ngJCAABgQDvH88995wrFiAWEBEgAAQyhgCIhQV9EISGFcrrr79eWivS+Xz/+9+X7jRnnHEGjRw5MmpRIBbBjq/bQDjlCsQiHcnHu0AACDACIBaQAyAABLISARCLYBTPt99+m7773e/SfffdR0cddZQnsrBw4UIaPXo0/cd//AeIhY5ALhApEAtPxB+FAIFQIwBiEerhR+eBQPYiAGLhP7HgDEBTp06Vd1KMGjXKU2H4xS9+Qbt375a3dLt9ckHRVtsNV6jUxQOxlaljhzeBQK4hAGKRayOG9gKBkCAAYuEvsdi0aRPNmzePRPY/3yTKuKWbb+12fkAs/B1fo/RkcIbFwrepgIKBQGgQSIpY9DSUUPnCLRY4xfW0oX8Bkfi+sayfumq1n9oqC6ipdAP1L4j01XU/uWijyoImKt3QT+orsr6OallHel6/qY2nrL+vmYaMjqVWDN4CAkAgBQRALPxTPP/whz9Qa2sr/fSnP01hZJJ7xbil+6677rK9mIzCq74YBstBpvrrRiyya9+3dIWpS439mVz1h+SkFE8DASDgFQJJEwuVQPCCw/9u6bWIhfFdNF08GZNopomFVyCjHCAABJJHgInF2rVrXV9kF5sRI0a4/pau4rljxw7bfQxqJflQL19cxLdpt7S0JD8oKb5h3NL94IMPmiXkO85OqHKhv3y/1IwZM2xZoZx7emb3fbdDSPeDyRRFFa8BASCQJgJMLNasWeNaSkRWqLgLDFVSSW+Lq6XCqCGuxYIaqKR8IbFdpLi4WPw3msVCXUyUv5X3iSZT61AXlSmWB8sKUSYMLeVkGGAmtw4Ji4tWzsbiLaLeelpW3UEXGRaLtkoqqFupdWNyK6wYaQoeXgcC8RAAsbAQ8orQ8CV2rOBm4oJSvqWbg8Q7OjrkLd25oGirMhoGwpoSscjQvu+0WMh9WyoOlidFeYf4p/hyAu/vop3Yw+OtuvgdCKSPQNLEIqorlCAAG0UmEDmBdZcot+bFIxZljQVUR5rizi5VdRu1RSLSFcqdWMjFxuE+pbo0ubk3Wd+xSbWOBBuRfTC/b+kVZKeDqqWrFtdrPZP+EKAEIAAE3BCAK5SFihfpZu+++2468MADE7pN2y+JVG/p3rdvH40bN861Ki/6G60PcMGKLldJu0JlcN+3EwtjT7b2Z/akMHWBHj6wxB7u17xGuUBARSAtVyjTCmHGQpRRY0E71QgrQTRuEZtYdBJVlVNHtRafEdsVKorFQlf8NdtCMdULMmAtQLUWWRDMweY7Kq0Qdl9Nk1jUtIuTDuYbWr9ixZBAvIAAEPAGARAL74gFp3894YQTaMqUKd4MTpqlXHTRRXTttdfSqaeeCmIhEMgWIhWNWKgu0Nmy77vHWPRITwTWITqpyoqRlB4H2MPTnLZ4HQgkhIBnxMJcePhkoIqoM0rAtbcWC/2Uokw9jTCXPbnA9DUPyRgQ4+Sil60gbBFhstBUagafa0HaUYgFLBYJCRMeAgJeIgBi4Q2x4HSvF1xwQcq3aXs5pmpZ3/nOd2jmzJnylm7nJ1sUbbVd6bpC5YKlJFlikZl9X0v04rRYbKznA8le06NA7vuGKzMsFn5NY5QLBCIQ8J5YiCpiZVOKRywMVyO2OMSOsdAsBzLsQcRiCPdKzVWpV/Gj1GMsauWiosRtTDBIRB3Z62GLi5WdKsKFygrIQIwFJhMQ8BkBEIv0icWll15KN9xwQ9q3afs11MYt3eecc46tChALC44gCU3KxCKwfT96VijXGAslq2Okh0IMn22/BB7lAoEQIJAUsfACj2SyQnlRH8oAAkAgNxEAsUidWHz66afSSuHlbdp+SRG7aR1++OFUW2speiAW2UMsvBh37PteoIgygEBuIJAVxKKgoCAqWkNDG2zZm4wHtSxORLHe9XsIhoaG/K4C5QOB0CIAYpEaseDbtNlS0dnZKYO1c+HzwAMPyDgD45ZuEIv8JxbZsO9jD8+F1QFtzDUEsoJY5BpoaC8QAAL+IzBp0iRavXq1a0WDg4NUWFjo+tvevXvl98OHD0/6XX5hYGCAioqKkn43G+rl27QXLFjg623afo08p6F97bXXiN2jML4WykHKVUNDg4x7KS8v93SYYbHwFE4UBgSyGoGKigrq7u52bWPEPRZe9AQLjBcoogwgkP8IwGJhjXEiJ/h//OMfqa2tTbo/5erHuKX7jjvuoJEjR7p2I8iYA7UBYajXLcbCC1nCvu8FiigDCOQGArBY5MY4oZVAIHQIgFgkTixWrlxJ//3f/0233357zssJ39L9ox/9iFpbW0EsBAJBEhoQi5yfPugAEMg4AiAWGR8CNAAIAAE3BEAsEiMWjzzyCH300Ucy+1O+fPiW7quuuoqWL18ub+kOm+UgU/0FsciXGYR+AIHMIQBikTnsUTMQAAIxEACxiE8s7rnnHhmgzX7x+fZRb+keM2aM2b0gT/AzpeBnql4Qi3ybRegPEAgegZjE4vHHHx8aP368p63q7e2lJ554gm699VZPy0VhQAAI5BcCrCy//PLLrp1KJObAedJtFBTrXX4mFy4y43byGnr88cdTVZW4kTSPP3xL92233UbGXgRiYR9sL+WZ59y3vvUtE2uvxAr7vldIohwgkP0IXHbZZfSnP/3JtaEF06ZNGxo9erSnvdi6dSu98sorMsc6PkAACACBaAjwAcQ777wDYiEQcCqP1113HZ1//vlZd5u2X9J85ZVX0vTp0+Ut3SAW/hGLM888U94pgn3fL0lGuUAg/xHgfT7s3wAAIABJREFUDH9vv/22O7F49dVXh5B2Lv+FAD0EAtmIAFyhrFFRiQUr2Ndff33W3qbtlywZt3R/85vflFXku0XKwDFIIgVXKL+kF+UCgfAggBiL8Iw1egoEcgqB0047jfjkw+3DylY0xXLfvn3ylWHDhiX9Lr+wc+dOGjVqVNLv+l0vX+Z1xRVX0M9//nM66qijcmosvWrs/Pnz6aCDDqIpU6bk3fhmgzw3NzfTrFmzcI+FVwKLcoBACBHgQ8Fly5a59hz3WIRQINBlIJAtCMBiYY0EZ0m6/PLL5W3a0UhPtoyb3+3gW7r/8Y9/0LXXXutalZcxB2oFQVoOMlUvLBZ+Sy/KBwL5jwAsFvk/xughEMhJBEAstGHbvHkz3XLLLVFPgHJycNNs9JNPPkl9fX00d+7ciJJALOyQJJOMAMQiTcHE60AACMjYv+eeew4WC8gCEAAC2YUAiAXRSy+9RHxPxc9+9rPsGpwsaI1xS/ddd91law2IBYhFFognmgAEQosAiEVohx4dBwLZjUDYicWqVavo97//Pf3whz/M7oHKYOv4lu4lS5ZI8mV8QCxyiFj09FDPxIlEDSXUWNZPXbXi3z0TRWICN6Fqo8qSXmrpX0CuP/MrbZVU0FRKG9RnehqopLyPmoe6iCoLqI5aaairVquAn69bqVRWTPUb+mmBrKBHNKucFm7Rfi6u30D9/IN4p6S3RftbK8TeLllfB1VHKUe+MllpAz/fWEb9snl1JFtTXK/3QW2D0bbI78oaS6i3xWh3BickqgYCAgEQC4gBEAACWYlAmInFY489Ru+99x7deOONSY1Nj1DQyg1NSFFQWHGzfU+TqVUoWrWsFBnKjFGTofTYlC7t+bKIchQlST5Perm6wmUrW1XanEqd0Z6kuisfdt7SDWJhxzB7XaEiiQLLr0Yw3OQgAWIhyYC416XTUrLlnOhrFmRCKO4l7bLgGqHFyyqcJMFU8sXMECSkqVQnE2q5vbGJhexD3wTaWGqQD25TI5UZdcpqLSLQVllJ1KXNLaPvFg6iz/JnFZBEv0t+LuENIOAFAkkRi1iblroY2CekvZk94oTi4YcflqdM1oc3tyYqNRm+9ousr6PafvpgvmS9M3WpsnC4lOMFUCgDCACBYBFwIxZbtmyh3/zmN8SXph166KGuDcr1INt7772XRo4cSXzJULIfp2Jm/Lul16GwmQpVb5RTYF5f26lGkg8XBSzi1FZTlqTaVmMohm4nudrJca3zZFk5VXbVKeMAod7SzVmjGL9on2QUbbWMXJcrNzycJCzIGAtTnxBEdkNpk1Cqm4nq+MSeCWgz9VXp1gn1RF+3WFhE2UFWdb2hijp1i4J2ut/XPEQ8B/j7TvH/TX0lKrFgEuK0jujWlJjEwpg3NdRuvh+DWJBhrbBLvTmPy9j6sZCk0cSwYsi54vhOTlFYLZJdL/G8PwgkTSxUAuG2acU+cRBkwZVYuHcuUWJhWiTl6VskQfEHOpQKBICAnwhMmjSJVq9eLavYvn07LVq0SGZFqqiokClXCwsLUyIWg4ODUd/lAgcGBqioqMi17FjvxlM8E6mX+zVR+IGkeoGod8Qi8uTXBoibQsYHxZ1EVdKtgxWl6CfSNe2RSlC8vSMRWbvwwgupoaGBSktLoz7u9fhymmH+3+7du2UKZE4LbHxn/M3//eijj+iQQw4xf+Nn+Pu9e/cSywa/q37Hv/H/Pv30U/lfTp9slKuWb9Srfsdl8oe/+/jjj2WKXv5ObRv/xmVzucb3zzzzDM2bNy+gdLOWfBiuUBYBVmTHSSxYxqRRQrhE8W/G38aIq9+Zf0+lpYYlg5V5452orlAxrCMR7yhKP//WXiNdrfiAtb1mSLp3qS5VspmKVdDuViWZkb19enk8PyRhKms06zC/E0qQF/MnkTmGZ4BAPAR4j+7u7nZ9LCLdbNxNi5wmwshy41oseNLrbLy4uFgw9eQtFhuLt5A42DQZvjzdEOnwi8WXE1rFRBftNP0qVV/HeGjhdyAABAJDgC0WK1eupNtvv11mRNq2bZu8FZjJBd/jsP/++0tlif/HSpLxX1aWjDsl3H7ftWuX+a7xnloGn37zibfxnaGw8b+dSpz6DBMLo161PariOXz4cFM5dJbPrk98T8UZZ5yRMsZeuEJN5jVSHqCqCpHDVclBLCwFh93lDVeU4IkFt5pvJD/66KMjlHtjHDhV7YgRIyIUbUOJj6bAG+PlJA48pgUFBXLMmBzw38Z3XBb/j7/bs2ePlCvjO/W/3DaWZ/U7oxyDVBhlO993e9eok9vB97IcfPDBZjvUtnGfmKAbzzOxaGpqym5i0dxHVWaMQ6Q1gMfBOL1nbwapjE9dap3yy5HSLR2q9UEhBW6kmHraBFWupdoYFotejuFQQzakflGmuELZCXsEGXCLETFWAxcroc2Vy+33lFcSvAgEUkcgaYtFNP/dRkEANi5cqCnuMWzZ8YhFWaMVXMWMv26jEcTk7GQ0Vyjp5CvaoPkO8998CmK6VNkCq6xnYrU5dXjxJhAAAqkiwMSClar169dLpYw/xxxzDE2YMEH+fcABB0iFiBUl9b+GQmYoas7fuUx+l793/mYoXazEqQqc8RyTB1ZK1fqM57hNXDfXazxv/Mb/VhVL5+/83NatW2nFihX06KOPpgpZ1FNLVYFRTzldFSi32p0nwzYlJvJEVgt0jXSzMhQ+t2BTL05cOeCd0xxOmzYtQkk3xoItFmPHjnVVtJmUsvLvRgxYbnh8DbkzlHEDrnyI7QjSFUqVvZgWC1Ph192T4lksNGYhAqxrqLqjScZbsF6hWQ/00TLkV5z+qxYDy8rARThjLMqpo1rIteMdsx9qu2Q1BulpoV41xsJhkTDrV+I7DJlys0gYLl0cPO6c19HjU1JeUvAiEEgagaSJhZvgWi5LZdSo+uW6NCc2seCZqU9efdKkHmOhbXa8ELBPpRa8JVYVR4BhrHiQpNHEC0AACHiGABMLdoW65557ZLpVdodilw6+w+Ckk06K6kcfzyUpmxVAdom5+uqrpVWGCUqyn2jKuf179dQ0istHhIuJ4zmVWNhOeqVWp/uni/3A5qeuxG14HGMha21rkwHv11xzDWIsFMFJJqYkWGKhE9IJRoyFiM2R3gQbZWYmecjIp//Cc6F4QrOWNSmBGAut63pSAmkx4GxLSryQ+bv4rpWoyZnhyXw2uaxQ06s76CYztkNrhUYM5guC84gteNskDGxJ0V0H5UGqYu3QyDlbAPXMVKZ3hdIuxeMCMRbJrpZ43i8EPCMWJuFw83lUWh+ExWKjcVqmWiwMYgGLhV+yhHKBgKcIqMHbfJLMNy4vWLCAxo0bJ0+lowXo5jKx4L6xKxbHWLCiPGbMmKQwTYxYSI1H9+PmwyA9xaVRkx4kas8kFZnRyThpVU95jSK074TWJoNxzYKVVJ6s+6mpPlPPCsWlM/lkeeDbybOZOPL4un1itTlIeQ6WWCQl2nn7sJEVKpWkBRYobpmi8hYydCzLEfCeWOgs3bQQOACIRywWTLTSH3oaY2EQC6N9RkpGxFhkuYiieWFFIFq62RdffFH6gB944IGu0ASpiKkN8LpeznzV3Nxsun6FVQ7i9fvWW2+VwdpGwDuIhR2x7LVYxBvZkPzu4gKVbM9hrUgWMTzvJwJJEQsvGpJMVigv6kMZQAAI5CYCYb7HwhixK6+8ki699FI65ZRTcnMQfW71ddddR+edd54t4B3EAsTCZ7FD8UAACMRAIAeIhUuqNtEhK3MJxhcIAIF8RICJxdq1a127xtmZOIja7ZOu5WDHjh1RXZAyUe/NN99Mp556Kp177rn5OMwp96lOuFlde+21ERmM4hGLbBtfBiATcuVW75w5c2jGjBkBZYVKeejxIhAAAlmMABOLNWvWuLYwIt2sF/2AxcILFFEGEMh/BEAsrDFeKDLucYpdVqbD/mHiyCllf/zjH9PnP//5CDhALOyQJEOkQCzCPrvQfyCQPgIgFuljiBKAABDwAQG4QlmgsrL82GOPEd/BwKf0Yf2wknzJJZdQR0dH1JvX4xGLZGIOVJzTtYTlQr0I3g7rzEK/gYB3COSAK5R3nUVJQAAI5A4CIBZ2YsFZj5YvX05s9eXbkcP22bRpE82dO5eWLl0qu853jbh9QCzsqCRDaPwiFl1dXbR48eKoro1hk2X0FwjkMwIgFvk8uugbEMhhBEAsIokFf8OpdplgsCtQWD4vvfQSPfzww3T//fdTGCwH6rgG2V+/iMW6devk2D300ENhEVn0EwiEFgEQi9AOPToOBLIbARALd2LB37LV4s4776TWVnFXRJ5/+DbtF154ge644w7Z0yAV7Uwp+Jmq1y9igdjKPJ+k6B4QUBCISSymTZs2NHr0aE8B27p1K7388stUXV3tabkoDAgAgfxC4IknnqB33nnHtVPZcqFYphRArvftt9+m//zP/5TWi1Ru6c4FaTFu066vrzebC2JhHzkvXb9ALHJhVqCNQCC7EYhJLNrb24fGjx/vaQ96e3tl4B1f/IQPEAACQCAaApdddpk8hHD7gFhoqHAwN2dIYgV87NixeSVM6m3amSRwRt1hIDQgFnk1hdAZIJARBOAKlRHYUSkQAALxEJg0aRKtXr3a9bHBwUEqLCx0/W3v3r3y++HDhyf9Lr8wMDBARUVFSb+byXr57oHbbrstb27p5uB0PtRi0uT8ZBLnfJerhoYGmjlzJu6xiLc44XcgAASiIlBRUUHd3d2uv+MeCwgOEAACGUMAMRYW9IlYaK6++uq8uKWbb9M+++yz6ayzznKVvTBYDtSOB9lfWCwyttyhYiCQNwjAYpE3Q4mOAIH8QgDEIjliwelXv//979Npp51GkydPzklhuPTSS4mV22OPPZY4va7bJ0hFO1MKfqbqzVpiIZIV9EycSBMTkuoeaigpp77mIeqqtV5oqyygptIN1D91KZWUd1D1hn5aIAvUnl+4RSl8cisNGS+3VVJB3Ur9x8nUOtRFtfKdRirr57+1T09DCTWW9Zt1cn11FK0cfqOY6s02KHX3NFBJYxn16/Xby1XaWlxPG/oXCEwiv+utLKHeFqN/CYGGh4CAZwiAWHgGJQoCAkDASwRALJInFvzGokWLaNy4cTl1SzeThSlTptC9994rb9NOxEKDeyw0+cj/4O02qizppRapRCf4YTLQXmORAxJlFDRRqVDkpy4VBKBvAm0sbaF+ySwiSUKboZiTUPLL+6hZkgnxMcsti0MsuM3tsrE1BvkQ75b0GnVKJmIjEEbP2ioricS9H1yfJCeC00xu1UmS0i/+rb1GfE9WX83vakX9shiFWSUIHR4DAukiAGKRLoJ4HwgAAV8QALFIjVjwWw888ADt2rWLvve97/kyNl4WyrdpT506VWa3Ouigg+Iqy7BY2NHPXWJhtxQU1wtrwoJei0ToindnaROVszlBWhFIEIQ6kvYD3arQ01BJVR0raQsZJ/iSAYjn2qlGJQRNpeKEv4wa5fc11G6SlejEQpIQxQohkZfWE6KlMSwWbGWook7xf1XW+4kQCxvZaBNJGWqprNdqg816oZcXrQ6THCXMxryc1SgrzAiAWIR59NF3IJDFCIBYpE4s+M3Ozk7iLHxNTU1ZO8rGbdrLli2ztREWCwuOIIlUsK5QQkEXGrrwcFJO7wVxMBR+U8m2vus1TunFQbxxOt8iFG9W4jXrg/WxTu+tZ91P96O7Qjndm6zSXd6RXIctC/xblZiAwhWJLR7yT2FtsblUcUkurlBO8iGhSY1YRG971i4HaFieIJAUsWBBlScHxkf38ROzKMK3UPoyOia6RvZ75A2qS5YsUZcA00ypviLr66jW/QidiFumzYh3+poVE6jjPTFxK4XxMDELoXsdRomyfbHqyhMhQTeAQCYQALFIj1jw27/73e/oqaeeyspbutXbtJ3yBWIRBmKhKc2mTmFYJKISi6l2K4Hbib0qSCox0a0XQtGQrkXmR9apujUppEDwFDflnFM719bGcIUqY/ephcKCYipKWixFr+IKFeGqpT3rVl+qxILdtmyuV5lYxFFnKBFImlioZkFD4PnEwPg+HktO5gbOVIhF7FFkolBHIvoqQWIRuzQQi1DOGXQ6IARALNInFlzC+vXr6Sc/+Qk9+uijAY1c/Gr4Nu3f/OY3jgMmb/rrpWuQ2pMgLQeZqjdQi4Wq+JqKtmKxcPkumsUiwl1JU9O1OAhxZVYdx1u09FrWA/X3/hbqVd2amJAYVgb+2xljIVUIxzsKKahp12MfjPAGo59ljTZFX7WomOMdx2JhxXjUmhYbdyuMO0mJPzPxBBBIHwFviYWwBcRjyHEtFjJYSmP7xcXF4r+xLRYkkp+sXCmeVqwnhhXBCHximNh/k30RjdMRabLkoCfj+ML012QriXh+yxaa0NoqViQt4ItPG8xnXepKfyhQAhAAAioCnN2IL9N0+7CSFy14d9++ffKVYcOGJf0uv7Bz504aNWpU0u9mc73vv/8+zZ07l1asWJHxW7qZ4PT398vg8nzDOZpM5opc8cW1s2bNCugeC+2gT4uXmEyTN5bKAG0mD3JbFvt/8YRmkR2JrQMia9OEaDEWLnEQ+uzVLCIkLQYcL+F0mdJiIeZTdccjERmezGeTygolWYwV2yHbocd7CHWiSQ3edsaB8KMuAd1Rs0KZmasUtywlmxViLLCfZgoBPhR0urcabYm4xyKmK5QgABsXLhTKeGxrQDxiUdZopWiTxGCjGpClwqRYH6TpUUsfx4uHRiy0IC+7dcL9nQUTre/Z+mK5X7m5QtmzS8AVKlOii3rzHQFYLKwR9sI1iAlTVVWVvKV7zJgxGREf9TZtJjucvcrt40V/o3UQ9UaXq0AtFhmRwOyvVM0KlXprkRUqdezwZroIpGWxMCq3XJaMjAtWbmdnA2MTi06iqnLqqNbiMxJ3hXJX9l39Nw2yIa0VzDustG4cFyKtGmbchEoslNMVPejKIjFI6ZauIOJ9IOBEAMTCW2JhlHbRRRfRrbfeKu+KCPLDdZaWltIFF1wgq4WC78/4Osc0GZxBLIKcEVHqipKGNpmWwVqRDFp41msEPCMWpo+j6p/o0lpvLRa6m5K0OFg5qiOsCGzKlKnmOPhLvzhHsXJEWCwiiIVGeLQLd2Cx8FoIUR4QcEMAxMI/xZPdXaZPn06nnHJKIMLHt2mfd955dMYZZ5j1JaPwqo0MQ6xDpvoLYhHIdEAlQCCvEfCeWAi4YgU1xyMWhpKvuVjGj7GQ8Q+uxEL3y9RTM2g5sifaLpyRbk9Glis1xsLFYiGtE/JZ4fdZLOIvBMmQ7yMrVF5PEHQucwiAWPhHLLjkoG7pNm7TPvHEE23CBGLh7/gapSeDM4hF5tY71AwE8gWBpIiFF51OJiuUF/WhDCAABHITARAL/xVPvqV77NixxMq/1x/nbdrO8pNReDN1gh+2ekEsvJ4FKA8IhA+BrCAWBQUFUZEfGtqgZYRQrs/gh40r7mO9G9RwDg0NBVUV6gECoUEAxMJ/YsE18J1CnM3ommuu8Uy2+DbtSy65RN6hYdymDWKR/cHqfhGLdevW0f33308PPfSQZzKGgoAAEMhOBLKCWGQnNGgVEAACmURg0qRJtHr1atcmDA4OUmFhoetv8XzwY73LBQ4MDFBRUVGo6n3hhRdo8+bNNG/evLSHnG/Tvvnmm+mBBx6IOkZhxTnb5aqhoYFmzpzpebrZrq4uWrx4Ma1duzZt+UIBQAAIZDcCFRUV1N3d7drIiHSzXnQFrlBeoIgygED+IwCLhTXGQaRf5Vu6+Z6Lu+66K2XhUm/TxkV1dhhzwfXLL4sF9v2UpxReBAI5hwAsFjk3ZGgwEAgHAiAWwRILrm3Dhg3yZDmVW7r5Nm22fNxxxx2y4SAWIBYGAiAW4Viz0UsgwAiAWEAOgAAQyEoEQCyCJxZc47Zt2+jqq6+mzs7OhG/p5kv33nvvPaqvrzcbDWIBYgFikZVLKxoFBHxFAMTCV3hROBAAAqkiAGKRGWLBtf7973+XF9klcku3epu2OtYgFiAWIBaprn54DwjkLgIxicXjjz8+NH78eE9719vbS0888YS8+RUfIAAEgEA0BDiI9OWXX3b9OYiYA7eKw1ZvdXU13X777VFv6Xbepg1iMTLqhEaMxcMyAxk+QAAI5DcCMYnFtGnThkaPHu0pAlu3bqVXXnlFnobhAwSAABCIhgAfQLzzzjsgFgKBTBIavjV7xowZ9NWvftU2Fvx9ZWUlfeMb30h6jPiFXFC01Y7FyzaWDxaarAre7mmgksYy6u8iqizppZb+BTSxp4d6Jk6kiXGWTb6kt7Gsn7pqIx+0/9Yj09n3iQtv1WfbKguoqVRcqjt1KZWUd1C1vIiXy9Ket6W/1y/XlTW1VVJBHV/vy5/J1DrURbXynUYqEx0xmuNsH9dXR600ZDTCVg6XVUz1ZhuUPpkYaSW79U2717eeNjB+avv173orS6i3xegf9iMgkD4CcIVKH0OUAASAgA8IsCtUtPSUu3fvphEjRrjWmq4CyHcwjBkzxrXssNbL6WM5/e/kyZMlLnV1dTIOY6JQ8vgODLdPPEUbOFuoZYtczZkzR5LI8vJyT2d0SsHbDqVZaO0WwUijdRGkg5X49hpLqed6CpqoVCjyU5cKgtI3gTaWtlC/ZBaRJKHNUMxJEKHyPmqWZEJ8zHLL4hAL7le77FGNQT7EuyW9Rp2SMegky86U2gSxJ5HKl7+V5ERwGuOOL6v+Wvlbe40gT2T11fyuVtQvi3FhYWngjFfDiwATizVr1rgCgHSz4ZUL9BwIZBwBEIvsUjx/9KMf0Ze+9CX68Y9/LP93xBFHyAaCWGjjlA9EKmhiYSjD6om8+V1xMRVPaDYtFtOrO+giPn6XFgJhxSioI2kb0C0GPQ2VVNWxkrZQPS0Tzz7CFgtWpB0WhLIIawYTiXaqUQlBU6k44S+jRvl9DbUbFpMYxEKSEKeVRFpYiJbGsFgw0amiTvF/Vdb7iRALG9loE/FQtVTWa7XBRqD08qLVYZKjeKagjO8KaEAuIABikQujhDYCgRAigOBta9Az6Qo1cqQVN3DvvffS9OnT5W3a6VqG4AqVfeMbqCuUQzGW7k6dRFXS/Umcnpsn/oYrlFD0dQW/1ziBl49pp/EtQqlmBZ0tC4ZS3VLWI61q/DGUZzcCYJ3eW+W5n+5Hd4WK7n7l8o7kQ+x+xb9VEXUKVyS2eMg/hctSIq5QTvIhylTbkAyxiOU6FsKtB11OEwG4QqUJIF4HAkDAHwRALLJP8VRHGsTCLvfxLBa5QKQCJRYRyrOISWglajJcgCJiLAxiMdVuAXA5jbcUZbZG6JYNPU7B3bKgxHPo1gvxonQtMj/SMqK6NSmkQHAXN+Wcs6rV1sZwhSpj96mFwspifPRYil7FFSrCVUt71q2+VIkFkzib65U/SzpKDQkCIBYhGWh0EwjkGgIgFiAWbjILQuMfoQmUWLjFDajfpWCxMFyRNAW7k0qbjKBpiwS4EgvDxalZxA9xvEVLr2U90NR4PU6ihXpVtyZur2Fl4L+dMRZ1JAK4He8opKCmXY99MMIbDAW/rNGm6KsWFXP041gsEo+xcCcpubZfoL3Zg0DWEAvNrzJK5oMIvLwJ4kpvGITvpHCe1K2s6RVle1s9YeEfnJhoZtWOapGxYgFFZqgQb0xu3SAWVEfmCs4A0dxH5bYjGC5efG+an/lkRbw3QclOIRfLhTSBzbY2f1Wt0WagmIcIoCggwAiAWIBYgFhQoC5ngRILMbhWjIW+F4lNjd2c5DbliLFo6WdLhbE/ucVYRMYXsHtUuZYWSSQeEP+p6ZcuU24Zo5iMiK1OZl9i8mG4VRkyqMVCzKfqjkciMjyZzyaVFUqyGCu2Q1akx3uolhv1eyMOhL9zIWZRs0KZmasUtywlmxViLLDneolAlhCLyEwLsTuZeWLhn0+io2/OUxC5mPTRhI2lWvo9HSj7whAHT+eCZP6biUUVddAEatazU8jFtINoQrMWCAdzqZfTD2XFQgDEAsQCxCK/iQVWwPQQULNCpV4SskKljh3edEMgK4iFdlIgThWM03PD59Bg1PqpuZaOmU/qe/X0bCtppUwSYQRBWaf02nNuKQ6M1G7qu/xdE23cskWezLN5UjvYN6wFavAV56YWWSKk3yb/zsf9znrV9olnWqupo479KI281opVQs2BbZxMmBkotCFTSYxhEq1pt+ee9o5YNBJVb6Q+md1CIyjmv0EssIoEiACIBYgFiAWIRYBLTu5VFSUNbTIdgbUiGbTwbCIIZAWxUHNDCw3fvKzFUKgtP0TjJJ4Vey3PtMykILNIlFmuSTEnm5WjesFEwzpgpJUT+aDjZarQUbWUfcUlSg02M9ongrAKZOo6zcTL2StUv8pI38lIa4w9EE03nToCuiKJhd0Vyka0YloshE+qsNDKADq+HEhg21napJmOI1yhDKKUiKjhGSCQHAJ8b8Lq1atdXxocHKTCwkLX3/bu3Su/Hz58eNLv8gsDAwNUVFSU9Luo1w5ZrDECzoljFaRcNTQ0EN94nxX3WCS3XOBpIAAEsgSBiooK6u7udm1NgPdYqIFRToV4WYRPo+2iHEVJNi0f3J0IS4DRR1VxV4iKYSVwy1ShJc22WTHUALDIepWbQpUAq8iAMtGmiACsSGJhkgYmKfY0FfrNnlYqPet2UPtNn7YRjkcs+rW83TUiF3i7IBSmTyosFlkybcPRDFgsrHHOlnSzquQhiNo+D5EVKvq6lNIFeeFY5tBLIJB3CGS1xcKkArac1WzRaKa+KpHzmmMMDCW5pt3y/4+Snk0rT70MR7FYGMQinmnRmdpOVbYjslho+aiNuIRIC4ySM9u89NJJLIz2cmYJPd+17uFld5FSXaPSibHQCIlGpDSLhHmhEIhF3i0A2dwhEAsQCzf5BKHxj9AEHbydzesP2gYupZHAAAAgAElEQVQEgEBqCGQdsZCuSEpeZy1+whmToFgEbO5Hxk2ck2myI7jZgseKp+CYDbN8Ja4hIlOFDKMwck3r7j/SsrFRxFgIklPurNe6yMeNWET2x2QVOvEx8m5zq/U4D/XyHKMzSqq7XsWFTHMtc2SFMuM7xMtxLRbCJYz7p7twicKiuEIZMS+4rjO16Ye3YiEAYgFiAWKBGAuskkAACOQWAllCLIIELfMZpYLsLeoCArmKAIgFiAWIRX4Qi66uLlq8eDGtXbs2V5cjtBsIAIEEEchjYuF2as8n7C00oeMTW6rWBLHCY0AACASIAIgFiAWIRX4Qi3Xr1tH9999PDz30UIArCKoCAkAgEwjkMbHIBJyoEwgAAa8QALEAsQCxyA9igeBtr1ZFlAMEsh8BEIvsHyO0EAiEEgEQCxALEAsQi1Aufug0EMhhBEAscnjw0HQgkM8InHbaadTRIa59d/lwZqD99tuP6Mk6OuzqNfKJb9y7nVovINq3b5/897Dl08VvRPdubyXxtfg8SXUnb6Qbf38TncDvRvns3LmTRo0aFbtel1/NeocNS/pdfgH1WrCZ4xtKnDU5vWndzVQq+h+kPDc3N9OsWbNwj0U+L6zoGxDwGQE+FFy2bJlrLQHeY+FzL1E8EAACOYdAfIvFGyJhmZ6CWcmaVipIB3/2az9f3vtiXQ6pJW6Y+/o8+reRI6Pi8f7779O4ceNcf8d9EnblX+IchaTlw70OqhAEkubWyIpYXC8vVeV8e2a9Acgz0s3m3DKJBgOBrEMgcIsFskNknQygQUAgKxGITyyelERB3mcjUyxrd7DsnVxMr9/2Bi368/niDpkaccFmE1FnPy2YCGLhNtAgUhYqmSaOPW1tRCL7eKOS/vyRAOUZxCIrl0I0CgjkFAKBEwtkh8gp+UBjgUDGEEiVWNQoFgt5OeXUpVTSWEby3kdYLCLGE8Qie4iF1hJ7SnTVYuG3PGcnsfArRbxbuS6X5qa0AqbZZnmx7ik0YeEvqXQDH4rokiEurm0q3UCdVEXlC/kmLuOj33cln9MyYnZUb6B+/UW+TNf+vHUfl3GBb0rdxEtAwAWBwIkFskNADoEAEEgEAc+Ihdhc+dLL9ppWoia4QjmxB7HIMWLhozxnJ7FIZLVI5ZlYxEJzQ8vMRxCDyqU0tUu0Qb3MVvmbiUJjWb+4PNilhfK5PpqgXBIc8bwkLuLQRcpSJZG4Z8StqMz0H7XmOgIgFrk+gmg/EMhTBOITi/gxFtZpnFAiCsSN9sJ3fT1iLGwSA2KRe8RCWjV8kOdgiYX9riktFqpX65c+JJNbh4TybBEAcRSvn7yrJ/TOBZCfbxdfrqSV4lDfWYalrLMFs4k2btlCfPZvf67MdEfrFYcSIlSLn6DWIaGAC6WcY7e0j/6dERsjvjH7obuzRbZZHztbH5U+KEo/f6sdimyg0iY9nkwwnljEQnt+iGraS6i3RbN2xCIWogKTZOTpVoJuBYwAiEXAgKM6IAAEEkMgPrEQAdjmJm8pGnafdO1Ujj/SHaCjGsTCAT+IRXYTiyDlOWhi0dMzkSby9DRP44WyX9BONazAq9+xkt5JVCV1a/0k3/g7Yjlhxb1JdyFycW1yq8t0PzMIhf5ftU5dAe+cSqLN2prSVqkp72WNmjLfVWvEetVQe9Q2i7Ij+mjZCyJJg0ZENkripaxlqiuUGezPz+r48drYXkNDwqwR1RVKWxh1V1HYLBLbmfBUPARALOIhhN+BABDICAKTJk2i1atXu9Y9ODhIhYWFrr/Fy94T610ucGBggIqKilCvQAA4W2IQBrlqaGigmTNnBpZu1qbwTm4VSrAWByUTMjiJRXMfVenuO1ocgZasIVIdVl2cHIq+W7m25A86IejXiYWtTkMWVIsDH2gw+3C2RW+Da5uNOhyuTnrxBlkx4ipUAmN8F9ViYbOm8JuaRaVMcZ3id6tElIZBUpwxPRlZ7FFpXiFQUVFB3d3drn1Cutm8Gmp0BgjkFgIJWSxcuhRPAUQaVDtosFhYeGQ6K5TbDA1SngO1WKguOObpegxikZTFQj+1j7BECGVercs43U/EYiGJzsFUvfEPOqFh0qK5J1kWC8OK0Ux9VdGsLJablS2GQh98N9LgJBvuxMJqj5OAtPSqMRmO52CxyK2NMQdamzUWC/YLrFsZy29SRTPNjAtGUR5MqJhBVBECkHq7I0yZ8nRHOauRJxXk4gOqN4JNpeL0pNz0DdW+n9zKvpvlZEswIb9XfDR7ueyN4mTGnp2ibiPnWp9KS0UGCnuCCisHew7MATQxSxEAsYDCm2lFW60/SAU/U/UGSiyMOBG5EU2myTLY2E3ptshG4jEWztgJLVZBbn/FxVQ8oVnPEhc/xsJZ59SlVpyHaDZRDQdRK1YMh+XFNcYiwipj38udmZrciIU9y5OAsKWeNv5SdxVTdRzBfeZXd9AjarA36z6GKxliLLJ0B8zdZmUJsYhl1nQDN3UF3VZa4MQidUFxEhheJDntnGHO5IWHw9W0Rc48+rD7TsZZQJyLl/lvQSxKmjYSVRvmU8ZfLMhULQ5rmFhEM0mn3l+8CQRALEAsQCyUC/ICuIgwWGLh1xrnkX7gV/PilqtkhYr7bPoPICtU+hiiBDsCWUEszNN4PlVnc2f5QpmlQRyba6fyrhkXnFkf3DJMuCeMizy5qLVOM0i3mvApvR74JANE5d8cWKZnrNDbZij8qqnRVMj5NmC9L+lminAN6FJPPfj0Qbp6cr5+nVk4iVM6xKK3lCZ0kOb7Kssx/g1igUXFHwRALEAsQCxALKKvLvY933iuuL5F7FWf6Bdn+rM2+V5qUFaEoOrxHTBUkE0IZAWxUAOxxFF4RIq0mnaXjAtG1gdW3qUyXUaRGSZcshyoyrZBGFp6lZN9/bRD8efkdHNa+jajHUYKuCEyCIUbsfA9U4SSzk4LxiLT51P6WLoQCytNnmRumuuULpExLRbyBuN26VuqjZHuQ+riCqWRqMxlAc+mCYa2pI4AiAWIBYgFiEXqKwjeBAJAIBMIZBmxaKFeh79+cf0yodA+4sj+oJg6HZfGmH6HzhgEA12VoRvv1rQreakNhZvbwmYAoUCXcyAY/1tx+TFSz4n8CnxRTSSx8DZTRITFwux3mbxl0555TlfsPbVYtMjbPhvLmuUlY5YvLCwWmZi4YagTxALEAsQCxCIMax36CATyCYEsIxbGabgVJMxgGxe+sIePdqpunJYr6doEOTADnpT8zRGDFddiYb0h07L1TSASQWWcO9uwXGjt0KwXkRaLYDJFmCnjyhotly3ZdHfSpf0U+yKc2BYLcR/A1KXStUtEcWsXGUmLCYhFPi0I2dQXJhZr1651bdLu3btpxIgRrr+lG2S7Y8cOGjNmDOoVCABnSwzCIFdz5syhGTNmBJZuNpvWG7QFCAABbxBgYrFmzRrXwgJMN6sEbyvxFNJ2YNy8aYttiJKSznzGyDAhiIdL12LHWIgXjMtm9LZoijSX5Mz8oF08wxaLrjIjnkJknCjmOGcmR95lioiWFUolXUZXze+4TWrMRUSOa+OWUPtlP4YXky14W+YPZ1ercuprVm9DdckK5XCx8kZUUUrYEACxsEYcCn64FHx1rgdJaPwiFuvWraP777+fHnroobAtY+gvEAgdAllCLEKHOzoMBIBAHATgCmUBFPb7FbxUtHFvR3S58isrVFdXFy1evDiqBRKLIRAAAvmDQJa4QvkBaLSMEQgs9gNtlAkEvEYAxALEwk2m0j3BB7EInlj09PTQww8/TEuWLPF6mUB5QAAIZBkCeUwssgxpNAcIAIGkEACxALEAsUDwdlKLBh4GAkAg4wiAWGR8CNAAIAAE3BAAsQCxALEAscDqCASAQG4hAGKRW+OF1gKB0CAAYgFiAWIBYhGaBQ8dBQJ5ggCIRZ4MJLoBBPINARALEAsQCxCLfFvX0B8gkO8IgFjk+wijf0AgRxGYNGkSrV692rX1g4ODVFhY6Prb3r175ffDhw9P+l1+YWBggIqKipJ+F/XaIYs1RsA5cayClKuGhgaaOXNmQPdYKHcuOWZbxIWwCa1hnLDlGuqjF4hkSnTrJU7B3lQqErfIu5g6qHqDcVeWS5IX9XJdW4r2ydQ61EUiybyoR7ksV1TjbK9MaU+tNGQ0IiLVe7HIYm+/r8torb0spX3RLv3lFyPuqDKw1dLBd1RbSWtsKfLNdPQOHMy6YvSVKh0XC2vXA9S0811j7n1LaBjxUM4jUFFRQd3d3a79CPAei5zHER0AAkDAYwRgsbAARbpZCwtkhbJPtFiywU8mkwXLr3SzyWaFSolYCOW6krrE/wmFt73GUurl/VNNVCoU+alLxb1T4tLbjaV8LxPf3xSpOJv3NxHfTdUnOAqTCU1518oti0MsWKlvl4NU02+9a17gyz+oF/Uqw2ncsaXd32UnDM4LbG1SEIdYLNxikCKFBCn3XJnES7/Eyvo3310VhUQJnG19Mhsk+l9J1KUyO4/3BhSX3QjAYpHd44PWAYHQIgBiAWLhJvwgFvlCLOyn6gu3cL80BbhMXDxb1UG0ZYv4Ur+wVmi4VK49ZF1ia0KhEgQmEu1UoxKCplLa0F9GjfL7Gmov6aUWcePrxBjEQpIQvvxWsXyQSJvbI/jI0hgWCyZFVdQp/q/Ket+p+LsSizZqa6ulsl6Xel3amTixEMSgmahOJ1uRFgvlwmGVHEiM2OKRLLFgDgarRWg3btFxEIswjz76DgSyGAEQCxALEIt8jrHQiUUnUZXpkqONuKGcs1XBUIRbhMLNCjt/F6m42t2q+MS9vUY79Tf/ViwZ1u/RXaGiW03c78jSrAz8WxVRp3AFYouH/FMQmJRdoRgNJkp1tDJlVyiNGAgzinRRMgmTYbFo6aUSB/6WJaeFemMQi4K6lcoUdbGKqKQsi/caNM1bBEAsvMUTpQEBIOARAiAWIBYgFiEgFkLx7uWYBKmjarEHNmuBftqvWgAiiIXTAmD+W+jTuvVC/KHXoUuVVNRVtyaFFAirhBuxaGtro9raGK5QrKyXLyTdrmL2Z0Gv4jZkulS5a91RCU2Eu5MyO6L2X2krPyOITnN1B7WzJcZ0hXKzWAgsKpfS1C4eG7v1wcRe7ZNzosZqq0f7A4rJXgRALLJ3bNAyIBBqBEAsQCxALMJBLDjaQX4UEmFYJ1SLheGaFM9iYZ64Gy5AfCpvWA9kRYbrlONEXle+pZWB/3bGWNSRcNWKfopf025ZStT+9Jc12uIRVIuKU8ZVYuG03BiYRM4Lu/uX9Z49RoK/Z3cyaV1xjbHo1eJRWqupr3cqdekWI6tepZ4Y5CGlGJlQ73b51XkQi/waT/QGCOQNAiAWIBYgFiEgFuwKZZ7yx46xiE4s3LMXiWJNC4hTKdeU7/lU3fGIdBUy7AeqMi8Dtk13n3hZoSSLsWI7NGahWUxaiZp6jYBx5XsjDkQR9KhZofRYE0l4IlyXNAtLZAyKExfNrUqwIxux0Didw6KjW48WTNRdsfQ2qoHldlcoDn3Rsk8hxiJvtuGUOgJikRJseAkIAAG/EQCxALEAschnYuHxCmJkhcp3v35BLCqXataE7PwgK1R2jktwrYpJLB5//PGh8ePHe9qaN954g1asWEE33nijp+WiMCAABPILgSuuuEKuFdGUy/3228/1t3379snvhw0blvS7/MLOnTtp1KhRSb+Leu2QcfamaGMEnBPHKki5am5uplmzZgV0j4XX61Wk1cLrGlBefARgrYiPUb4/wYeCy5Ytc+1mwVVXXTW0//7709DQkHygoKDA9UG+wCfaZVT8wu7du2nEiBHy3U8++YTefPNNmjhRY9ux3vWyXmfDUa+FCHC2S0cy8gy5ij7305Wrww47jOrr613XHNzrYMGC9Kt2EfHyXge15DDgnC33WOS74oX+AYF8RiCmxUIoBpJRhGFBDdsGgv5S1NNUKCb2JS+ZC7YgV5ArQwYwj3JvHoFY5LO6h74BgWAQALFwwRlECieAI0eOjDoDoWhb0MByAMtBNHcnEAsQCwOBZG/eDkb9QS1AAAj4gQCIBYgFLFIOGYBClHsKESwlsJTAUuKuIiRzEAKLhR9qFsoEAuFCAMQCxALEAsSCYKGxhCAZRQyEBoQmnwgNiEW4FED0Fgj4gQCIBYgFiAWIBYiFIgMgFnB1c9tsw+AiC2Lhh5qFMoFAuBCISSx27dqVUPD24OAgFRYWRkVuYGCAioqKXH+P9W68hRz12iEFzhYekCsLC8wj+zzBuoF1A/uRJgPOudDQ0EAzZ87M0XSz4VLe0FsgkK0IVFRUUHd3t2vzCpAVyj1PPnzw7fKCE16c8Ib1hFftdzwCh3UD68a4ceNcN9tsSYLgl8Wiq6uLFi9eTGvXrs1WXQjtAgJAwCME4ArlAiQUBDsoUIigEGW7QgQFH7EOhgxgvUp9vfKLWKxbt47uv/9+euihhzxSXVAMEAAC2YoAiAWIBWIsHDIAxSR1xQQKPhR8KPju230uWHb9IhZIN5utKiDaBQS8RwDEAsQCxALEAsHbigzkggIIAgcC5weBA7HwXslCiUAgbAiAWIBYgFiAWIBYgFi47n3Z4vsPIhUMkQKxCJsKiP4CAe8RALEAsQCxALEAsQCxALEQCISdSIFYeK9koUQgEDYEYhKLPXv2JJRuNp5P+o4dO2jMmDGu2O7evZtGjBjh+lu6QdSo14IVOFtYQK7s0w3z144H1g2sG24bUhjWjTlz5tCMGTOQbjZsmiD6CwQ8RICJxZo1a1xLLACxSC3dLBQTKCZhVUy8dFnBPMI8wjyitC3Kycyj3CcWu+jDdz+lg484hA5wCM+nH39Iuz4zmg5x/pDic7s+/JBo9Gj6DL//6cf07icH0BGj5b98+Xz68bv0yQFHkFbFp/Txu5/QAUfo9es17vpwG324S7jNHXwYHRGvo0Yr2yqppLeF+ssatf8u6KXKgjqi1iHqqtUeaqssod6WZuorr6OVtt4VU/2GflowUf2yTb5vPWc909NQQuULtygPa79NXer4vrieNvQvoInUQw0l5dRRvUG0S6uEy2gs6zfbJr6gksYy6u8iqizppRb5nmy1ox38nVt7jf5xP7i+RioTheld92Us873QmMQC91ikRiwQ/GlNm7C7FqgLSLonnpAryJXbhgS5sqMSzwKHeRR9HuWSK9RbD3yb5h/6NN13gTL+799HXxv/O7rmkydI/VpTSCtp6dQuhxIcOaMSfa6tspJI3M8hFdC136UjbxhLq19touN80hrXfvdIumHsanq1iWtwV4C3/PYBWvuru+mOolZTEY/dHFFO5VKa2iWUcYNg6MRipancq4q3RDKO8i0UelXBZ8W/vI+ah7qozEkK9MZFkAWj0ZI09NGEjaUmYUicWJiFxGivRlwWblEIh6izculU6rKzJZ9GNT+LRYyFy7hio8ZGPXLkyKgzHooJFHwo+OmfpGMeZd88Cp5Y7KLXn15K63YQHTnpUvrW+ANox7p2evr1nUSjjqVvVZ1GRx6whX772z00vvBV6t50CE269Fu0/wsP0KOLfkCdR/6Qvncy0RfOvJy+fujL1PHkq/QxfYHOvPzr4mxa++x6/WlaKip4p+NR+t8FzwtisYPWtT9NWhXfoqrTjpTWjcjn3Gb5p/TO7ztFO3bSurufoq+9JojFlt/SA2u3Eh1yIl1QfRIdKl+znhONo8u/Xkx/ffm3tGXsWHq3ex3tOv7bVHOycA/f9To9vXQdCWdxOnnqt+n4z/yVXv7tFho79l3qXreLjv92DfFjkjDIKi6g6pO4Bk25L1lxBQ1TnpNVmwRBNyMYdZh4Kv1Sn1WJhSAGNdUd1ESdkqBoFgvDMpEkseDW6oSipddhbYhDLNoqC6i9Zohq2q36PSUWPW3CriGoYWMy/ctPMuBlr0AsQCzSNrVDQcg+BUEVaxBlEGUQZUsGsF5FX6+CJRafUte0Y+lHJ/2KHhbmhbc/OoZOE0rzlnVr6X8PK6GdD1bR5Xtbqff2V6iy8EYaec8amrfnepq5fQn97toD6flbKmjR+P8i8Rh9ZvTnafR+wh1p+zq6reJeOu1N3ZLQczOdeuNnafEvLqC3b6mj/76BicUWWrf2f+mwkp3i3ctpb2sv3b7H7blI5eCvj19IlWtr6ec/+CItr2mgo18S9ez6kLZ92EYzz3yfFhtuOM/OoGMfq6Rnb/tXbhx9XvgvsUL8b6vOpmXtU+i/aubS4SsfpT0Xnk8f/rCLrqUfU+UPRtNT68+hnx97Cq0+72l66ptP0Vn3nkabll9M0sWpbSad+f5i3RLByv2/0aqzl1H7lP+imrmH08oX59DnIohFD938lUY67MGf0Neeu4Iu2NhEm+49xeyYTUl3EIuW/qm0VHcLEiYIz4iFzRVKt4qIzthcpCZLNyx2ZWqnGmHpqBVtK2ivoSHhm+UpsdCRsBMnp4XGS5U7HGWBWIBYgFg4ZACuFHZAoIiBOLpthyCs+UdYgyUWj9OUkvXU2L+YvqxAuWPdYmpe9CK9/8nrtPWkZfQKu+YYrjXCTeXYeV+Syra7+4z9NF19xnJxEhaLxc206MX36ZPXt9JJy16RPv6G334sVyhVAbW5QrE/v+r+s6ONpnzpVvqf866klu9fTacdeYCtvbJdxbPpb52foTXPzhQWk7/SvafX0SHPt1Cv6eMvyjx2Ey3cdLvmXmWzRKj9dFgQ1Of+fDMd+41nqfSrTDneopf6zqI1RnmySIUwRBALzT2KFfpWYbtIx2Jh1KPirM4e17HkuuvUiI7JIuxDIxlaLIhukXFrt21qxrOwRBKJqK5Z4eAFafcSxALEAsQCxALpZhUZAJECkQorkQqWWHTRtMNbqfpNQTCMgOq//ozO+Pq7dN+622jCa9fTWU9Mp2cdxEIL1HU5uZaDZlci/3zzsTS7+DV6dubH9OBZ36LNC1+hm146g77+7n207rYJ9Nr1Z9ET05+l6U9EPufmYv/4lBJa39hPi0/4E10/YR59yQzydRAL2RYRYP3/fkWXVTxFF723nI5V4guem3USdUydTW/O3kI/fmUulZAo74QldOZr9fSCSixUshKVWDxHs07qoOkv30vSFqE+99Yd9KXag+i3z1+tu2jZJTu2xUILgmZ3pLqVatBzPEXdiYVleUg8xoLrEKaoTisw3GxrmYi7kD9Z7WN3KWnhsAVvG32N195IYuG0YKStaYesABALEAsQCxALEAsQC9etD8kXLFjCYKEJllgQ7WibQl+69X/oK2UC56/8kp6s3yGIQC2tP/ELNLTpDRqs7IqwWBjE4tM/NdBJF71Ax5z4T1R2RTfNG7WQLli8ml5/9s/0T2d9lS68/kmqH3cnnXp2Jx1U9Bkavv+ndPw9whXqH7OpuHY9nfiFIdr0xiBVdr1CC0a5PGfLdKTJwaddM+j4xvfpqM+MoH3/+D+6TMRYnN7+PZr9xEv00rN/o+POOosuX3I31fz3HKpYupX+mT6ibf9bQ4+v+k/aKYhFxcp/oa8f+Qm9d1Q9rfjFZHrr5q/Q1LXFVPzpJjrout/RE7XblUBjQ1G+ijZ+bzY98dJL9OzfjqOzzrqcltx9ArWd+HVaOvYUOvKT9+io+hX0iym7qT3iubPote+cRg1vHEvH/jPRoWffRg9croSXx4ixMLMryeDrDqo2sz/FsJZIlJLJCkXEbk8RsRdcp0IeNM5ofdcryY4+Nye3ShepyHp1C0fcYPNkg9NDxhJS6G5MYrFr1y55j8XevXtl0cOHD3etYnBwkAoLC6NWPzAwQEVFRUm/i3rtkAFnOx6QKwuPWLKBeYR5hPXZkgGsG9HXjYaGBpo5cybusUhBmYr3Sna61yhZoeJ1wPX3dN9PqVJ/X0JWqLTxraiooO7ubtdyCpBuFulmWTIQc2CfH3CVsfDAibaFRRhOtNWZgP7a14V8WCeDtlikrcH4VcBffkJTLnyA3lTLP/pyemL5VfTFFOv88w9PoQXj/0CPOPPgplieZ685YxY8KzgXC4rvNpWLvQq6zXCFckEcG2b+bZhQiMSlSfuBKIMoRy54IMogygYCIBZBq2CoDwjkHwIgFiAWiLFwyEA+nDyCSIFIGTIAeYbFcdy4ca7ai1M2QCzyT8lDj4BA0AiAWIBYgFiAWCB4W5EBnODjBN9tIw6DJRvEImgVDPUBgfxDAMQCxALEAsQCxALEIqETbVjC8tsSBmKRf0oeegQEgkYAxALEAsQCxALEAsQCxEIgEPZkBCAWQatgqA8I5B8CIBYgFiAWIBYgFiAWIBYgFgRikX9KHnoEBIJGICax2L59u7zHYt++fbJdw4YNc20f+55GyzjDL+zcuZNGjRqV9Luo1w4ZcLbjAbmy8IglG5hHmEdYny0ZwLoRfd1obm6mWbNm4R6LoDUx1AcE8giB008/nZYtW+baI9xjgfScUjCQVcY+PxDca+ERdtcRVTLCENyL/iLGIhX9p7+/n37961/T1VdfncrreAcIAIEcQgCuUC6DBQXBDgqIBYhFoukqoXjmt+KJ8c3v8fXLFSqHdCI0FQgAgTQRALEAsUCMhUMGQKRApECkNBmARcqaC2E4cAKxSFOjwutAAAgQiAWIBYgFiAWCtxUZgKubBQaIBYgF9CQgAASAQDIIgFiAWIBYgFiAWIBYuO4bIBYgFskoFHgWCAABIABiAWIBYgFiAWIBYgFiAdcv39LNQtUCAkAgPAjEJBa7du2S6Wbj+ZYODg5SYWFhVNQGBgaoqKjI9fdY76JeO2TA2Y4H5MrCA/Mo8ZNlzCPMI+xHmgw450JDQwPNnDnT83Sz4VGp0FMgAAQqKiqou7vbFQikm0W6WSkYCGa2zw/44Ft4wFUmcUKDeYR5lO1JAebNm0fbtm2jQw45JK52NDQ0RAUFBVGf27t3Lw0fPtz193jvxqo83ruo10IvHlbAOXGsIFeJY/Xmm2/S8uXLQaiAPewAAADpSURBVCxUBOJZSqAgQEHIdgUB8pzfaUExvhhfQwa83I/48sC//OUvsmhWpPgTjRz4ZflDvfb9FTjb8UjVUwFyFZxcjR07lo488kgQC2zU2Kj92KghV5AryJX7uSgsf7D8uUkGDvbsqHhJHLEfYT/K9H4EVyi4QkkZxMIGCw0sNJoMwPXLmgtQAKEAjhw50p01im9BHEEcQRzjxyiHTb8CsQCxiKtM8QPYQLCBYAPBBuKUgbBtmOgvDmBwAIMDGOc6iAMYOyIgFiAWIBYuGjOIFIgUiBSIFIjU/yJNtSIE2BewL2BfiL8v/H+QDfJn3Vz3RAAAAABJRU5ErkJggg==;" vertex="1" parent="1">
          <mxGeometry x="1540" y="40" width="905.74" height="599.62" as="geometry" />
        </mxCell>
        <mxCell id="MDVyfrV4ghfDJYjMpp-2-3" value="" style="shape=image;verticalLabelPosition=bottom;labelBackgroundColor=default;verticalAlign=top;aspect=fixed;imageAspect=0;image=data:image/png,iVBORw0KGgoAAAANSUhEUgAAAjQAAAKFCAYAAADbHXPTAAAgAElEQVR4Xuy9DfReVXXnfxyVV9EYkDdtCCkQCdWGaHUMqxpToTHTpSn2JQYzJMpfs+osbNIFRmtRrEoMM0QZbaN1/EGjMe2MFJ1OoGDTaBexOppQHNEADQnKm7wYkFdxxv/9XtmP+7ezzzn33uc+z+8+v9/3rsUiv+e595x9Pufte/fe97nPOOWUU34eeJAACZAACZAACZDACBN4BgXNCPceTScBEiABEiABEigJUNBwIJAACZAACZAACYw8AQqake9CNoAESIAESIAESICChmOABEiABEiABEhg5AlQ0Ix8F7IBJEACJEACJEACFDQcAyRAAiRAAiRAAiNPgIJm5LuQDSABEiABEiABEqCg4RggARIgARIgARIYeQIUNCPfhWwACZAACZAACZAABQ3HAAmQAAmQAAmQwMgToKAZ+S5kA0iABEiABEiABChoOAZIgARIgARIgARGngAFzch3IRswqgQuu+yysHDhQtf8L3/5y+Giiy4KF154YVi2bFl5zgUXXBCuv/76cedfccUVYe7cueHxxx8Pr3rVq8rvzjzzzHDppZeW/8bnKEdfJ9/ra3ShH/zgB8Nv/MZvhOOOO678eP/+/WHnzp1lmXfffXfw6pTrcQ3sPPXUU3vXo559+/aFq6++OmzZsmWc/fj7xS9+cfnZjTfeGFasWOF+LzwsLH393r17w5IlSw7gmWN4+umnh7GxsfI6XU+sf1DPnj17ejy8Dqxi19KlS8PatWsPuByM77333vDxj3887Nq1a1SHN+0mgaEToKAZOnJWSAK/IIANfubMmS4O2Vj1prpu3boDBIEuA8IGh92Iv//97wdsnnLojVSuwXcQI5/97Gd7QsQatm3btrBmzZpxduvrIZQghg499NBoF0sZcgJEjD6saJP22evE3muuuWbc9StXrjxABOQYah66nlT/oFJPLDa1KwZs8+bNYf369ZwyJEACFQhQ0FSAxFNIYBAEPDFi68ltxilBA8/KwQcfXAoMvdHHBI0uCxu7eGQgVN72treFu+66KypoIIa+8IUvhGnTppUb/d/93d/1NmLUd+655/aEkhZmImjglUAZ1kuTEjTiecG1qBft9Dw5OYZVBI0IN3hzli9f3vOsgfGb3/zm0nMlRz92gQHK/93f/d2eMPQ8c4MYjyyTBEadAAXNqPcg7R9ZAoMWNACzY8eOMH/+/HFCwRM0OkzlhX40ZM9ueGbe8IY3lKd5XgVdvvYYiaARO3G9Fl8pQSNhHYiYGTNmlKE3CIvXv/7148ZEm4JGCk61tw276vTHyE4AGk4CLROgoGkZKIsjgaoEhiFoIA6QHwKvydlnn11u+J6g0Zt+ziPg2V2lLQgPwQOhc3dE0MAjNH369FKUeGEfG3JCORJuQhshACTXyIadBiFo0Mdf//rXSy+KFmht2iXCKJbrVHWc8TwSmCoEKGimSk+znZ0jUEUE5DbjXA4NBIIk8Yoo8ARNFVsEoHfu9u3by7BPLDEX13rXaUGzadOmA8RXzEMjYR2EfBYsWFAKJRE48Pb80R/9Ua+/cwzrhJw8T5Vuc5t2abt1rlLnBjINIoGOEKCg6UhH0IypRyCVdCpektxmXEXQyFM8cqc/CEEjwqQfQYOEYxFfkgsTEzTi7dHiRTwaInJkROUYtilo2rSLgmbqrQlscX8EKGj648erSaAxgWEJGhgoQgH5LXfccUfvcWG58+/XQyPhl34FjYgvESWeoNGPWevwmM5r0Z8PS9C0bRcFTeOpxQunKAEKmina8Wz2xBOoIiJWrVoV8B+OJo9t66dzkEuDHJorr7zyAEHzF3/xF2XyMI5+cmhS+R4SltKJuzrkBA+NFl8bN24MixYtKh9t1zk0WrjEelF7bgYlaGwOTdt2MYdm4ucoLRgtAhQ0o9VftHYSEagiaHQ4xHsk2ctdid3ZS30oR55IEsGjhVOTp5y0IPKEl26HFhueoJFzkWx7yCGHHCBoJKyTGgo67DQIQeM95dSmXXzKaRJNdDZlaAQoaIaGmhWRwHgCVQQNrhBPALwf8K7Ac4Ek2EsuuaR8KgiHflQ6JmhEKGCzRwIvDp1sKuIIn9vfoTnnnHPCgw8+GP0dGh1u0XaiLIgl/A4NngjCd0jYlV/A9QQNrhE2Yqt4aHQ93uPh3tNabQoa73dokJTcll3e79B4PxbIuUQCJHAgAQoajgoSmCACVQWN9p54ptrfXknlXti8nTq/9Jv7pWD9igHPTogZ/Jy/fv1BTNDY1wJI3dozgt+b0T9ohzq1Z0M8QalXTKDcb37zm70QXJ1fCobY+vCHP1y+VqJtu9AW+wOFEzRMWS0JjAwBCpqR6SoaOtkISJimyu+MyK/1nnDCCb1fkMVm/k//9E8H/DS+CAuvXP16Au97eBre9a53lWEe8eKgnttvvz38+Z//efZdThAikvci12PjR7Kw924i8Qp54TRJZEa/y/eSV5JKPrZhuNg7k8QTJY+L63rw79S7nG666abwl3/5lz1B1aZdwvuv/uqv+C6nyTbp2Z6BEqCgGSheFk4CJEACJEACJDAMAhQ0w6DMOkiABEiABEiABAZKgIJmoHhZOAmQAAmQAAmQwDAIUNAMgzLrIAESIAESIAESGCgBCpqB4mXhJEACJEACJEACwyBAQTMMyqyDBEiABEiABEhgoAQoaAaKl4WTAAmQAAmQAAkMgwAFzTAosw4SIAESIAESIIGBEqCgGSheFk4CJEACJEACJDAMAhQ0w6DMOkiABEiABEiABAZKgIJmoHhZOAmQAAmQAAmQwDAIUNAMgzLrIAESIAESIAESGCgBCpqB4mXhJEACJEACJEACwyBAQTMMyqyDBEiABEiABEhgoAQoaAaKl4WTAAmQAAmQAAkMgwAFzTAosw4SIAESIAESIIGBEqCgGSheFk4CJEACJEACJDAMAhQ0w6DMOkiABEiABEiABAZKgIJmoHhZOAmQAAmQAAmQwDAIUNAMgzLrIAESIAESIAESGCiBzgia0067ZaANZeH9E/jud0/pvxCWQAIkQAIkQAIDIEBBMwCok7VICprJ2rNsFwmQAAmMPgEKmtHvw6G1gIJmaKhZEQmQAAmQQE0CFDQ1gU3l0ylopnLvs+0kQAIk0G0CFDTd7p9OWUdB06nuoDEkQAIkQAKKwMgKmtWrt4SXv/wN4Wtf+1z41Kfezk4dEIF3vOPT4dWvfkvJ+fzz//OAamGxJEACJEACJNAfgUaC5oorrghz584NK1euDLt27erPgqevxlNOl156Yzj++F8+SfPkk4+Fffv+NXzykyvD/fff0avnqKNmhPXrd4ZHHnmg2GRnV6r/la88uzj3c2V5733vqypdU+cksenggw/rXfaTnzwQdu++IWzYsDRZ1Gc/e3/5/VvfelSdKt1zP/KRr4cTTvj1cPnlbwnf+MZVfZcnwvFb3/pyOO+8i/oujwWQAAmQAAmQwCAI1BY027dvD9OmTSttaVvQfP7zj7ltvOuuW8IFF8ztfQevAQTKRz/6hkIw7KjEZdCC5qyzVoVzz73MtQViICVqKGgqdSFPIgESIAESIIEogVqCBp6ZmTNnho0bN4a1a9cOTNBceeWacN11G8Py5ZeGRYveWRp/zjm/9Hx0sT+1oBFb3//+fwynnPKqYAVZF+2P2UQPzSj1Fm0lARIggalLoJagEUxLly4diqCRzVQEDQTOb/zGG8KRR/5KaQpCOjfcsCVs2nRB+feb3vSn4cwzV4UjjjhyXI9CIOGAB0XEhc7BOemkV5ShLlterj5diRU0CEGtWfM3ZfhH6pSQ2rXXfjK89rUrwz333FqGv8QzBSEk5dx001fCIYccXgoihN7giYJHSg7YP3v2GWVbH3jgB0UZ7ylDTFKHiEKUjTDbffftCy95yesCQmL4+7LL/rAM44mdxx57cvkdDv09Bc3UXRzYchIgARIYJQKdFDQWIDZ3bOY2x0bOe9e7XlyInBeFiy76iss+JWjsBRAPksuSqk/n9KCMVMjpqqs+HL74xQ8fYL8IHU/QeA2RvBhJ1NXnWNGkBY1X1i23fD1cfPFvRe0W5hQ0ozSdaSsJkAAJTF0CnRY0NqkWHhNsxPBEwLPwoQ/dUHootGCRjVrCVfIUlAgO66GBdwNJxzje/e4vl14KHfKK1YeQWMxDI5+j7K9+9a9LMYNDBJKIBbQBwsgTNBBWW7a8L+zcubW0Cx4kycW5/PLdpZdK/kbbXvWq3y8FiuehQd3SJhFDItxmz54fXvGK3w3XXPNfS1vke8uJScFTd5Fgy0mABEhgFAh0UtDI5msBIqT07//97497Eko26337bnI9NFJWTNDohF0rBlL1pQRNLN/Hli/t8wSNzrvRXhIkF+vzLaOYoNE26eshqt75zrFw3HGnjAvVUdCMwvSljSRAAiRAAkJgZAQNPAkIKcFrs2rVrxT5I/PLjRieCogWCBp4MnDAywIPxHe+85Xe00V1BY0IpFh9EyloNm78QSk+tIdmwYJzy3ycuh4aSVxGXg9ykeih4eJAAiRAAiQwigRaFTTy+zT4jZq6B36HRjwHnodGBI1XLs4/7bQF5Q/tSb6KPa+poInVN5GCRidLi311c2gk7CWCxraTHpq6I5jnkwAJkAAJTCSBWoJGBIs1eN26dUW+x5bQr6DB77HAuxL7UTj5/Rmcg/yURx55sHyKSHto8B02Yzn+5V/+e5nDUkfQ6ORb/H6NV58VNPI7Nzqp2HLqN+SkfxUZ3iiIPLEt9ZQT7IA3R55yQl6Q/FghyjjvvL8ow3jyNNVLX/q6A54GYw7NRE5T1k0CJEACJJAjUEvQ5Arr53t4aPo5xNOATf/223eWIRl5hPuDH3xd5R/g68eGLl6byrepay/f5VSXGM8nARIgARIYFoFJI2hij1jD63DhhfPGvTphWHC7UA8FTRd6gTaQAAmQAAkMmsCkETQI+bzxjReUISg58ANxX/rSpa2802jQHTGo8iFoUmGwOvXSQ1OHFs8lARIgARIYJoFJI2iGCW2q1kVBM1V7nu0mARIgge4T6Iyg6T4qWkgCJEACJEACJNBVAhQ0Xe0Z2kUCJEACJEACJFCZAAVNZVQ8kQRIgARIgARIoKsEKGi62jO0iwRIgARIgARIoDIBCprKqHgiCZAACZAACZBAVwlQ0HS1Z2gXCZAACZAACZBAZQIUNJVR8UQSIAESIAESIIGuEpjygmbp0qVh7dq1YeXKlWHXrl2d7Kcbb7wxyPuyOmngFDEK/bB58+awfv36TrZ4EOPk9NNPD2NjYxx/nexxGjUsAldffXXYv39/WLFiRV9VXnbZZWH69Ol9l9OXEQ0uHsTa0sCM7CWdEjR4ueW0adPCkiVLsoa3dQIG6p49e8KaNWsqFXnhhReGZcuWDVUA9TOYcO22bdsqt6/q+ZiYCxcuDE3erF4JdMdOQntnzZo11LFZF0E/4yRWFwVN3V4Y3fO3b98e9u7dW3mzxdqJI7dey01jl2/KUjbKmt/GWgfGGzduLF/m/PrnPCd87LjjwuM//3mYe9ttBwycE5797PBnRx8dTj3ooHDUs55Vfr/vpz8N1zzySNjwwAPjzo+d++0nngjvuffe8tzNL3pReNmhh4ZNhTD70H33hTcXe+0HXvCC8rt/KMo8/+67e2VePWNGOPXgg8PsW28tPxuF9Q92TmlBg0G8atWqsGDBgsqrEAXNL1B1XdC0vbmjvC578dAnbbcZZbYlaAZhW+VJyxMrEaCgWet6IrUIqQQycpLdb7SgEOEgl0KgfOmEE8Khz3iGW9pVDz/cEyoQRpcce2z03A8U4uULhYgRkSLXXnLMMeHs5z63LB+i6o379oV9Tz1V/m0FjQi+NkRdPwxz105pQZOD05XvuRnU74mpyGwQbaagqT/2eAUJeAQQgcAhYauUoPnMC18YfvOww8L9P/tZ+MSPf1wKEvHC4HMcZxXeNAiQ6wrhc0LhxYH3Zuyhh8pzcZz3/OeH3zniiPA3hfhJCRpch+u1SLKCBuVB2G3durWzIXfYODKCRhZWGSipMIqAX7x4cRnCwmHPFw+DlGfvvrE52AMuUxw650YGKT4X9Yprday1ju0oR9eNnA2EuLS7VrxEYl8qrwMsdu7cWYactFsVbZBDq259Pr63tktdnhsWLHRZuVCXPh/xae0pgx3Sd7BDtz/FXNqo+05sTvWDuFRhB9ogfWjLy+XQ6L7T7bfleO3FYqHHbJ26qowThBN0eMD2l+eBEmZSvnC14YNY36f6w451/K1tkHAwQn0zZ85057HtUzv3dH/o9qNsjC/PO+uJOHuHWsW2XJ/rMRqbm7ZP9LzQ7ZHrpZ/0+NIMLB9tg80TEYGs1wo7D22KgDf+PZ6p9VfWb6x7du6LvZZtaq7ZdcgbE56Ndp3VvPX5mk/Ki2vX1pSgufGkk0qPy6X33x8+Uwgafejv7iwEjYSttIflgM2r+CDmoUG46dWHH15e8va77grffOyxAzw0+C6WRxS76ZmInMOREDQAtmHDht7ik4vJyqSXyacnOxI6MZlwSN4MFmMsmLK4eRNbNhebRCwLuUwavQGgria2YzGSjQe2wDZpiw155e6gPUGjFzsbB9fn27bIBoQN3woay1CujYkae77uE+v6lrqEQY652KkX31w/yAKrF3z0Nf6TvsiFG23+EdqxevXqMHv27FIEa3vshmrHbK4unF9nnICJvqaqC1kLBhGrwkoW7yp973mPLC9brox9O/eEozc+9fi1d8R28+5X0GBexmzz1qiUiJLz9dyUcS7cZTzJwwuan3e9nq/4t8crJ2i0yLRhZpvzGBv/KEMnlufWXzsXvM055i3wuOuNNTYm7DrqzT89f7x5YeeBtdtu8ClBs/vkk8vLxQszrp+ezm+BR+XR//f/wvJCmH/vySfDkjvuKE+Ta+WaPy5yY5B3ExM0KOdHhSdoVZGs/M+FmDnvzjtdQZPKcbV7Zpt5R17/xz4bCUHjGZ9Sf1YJp9QlvrPw7eKrE4c9QWPvUrz6dRtitqeUriziXhJzKgPfEzT6LgKLy7x583piTp9vv9Nt0MxidqcmQIxBbCLYjSrHvEr4RduQaqu0OyUeUxPY6x87jmKeMS+Rsso48cagtjF3U5Brs7C7/vrr3aegvM1OtyXGW/eJx832mU3U1uXmNpjYoljVQ2OfesnZnnqi0vsud7Oi+VR9WjO1NqVu5MAqtfalxn+uHfba3PoJW+xNj/SlJ1j0WIyNCWtjbv6kPDqxPBO7JlURNDa3ptzLlKDB38iDSQmaXA6NhJpuOPHEMvl4eSFo3nvUUeOSglFPKjHYu8HFNf0+FVZHzODckRE01kUJ42MueW8w2oFuQxooT98JSZjG3tVUETRWdFS1PbYo6Yng2Q3bY67knKDBQESYQ7xTVtDEnuzxBI11t6ZEQkxwWHtkQOvF1hNKlrlXfqofYrbaUArs8URGzO5yAXKepKuygMYYVR0nNt5tr9Nu+9j4iW1GcocsgibX97YtscVRjz9P0Og7c69vwNvzcsT6zVswmwoabVuVPtd1V+lTL3wn/Ra73oZNUGfMa5oTNMJFe+bkxiI1/j2eVdff1Iamy5C1W7x69jodLtLjxnr75G/PA6QZo3z7cwY5r2cTQWNDTjpZGEIFB55Uskm9+Fw8NVUFzeojjyy9NBA4eMJJP+WE8nJPOmlBX+WGsq5YqXL+SAgaT/3346HJucfsZPPis96k1puvPApex3a7YEh5enDUfcy8X0GjvTd6QHXNQ5MTNLl+8ASN/WyYHhoRqSkPjZf3pRdkEeXSb6m7aBsukGty8fFhe2j0RpNbYL3xWvVJNbsgezk01kNjBY39vh8Pze7duw/YQHMeGq++fjw0OUGDnBfPO2HHUJX1147d1GamvS6pMKMtQ4eVrEBp4qGpImj0TXjKQyNeGCTsvq8QLshreUWRDPz2ItEXScH6UW/JqcG5eJwb4SUIn+uezjurKmjKm6/C+zPzoIPCj4rcHCQKaw9RyuOuBc+OHTvG3SRXESJtnTMSgsbGbmUgpjw0uHOwOTR6sde/tyCqHpNRJl/MbVjXQ9PEdm2biCuxve7j0v0ImliOArw5dnO0+QG5eL11/aK8Y4tHD5HXhM1EewxsPLuqh0aPj1w/eILGy/PBb+/Efk/DigIwufjii8OZZ555QGJ3KnfJE7J2wluXe2yc6A085qZH2d4dKT5P5dDou2KdjxLLvdL94eVY2T7KeWiqhs3QDk+QxHJohIeeh+hbHLrNKUFj877KzSLxuy2xHBrJ7bNtFX4pD42dN1LGIDw0IsB12TL+PbEQW3+FfR1Bo4VtLvdMzyM9JqzosvlcdkxU8eJ5c1a3SwsafS5+J+bbjz9eJvvGDu25wdNMFxQhothRR9BYm7SgSaU26LUC86JO/7UlZlBO5wSNFRIyYbUrEZ9hosceIZNNHN4FeVLGW0wFJCah/pE4LzQhE7WuoJGFTJ7SyNmuNxBci80Tv5UjP8aEzzz7YptsP4JGbwTCKvWUk/Vs5Z7S0X2qwwSWAerWG3MVQaMZiR2pMRQLOek2yTiJsbZ268Xd9pl94si7I0y5bauMExuS0SLR2pMLOdmnnFJP36C/bN97/eGFUPT8zwkab3ziM+Fux2MqKdsuqtY2XIvE7qqCxpunts+9zdVy1jw0Q8wXlIcDeQox748eA3J+7IdE+wk56Q1Nr6u4QbGbvzdP9Pqb8iJ59eAzzckLs8l4jI0JT6Ck5k8TQWPXLe1F0WNBfvgOvy+DhN85hxzS+40ZCJ3/WXhg5NFsuU68Ny8vfjhPfrsGHpvvF//JD+bZH9Z7XxGqQvlSn5Qlj4zbH/xLRUXkWlljq3pC7bzr9+9OCZp+GyPX5yZEqh7PbVg14a4t+1kOCZDA1CLANWby9/dEPfnTBtmq4zMXlmrDllQZFDSGjpfcNsoDcdADiOWTAAn0T6DqhtF/TSxhIglMVLJsv22umq9WxYvTry0UNDUJek9PTJQLrabpPJ0ESGAECVDQjGCnNTC5qjBoUPRAL0HUQ6c9eJV14cZ/UnpoBtqzLJwESIAESIAESKBzBChoOtclNIgESIAESIAESKAuAQqausR4PgmQAAmQAAmQQOcIUNB0rktoEAmQAAmQAAmQQF0CFDR1ifF8EiABEiABEiCBzhGgoOlcl9AgEiABEiABEiCBugQoaOoS4/kkQAIkQAIkQAKdI0BB07kuoUEkQAIkQAIkQAJ1CVDQ1CXG80mABEiABEiABDpHgIKmc11Cg1IE8CvODz74YPlWbh6/IOC9f6wNNoP65c9+3rXWRrtYBgmMMoF+50+/13eZHQVNl3unT9tkQ5pMr23Au0KkPd7bavGG2K89+mj4L/ffH/Y99VSIvdH2e08+GZbccUeP8CXHHBNeVrzV9oSDDio/u/9nPwvfK95U++c/+lFZjryZFm+7XfbDH5bnnPf854c/eO5zy2ukXrzZ9uoZM8KpBx/s9p7Ue90JJ/TqkhNR9scKsfbNxx7rXYs6fueII3rloZ5vFed9+sc/Hnce3nIbe4tyahjJW4P1287l/FEWNFi08XZpvIm6Kwf68oKjjhpnDsbZNcXbkz903329MWXPwRdXPfxweM+995bnYEz/2dFHh1OLcXfUs55VfoY3K3/7iSd659g3K+McjPFXH3ZYeQ3q/R9FmRseeCA7Xt9VjOnrZs4cZ7edZ/Jl1fHalT4ZNTu8dw3WbQMFTV1iAzx/VF/uNUAk0aKrChrZ1LoufNCe+fPnhyVLlpRtfvO0aeEDL3iB2/5/LkTBeXfeGT1HhAU2h786/vgDxIUUKhsJNoOzC/Ei18Xq/kCxMf1hcV5O0Ow++WTXbmw0Z9x+e/md1OmdiA3ljfv2lWILR9N3xOC66dOnh7lz54Z169aFLVu29KqjoGl31qb6c2MhZCEuYufIOHz9c54TLjn22HDoM57hGofx94X9+3sixY5fe9HsW2/NCpq/KYRPbp7VHa/tkp340gblJbUtq/JOpRwNCpocoSF+T0HTPuxRETTWC6FFBRZmvah6wkPO0QQvP+648NvFJgGBcGXh9cCmggMbx5ue97xwXyEwcGdsBY38LcLpFcWd7x8XwuB/Fnfb2FDkEOFi65bPZQOybUF5m174wrKYfyjKFI8Tznt3cZePDQ2fwyOEo2kfygK5aNGishzt0RhlQdP+LOm/RDuGIKZLz+Chh/Y8MPYcW6t49uCRGXvood5YE88IxIcnaMRrKMIJ42hlMb7PKkSxPrzxWmWe1R2v/dPsVgnDEjRttJqCpg2KFcvApjVTuTc3b94c1q9f38sT0MXgu+uvvz6MjY0F/HvZsmXl17jbxGHfmr1t27Zo7oVslrNmzerVD/GkF3gZtGKD2CZ14f/TioUC9ktdsinINfYuWD6XDalKO6wnBXbaA/XgWLt2bS9EY+2Hjffcc0+Pm7Zx9+7dUa6YEGgnDrj1xWMi5UsbJIwBL8DChQt7JmoGqe9sm+yr6asstN45utwbTzqpFAciLGLD1G40EoKCEPpoEd7SIia3QeD7nKCR8rFx2U0n9p3lk5tyehH2FuScoLFzVeYd6k19ZxdUGftib27epcaP2ID6Mf70/LXzRM8jrBVySBk5O6rMf90H/QoaiOyPFQLceue8fhYBIx4aCUFhPL2v8OLosGZuvFaZZ03Ga2x82jVTc059Z8vDONu6dWtYvHhxb73C2JlRhIRlr9Drlx5/uiw9Trw1FOfq9Q1/45rZs2eX669dD/G9Hot6nElIaefOnWWZYp+dI6m9DOXbvU+3gYImtzK29D0WIRzeBglRIwNBL2i6o/WCig6FsFiwYEF5nZwXGwiyAMvksedjIOM/sc2Gc2QA6fJxzpw5c3qLqmze2k5BV7UddpOxC7fe1GTyyWCWCS4sbd160MfsQRmrV68Ou3bt6vWHtFnq0/kYKc+B5WHt1cNKynbbbeQAACAASURBVNF9Hwv7YMF/TyHUkJuQCg3tL7wv2CBwiAfF5r9sKjZF5Dd4m5EOVSFUNFac+5nCy5PbIPB9LORkQw/aCyPlxkRa3YVKNnHZ9K0gSgmaVCzfzmP087x583pzUduphbyMS/29jAnpd5y/YcOGsiw7fvR88+aFnptyrYx5O3+tXU3mv10WY+EkiIz/7667yvBh7ByMTxENOv/LjqM/Ljx2GPdW0NhQFcr4VBHmwrm58VplnonddcZrbNuIeeHtmuutCbpMufGSsSN9rEUM6tLjwv5tx0lsDfVuCLz1UPYw2QPsOJM2ahv1mMf1dk5Yjnbvs/O47jrR0vY+lGI6kxQc28y8hckTNLnPQBMdDc+CiBJN2LujS51vJ1PqXKmn7obtCTj5TISXnfw6LOMJGi9R0hMducVC2qS5ee3zNiy51lscYpPNszG20IooQD0pQYPvJTcgJmhiOTS4FiGDVUWYSRIt8ZkIIGljLuSkx6CEr/CZbBA6GTQnaOomBtuxY8dwTtDgLtd6C6uMJd3HXu6PFkCpeZVamPW4tIJKOGoB59WTKr/J/PfEihbfut/t6o/x6YWjrKCJ5dCgPISF3l4kJr+8CHFJDo4IoNR4rTLPmozX2A5nRYVea2ziu7du6/UFng55ItITHVrUVxknsWTzlKDJ5SbqcZbzinpj13L0BKEe6xQ0sZHX4uexGKRdaGxneRtvzCsQG7Bohjcx7GJr3Xi4Tqt/TyxZ1zuu8QZ4qh0eZhE0qbtdT2DocJG9S/A8NDZEZl2usE1cpjHBpr099u7Ia5vnRcsJGiz4q488shQYOJYXCcFwq+dCTjb001s8n35SKSVotO2fKfJdfrPYMOzTUzlBgw0IniJJ9LQeGi/kFMuzqCNorOtet0XGQW5x1WVYL53XrzKW9Jj15hSuFS+f9SLpcmN3y3Y+xxKmrR12/lqeTea/ttf2m4wZLxHcjiOUI2PZCznZcWw9NNoOnQhvBXOVHBpvnknb6ozX1PYhIRnt7dVrl77Whgb7ETRIObA3vFYAeGtoHUHjzT2bomC9+DY0jzbqUJy02YamNCdvz0j1wSh+Rw/N072W89BYMVTlDs2KsbY8NHZRl3wWfK7FQKo+7ZascleNsj3RlfPQ2Emh73BSG5K9Lhdysh4WcX3nBI3kFmCT+ESRECwhI0m+jAkaXHdz4baHR0Y/1t1E0CD/xm4I2m7t9UHy538qhBvusK03qM6dV+zOtsndovbCSU5b6q4056HRfT+RHhotaJrMfzuGvbDll4rH99GXlxZ5WBh7uaRgyfmCcEACO0JG+qcJYh6aG048cVxIVMZ9E0FTCsanBb83z6qO1yobpg5f1hHsKNvOhzY8NHZsSlpDVUETu8kUT5J3E+F9lsqXyz04U2edqNJHXTqnM4JGBiAUuc2h0V4C25Gx0AgGPzZ6m0Pjqdpygj6djGxzaORvG5cUxZzy0NhcArnDq+qhEbvwfy9MJm33cnJwTUrQ6LvWlHdIs/fyGZCQnfPQ6AGvFyXLNDcxqiQF27vY+Ycf7j5yKsIDbvhPF49txx6DjQma2G/N1A05yQaETUk2N/lMNh2Pi3cn7OVPpe7ivAR13Sc5D422Sy+iMbe8nJ/KkbFt9fIFcL2XQ4Nz8bQWcoK0YLP5cKjD5t94wik1VqvM/5ygwfexp+fstTIOvd+y0efGBE0sZ6tuyEluHDxvUdXxmgpD23bbkBASZWPrnb22rqCpMk50HXoN9dZa7zObByTnpDw0Xq4Ywr2pvSy2Z3hCL7fujtL3nRI0AGefRLCLrna96aecvMXZuihjA0CEA8SUPKWEz2zoQ5eH7zC5ciEn3R65po6g0WJLDyyZ1J4r0rr/UR8OiA+vDHym3elokzzllOIPXggh4cAmkprAUq99qsBz48fu7q1XQT/1Mfe223pNE+8K7nqvL+5g7Y+C4UTtSfFyYeSH9eQH7OwP66Hu5YVgxiO3OCAwcLcsj32LMbGQk9xp6w1FHiHXiZXeD/59rQilITQlv0GDuix7+dsb8ymhogWEPA3ibSC231JzBfbZ0IGX26DHpk2ul6dScI4ek9aO2FNOXqjUPkSQCzk1mf+6Td6PM2pBfVYxl84sxlXuh/W8XBiMv+8X/8lj/PaH9fSPQMIm/Iij/YkBfO6N1yrzTDybVcZrKj/P9pP9wUdvvYs9OVpX0Oh55K2TXjgn9mSffsrJrmd6zMr6KblBsbmpUxewp8AzhCe47AMeYreX6iC20kMzbhucnH+kksu62uKqbs6u2l/XrlQOVN2yJtv5ZDPZenTytqfpj0BOXiJsWVsEOuehaathdcsZRUHjPTpbJ0xQl9FEnx9L9p5ou7pQf938gi7YTBumJgF4GKqGjaYmIba6KQEKmqfJjaKggel1QjZNB0mXrks99dIlO4dpSy6Xapi2sC4SIAESmCgCFDQTRZ71kgAJkAAJkAAJtEaAgqY1lCyIBEiABEiABEhgoghQ0EwUedZLAiRAAiRAAiTQGgEKmtZQsiASIAESIAESIIGJIkBBM1HkWS8JkAAJkAAJkEBrBChoWkPJgkiABEiABEiABCaKAAXNRJFnvSRAAiRAAiRAAq0RoKBpDSULIgESIAESIAESmCgCFDQTRZ71kgAJkAAJkAAJtEagc4JG//Jt7CWFrbW+RkGpF6rVKIanDoAAX4kwAKgskgRIgARGjECnBI33tuau8GxD0NhXx3elbaNuhxU0eI0FjiVLlox602g/CZAACZBARQKdEjTeyxYrtmPgp1HQDBxx4woGLWi6PC4bQ+OFJEACJDDJCHRK0OC18vPmzQsLFizoHOY2BE3nGjVJDBp0yImCZpIMFDaDBEhgUhPojKBBmGDmzJk92HjF/IoVK4KEoeSL/fv3jxM827dvD1u3bg3Lli0rT1m3bl35/7Vr15b/xv9xyHW6ns2bN4f169eX33tiSr/Z2RM0uGbhwoU9m3XOD+rZs2dPKdCmTZsWUNcdd9xR2qPPkzCUFLJ3795kqMTWOXfu3F79lqFun2zKO3fuLG2Wejx+W7ZsCdYuXZawkIptX2nuOMfmQlWxU/ep7XNbP2xD/0s96Dcw1yEnW6fmBvutzfgbHLy3mcu1KUaTetVg40iABEiggwQ6I2g8USFiRjYXnIONCZuVeHGwIeNvfY5cpzdCbFo4ZGO2+Sx1BQ3Ox7FmzZry/9j4IMjELtlAtRCwOUJeTg3aA7u9/A8RM3pDnTNnTin8bN6I1GXbawWTx8/aZcWciDVpu4xrj7sIArG5iZ2wEXajnTjQlyKi8Le0ISZobJ22r2VsyPUe58WLF48T0jlGHZzrNIkESIAEJjWBTgsabETY3GUjQ09YUYDNDF4Hvbl6ycXa2yI9KnfmuBOvK2jsqJANTm/cTWy35eh6vLZ6TOQazS9WrlemJ1h0WbGkW4+7FkOwy3qo8FnOTu1xSdXhCRovHGUFGsZBTnhaQZNjNKlXDTaOBEiABDpIoPOCBmEbLVbsZjSRgkY8A7pf6woahFYk7JUSJ+KJsOfra3QYBZ9rIVBH0HjtQnnaK6JDOCIkYk+piXAUQVPXTojNWbNmlV4rrx1WtHgCyJt74tWzgsaW5+XQVGHUwflOk0iABEhg0hLovKBp4uVo4qHxNq1UDo31Hk12D01sBujwzKA8NFrQSB1aFKUETZWE4SaCJhZ2m7QrBRtGAiRAAh0n0GlBIyLB5tCAqeSYtOWhsfk6Urd4JTzPkM7rEI9FHQ+NiAGdNGvzRfT4sbkdsHnRokVlSM7m3sTaY70jHj9bT2oMayEYy6HRuUVN7NSCRjxF27Zt63nubA6MTQpOMZXyvKRn6RfPK5Rj5I3djq8FNI8ESIAERppApwUNyNqneryk1jZyaFCXfqIF9SDcNX369FIwWEFjn7TBBounh+oIGlunbK46Z8iOLvvUjX1aR5+vhWCdkJPHHZ/pEI2ux4ac5KkjOceKKBEg8n3OTito7JNvqH9sbCz5lJMNEdmE8ZSggZ36emmPHZuaEQXNSK+LNJ4ESGAECXRK0IwgP5qsCHT5l57ZUSRAAiRAApObAAXN5O7fobaOgmaouFkZCZAACZCAIkBBw+HQGgEKmtZQsiASIAESIIGaBChoagLj6SRAAiRAAiRAAt0jQEHTvT6hRSRAAiRAAiRAAjUJUNDUBMbTSYAESIAESIAEukeAgqZ7fUKLSIAESIAESIAEahKgoKkJjKeTAAmQAAmQAAl0jwAFTff6hBaRAAmQAAmQAAnUJEBBUxMYTycBEiABEiABEugeAQqa7vUJLSIBEiABEiABEqhJgIKmJjCeTgIkQAIkQAIk0D0CFDTd6xNaRAIkQAIkQAIkUJMABU1NYDydBEiABEiABEigewQoaLrXJ7SIBEiABEiABEigJgEKmprAeDoJkAAJkAAJkED3CFDQdK9PaBEJkAAJkAAJkEBNAhQ0NYHxdBIgARIgARIgge4R6IygOe20W7pHhxZNCgLf/e4pk6IdbAQJkAAJkECcAAUNR8ekJ0BBM+m7mA0kARIggUBBw0Ew6QlQ0Ez6LmYDSYAESICChmNg8hOgoJn8fcwWkgAJkAA9NBwDk54ABc2k72I2kARIgATooWk6Bj772fvLS9/61qOaFjGQ697//n8Mp5zyqvC1r30ufOpTbx9IHaNWKAXNqPUY7SUBEiCB+gRqeWiWLl0a1q5d26tl7969YcmSJfVrda7AU06XX747HHnkr4z79q67bgkXXDC3lTraLOTzn3+sLO6ccw5rXOw73vHp8OpXv6VV8XHppTeG448/JXzrW18OGzYsrW2b1wf79v1ruPLKPwm7d++oXZ69YBBtzhlFQZMjxO9JgARIYPQJ1BI027dvD6tXrw67du0Kp59+ehgbGwvbtm0La9as6ZsEBI2IBF0YBU09tP0KGq8PYMFPfvJAWLVqvNisZ9kvzq4qaF75yrPD+ed/LrTR/xQ0TXqK15AACZDAaBGoJWhs06644oowbdq0Vrw0WtBceeWacN11GztNsg0PzSAa2JagkT4466xV4dxzLytN7ccbVbetUi8FTV1yPJ8ESIAEpiaBvgTN1VdfHfbv3x9WrFjRN70qgmb16i1h9uwzwhFHHFnWp0MhsgHedNNXwlFHzSjDLpdf/pYwf/4fhJe//A1lWOe0015ThrTgbbj++o1hxoyXhJe85HXh4IMPK8u67LI/DPfff0fhhdrSu0byUJAzg/NQ5je+cVXPmySb/Lvf/eVw4omn92x74IEfFOe8pzw3Z5sOD73pTX8aXvOa/9gLvaGcv//7DVGBt3z5peGMM5aW9WLzP/jgQ8trpUyweNvbPlFwm1/aj7bv2nVNNL9GhFpK0KA9v/M7q3s22pAU+AlXPTDAStiKfWjvmWeuKu1/8snHwne+85Xw3e9u74kouV7Oh31oJ/rppS99XS9cl+JGD03f05MFkAAJkEDnCTQWNBJy2rx5c1i/fn3fDY2FnGQjg2DABmYPCYVoT4Kcg035tNMWlOKkyiGJtHbTxbV2o7ceGi9UAzFy/vmze4JG26Bt05v72Wf/qWvqBz/4ugNyWCQs410gZUqSsD3nqqs+HL74xQ8fcGks5HTttZ8MmzZdUAqjiy76ygHXSVshsBYteqfbBk/QoD4RMs997gtK0bV9+5VJQaMLRzvvuOM7IcXtqqt+kcDNgwRIgARIYPISaCxo4J3B0WZSsLeZYsPatOnC8PGPf7+sTzwH2FghcrAB4jMcCI1A4IyNvSv82799a5y3BRvuJz+5sgiRHVvmZuCQTf8jH/l6OOGEXw/w7nz0o284wIuAc3OCBrkh27dfUYoOLTSwiYvYitkmdkhCrvauoI2xJF8RXuJdOvLIF4V3vnOs56ERbhAMaBdskxwWXPPe976qkqC55Zavh4sv/q3yXBGWwgoeoA996IbSw6I9YiKARFCJZ8uKRRE0//RPY+Gaa/5r2Wc4YiEn6QcRZKj/oouuP8Arpbmdd95Fk3cGs2UkQAIkQAIlgUaCBrkzM2fODAsWLGgNYyrkFNvcJF9ECxqbc5Hytki4SM6Ra5t4aHANQk72KS0taHK2eXk5ni0C3ftO59B4oRu5NidowPShh35UCiCIRhEoUr7X8RAteGTcemggqC68cN44gSmiTYfMcB5CdAjz5QSNzufJcaOgaW2asiASIAES6CyB2oIGYmbu3Lnlf20eKUGjwxzioYEXRDZbbKTPe97RpYcmJxq0tyUnaGTT9+rXm6iEWcSTEfPQ5GzbuPEHpadDe2jE++D9roz20MDbAju1h2br1svL8JD20OT6zHqipA4JKYnHRTw0tjzksiD8gzolZwf5ShLeigk0XPcf/sPq8hrr1cLTVfDEwHvjiZcct/PP/8+5ZvN7EiABEiCBESdQS9DkxEzu+xSrXFJwzDMgIiF2R9/EQ5PKAxFB5Qkar311PDRiqy1Hezj0d17ekHwvoijGLfYkmRU0EBLr1+88ILRnbZR+kPre9a4X98JH+lzdHzt2/G1YufLj4fbbd4Wf/vSxMpEYB36s0Obq6KRgnKM9NDluX/3qISM+TWk+CZAACZBAjkBlQSNJwF6B69atC1u2bAn9Chr7JJGuCxsrvA/IdcFdPDZ5eFCQF4M79zqCRuqRTdHLK5FcEanniSceLZOSY0856eRb2PWc50wvw091BA3a6z3J9aUvXVqGYrwD4uu1r11ZMoGouO22b477sT7LTcqICRqvD2zejH2iCGWKoNEemgce+GFZ3VNPPR6kDVrQIMdHcl1wHrxAX/3qX/e8OToRXEJescflU9z4lFNuGeD3JEACJDD6BCoLmkE3FR4aHqNPAOGfgw46NPyv/7WhTNA+5phfLXNq2vphviaEKGiaUOM1JEACJDBaBChoRqu/Om9t7LHvNn4gr2njKWiakuN1JEACJDA6BChoRqevRsJSG46yocGJaAQFzURQZ50kQAIkMFwCFDTD5c3aJoAABc0EQGeVJEACJDBkAp0RNENuN6sjARIgARIgARKYRAQoaCZRZ7IpJEACJEACJDBVCVDQTNWeZ7tJgARIgARIYBIRoKCZRJ3JppAACZAACZDAVCVAQTNVe57tJgESIAESIIFJRICCZhJ1JptCAiRAAiRAAlOVAAXNVO15tpsESIAESIAEJhEBCppJ1Jm2KRdeeGFYtmxZ629GzyG7+uqrw8yZM8vT2n4re67u1PdLly4Na9euLV6IuTLs2rWrn6JG4trLLrsszJs3LyxYsGAk7KWRJDBqBEZlTcGavH///rBixYpRQ1zL3k4JGvsCzBtvvHHSd0Ct3qp58vbt28PWrVuLt2Wvr3ll89MnSkRVsbiNxUfaNwqiiIKmyqiYfOfIOJeXBk++FnanRW2sKcNoDQXNMCibOiBgtm3bFtasWVN+g07AW7zx32Q/sFEuXry4tbtplDd//vywZMmSoaLDJjpr1qyh11ulkW0sPhQ0VUjznIkkQEEzPPp115S21/mqLaWgqUqqpfPEOzNV7yomaqC31H29Yq644oowbdq0SSto2uY1yPLooRkkXZZNAiFQ0HRrFHQq5AQPzd69e6ObodwdC8LNmzdHwykoC+IIORPe+eJJQFwReR46vIV/y2HtQRgHGzYOXKvzE1LfefaIeIMIsLkm8rf9Tp8nISXkyeCIlRfLY/HCQ9bDkrLbDmXdfnwn3jaZ9HK+5YY60JfSDoRzzjzzzNJjhZCZfC59oevRAtgTU7gz2bNnT+n18xYftHfhwoW9puhQkscXJ9o8HFtGLlRqz9f9o/OPUJce49I3aI/YnJovnqCx40l7RFFfauzr/k61QfePtk/ftOh5ifZru7RNIvT1OIAddkzbsafHRdVQNmyQQ8q3fZkry451bUdq/bLXWQYyB/Q8x7/FZqxJyFvDdZs2bQpjY2O99QDn5eagHRdeSDXWf/YmVI/hKnMd+Wypa+w603T+eGOpyppix4Qe01XWlCrrfN11yIta2DJ0v9BDY0fREP7Wk84uJNbVn/PoyMIsE1Oul06Wzrf1eGEvSaZKhVOwoGKgS9KV3VytPVK/LJyehwZl3HzzzT3RhkGJQ8JIsojbTT11je7GqoIG1whHa7cdFrbdnvsb7cACLGLQskGZYpssHnojsX2oxZ/1DqUEDdqCQ0KcsB2bgtjl8bULmMcD7YmJGq/f58yZU44b279Sl4gab8za8WpFh04Ktu0TprJ5yuaYSxxMtQHMVq9e3Uu61vbpPpQ+E8ZW/Eof23GA9tnxY+eenet6DKSWMdnUxRaxV/jbv1EW6t65c+c4wSy24/wNGzaU4ym3fsXy3XCdjA/UZ9lbm3GOXRtzc1C+zyXwe/0n9sj6YNMEbN94cz13jR3TEPN63aw6f5quKahLC0w9v3Prgf3eW+ebrEMxkSdcbL0UNEMQMLEq9J2MLA7eopTqJLnr1wmxevHx7l69waY3/dhm7i0IdkBZe6oMdG/Q6g1KtyfGMhV2qCpotJcg52K1gsbroxwbLWis90K8LXrhlsW0iYcmJfA8vlVsTzGP9VmMq+bnlZuaA/r82A2AZmYFT2xMVRl3cq22z7PBu0nQm7s3RjUrePK8J/m0jVYoxtrljR+7Ztj8MM04FW7NrV9244/ZaMeJV6flnJuDs2fPLr2OuXB/bAx5a63Y793YpTzruC7FsZ/5440l2y/SxtSaovvc9ocnTLXNVVILrJ1V5luuXgqaCRQ0ejHEv+GRsC5lOSd2J+xNMj14vc3Buuw0AtlY9TkyMa0rWV8nE8PaYydObKDrEADK1S7c2EBPXZPawOUOUC/aObvtMPEEjRYh3h2k11dtLT65kJM3rrT3QO6+pZ2eoLEbgWe7XB+7E4/dJWuesRASyva8Kp6gsaEEW6YOPcQ2uFgbYIcNbeAzmaNtCRo9dyQ0aR9Ntwu4DmnEnlDLCWIvNKznZMrDVWX90uekwpCoM7XheoImNwdT3nEZuzFBo8eDDcnhWh2i8eZ67hq9xvQzf9paU/Ra7a0H3tYpHp7YOl93HbJ12DVfvpd6KWg6IGj0AlPVbayFjr0TaOKhiWHQblycgzuclMs2Jwy8gW4Fi918PEGTu0a3x9tE7R1zzu4qgsb+/kEVL0eTxce7208JGjvJq9wZVbF9mB6a1CZa10PjiV1v848JaW/D64KHRrcrFTLNCZpUyBl11PXQxNYW7SmLhXDrCprcHNS2xMKYVTw0dr2o4qHJXWMFjb3J0ELajlc9/pqsKV6f1vXQ2Hlln2Ztsg7ZsZO6ycC5FDRDFjQ2Vix3dqIwc7kbMcVqc2h0Loj90TEvRh7DYD0sqVwGaYsWWJ6HxrrObZkYtDh0joed3LlrdHtse2WzTt1RWbtzgsbmM8jkwv8lF6gtD43NU5AxY/MzZAxYN7/cxdfx0MhduxazubwWnQMA5osWLSo9LLAHG49wsbkP/XhohLvOXUqN91RehZ2L0oZrr712XOhCym/DQ6PHpA0h2ZwlOw5yG4p8nxM0Xi6Kd4OgPVvoU8zXOuuXFk62rTLe6giaKnPQigbv96tSOTQY/954Qt9UWU/02mivSQnSOvOnqaDxcmhia0oubOvZ0GQd8tZdnf9nv6egGbKgkQVXfmEWf9snMLyQUMwtLptk7OmA2F205/6UBVm7rWGf9QBZt1+ViWyfqpEnqDCJrPsePHI5NLlrbLdqpthMsZDp36/p10OD+my/2Sdz2hI0dgxJfzz44IPuU062r8FXiw3PE+HluthxYcett/hoAWTFkD5fj+9+BQ3Kta5tPYbtd6mcCht+8UKyGE/oaxwQbP2EnPRTcPbJGW/O6nll52XTkBPa4YXUqj6RFFu/du/eXT6VpI/YmJAxWkfQ5OagtSsWxteCRa+rmqcNv8PeVAgbtuWuaWv+NBU0WJPlaVjYovl464EXmkyt803WIW97TtVLQTMBgqbNKr1Nss3yWRYJkMDgCaTykQZfO2vQBGIhp8lMKRVGnMztHtW2dep3aNqESEHTJk2WRQITQ4CCZmK4e7VS0HSnL2iJT4CChiODBEigswQoaLrTNRQ03ekLWjLFBA07nARIgARIgARIYOoQmLQemqnThWwpCZAACZAACZAABQ3HAAmQAAmQAAmQwMgToKAZ+S5kA0iABEiABEiABChoOAZIgARIgARIgARGngAFzch3IRtAAiRAAiRAAiRAQcMxQAIkQAIkQAIkMPIEKGhGvgvZABIgARIgARIgAQoajgESIAESIAESIIGRJ0BBMyJdiF9Mta+dH6Tp3osZB1nfMMsedNv4/pdf9mbsJbDD7O9B1+W9oHDQdbJ8EiCBAwlMakHjvc6+S4NA3gKs36wbs2+YgmaYdVXtD4gQvLkZb23u96graOrULWMu9kbnfm3v4vUYx94bxqfKT+W3KWi6vmbVHX+bX/Si8LJDDw2bijevf+i++3qXv+8FLwjLi7dYf/vxx8OyH/6wbrGtnC+2/fHdd4drHnmklTJZyMQSoKB5mj82ra1bt4b169cPpUcgGubPnx/wavoq9Q5TZIDFxo0bw5YtW4bCokoldURFrrxBChp4Zx588MGwZs2anBmT5vuYoJkqLCaDoEFf4WjjhkEP7KtnzAinHnxwuOrhh8N77r2399UlxxwTzn7uc8P3nnwyLLnjjgmZCxQ0E4J9oJVOakFTh9ywBc3VV18dduzYEY499tgwa9assGTJkqS5wxQ0dbiN4rl1Bc0otpE2D49Am4JmeFaPr2kqCpqJYs16B0egU4JGRMWyZcvKFq9bt670EsgbdwXD5s2bx3lSIA5mzpw5jpK4wHH3qM+XMA9ORgjj4osvDmNjY+61MXuQF7Bw4cLeNSizzp2NDkugENRvQxRem20OjW23Dl2J7bgGXiDhOaO4YxK+aL8WUmKXNMyGESy7nAhDObZMzSr1nR3yaOv+wm0tnFEOxsfatWt7TkBy6wAAIABJREFUp8p4kQ+wSAsTXLtgwYLyKy1ovM3Iikddtw4JCEepA+UKa8tWt8fLsUEde/bsKT07OlSj22fHiO5/3T5vubDjydrn8bTzrApPr8/xmR6b0lYIeZm3XshK2uGdb+ecbZ8eC7JZo29Qn9SVusZjGBv/sTEk4wNlNV2zZCzu3LmzXHNS4ypnn50v3riVdRFzO8at1ryt6KE54dnPDn929NHhNw87rES/76c/De8rQlTffOyxsPvkk8PjP/95mHvbbeV3NlyFa+HxmXPIIeHQZzyjPAehLHiE9j31VPkdvEEIe73+Oc8Jhz/zmWVZ4j36QFHPF4rvcODcVxc2HPWsZ/XK+VjhcYUdTeaVexE/HBiBzgkaLDp6MZJFRxZzG5e3SYfexieLSeouxPPQyAal7RExoxdoLCR1RA3K0F4Z6zGQBVLsljbrTQvtxCGiwnKwtstmpBdEHSpAHRs2bOht+mKDtL3pHZzeqPUo9nIFUp4Tr19RnowL2y+wF5uXiBh8jwOCoQ1Bg7KsgFy9enXYtWtXWU8sDIPvqgoaXYdtD3hA7EtYMBWSs3MI5eJ8jCcZP7IZCk+5Rvd/FZ5ev8rYE14ixGR827FmVzt7vtShhcmcOXN6YtcbC6hbiya0L3WNtcH2px6PVtC0uWZJWSkh4403z77U+uHNb+k3za32vK0oaER0QIhAhLysECdjDz1UCg0IGhyzb721/L8NV7252DM+UOTk2OMfiryY84v8GDlff4+yrKC5/Ljjwm8Xgsce9//sZ+GM228/4PMq8+qAi/jBQAl0TtDgTkTnH3gbop6s9nsrFrSHxm4KmmxM0Fh7rMcHZdR9ksPWZa/3ytNeAy/x1Aq9mEjSm3BOpFRllxqhVnjJubafchxTQhXX2k3F6yepuw1BY71B3iasPUr6+6qCxhP2sQTy1JNVnlCUxVjK83jp66ry9OywY9P2pWzI1oshzLzzU+21Y6HKU2epsJEX7tX87LVtrlm2n7y5Vtc+b67FBA1uMLUntva8bSBo4EnRSbo5QfOKwqNyRpF4jDwdiCHx4Eh+jhZA7yoEDg6cpwXNjkcfDdc97eUXjw3K/fTxx5deH+3F8dYR+axKfw10R5/ihXde0Gg3vu4r8YjYxcreqdqFWLvN9YZRR9DYzazOIJbFzxt3+m7YLiR60apSRhNBY0NpsFFvMjF2uTmkQyPiAdBl6etjoZOcoLEiT0IoXmLzIASN1ycxr10TQSPliwCxbn8wjN3Fe2O7igDUG3NVnjGRrOehJ1BSOWze+XZj9cLOeqzZ+QReqWv0mPTmhXyP/rAs21yzqqwtde2D7VYEVRU0deeteD1iScHiRZGwEZ6IwgEx8pH77++FnPBZzEMj4apTDzqoFyqSMpBwLILG2qAFDc6Hl8cmKXthKS1o7AMdkyGfKreed/n7zguaWMhCoNoJ5uUGeHd+1l1YR9DY8up4aGJ3i3rR9u6Cch4aO8jqChpv4YzdlXuu1iqDXIcCvDamymgiaGJ3/JqN5+2qkkOjRa33eLK3CUv7vLbHcmhEkFlB4wl1b9NGnaPgoakraPQ8snOqiocmd40ei7mE/CoeGl1enTWriqCpa18/gqbuvBVvCXJgPloIFISQECJ691FHlZ4P+zg3vCJvf/7zy1waESDioZHHqz/zwheW34v4kL83FrkuGx54IOqhSQmafytydjYV5ZbC5umcGuTbXFI8tAE7vUe7q8yrKusiz2mPQOcFjZezopuPQZV6xDi2KdsNwhuc3mc2HwC22Ph6KqcmZo9up80pkL9tYmvqd1nqChrLWRZSTxR47Kr8RoznZcqFbqSv6woaG15E3XiizObQ2P6L5StJ+MgTL7a/5JyYh8YKQmEvuQqpOuAR8PIYUFfMQyPl66Riz5MJFjaHRns5dA5NjKfN/0KZXv6PDcflBA3qtjll8rcNa8ocTXloctfoNSb32zBW0LS5ZlURNHXtiwkaK4i9m69cvpPdmnTYxn4HkfPGffvK8A8eocaBf8Pjon+75oYTTxzneZFyrKCx5duQU0rQQGiJNyZWjv28yrxqb6tmSVUIdF7QoBGeS1U2Qs/VbxNfZeGzrmAvRwH1ycbiCRp8b13V3tNA3maWckfaRUm3GYs/RNuqVat6Sa6ww7Yn9iQPzrUiRDYa/F+eHNLtgv3YRMSlmmIX4yRiQQ9Eval6fRd72qWuoLH9lGIjm4bYiXGhWeu6Yz8WZ/sLY1CztZPRssb38vs1OUGDc63N4JZ6/N96Bez4FKGtn8yxYlPbXIenDSM2DTnJU0p6jgpX/YQPWOCJoFzIKXWN7S8vxCcMvXnd1ppVRdDA1rr2Wa+Ovl7Wz5g3uc68hW3wdOBH9OQpJAiZbxXJv5/+8Y97Tw/Bk4Pz8HSRfP/nP/pRKXDwOb7Hd3j66W+LXJkLCg+P/CgfRNN7i7/xeze49mtFPgySe+sKGgldvbwIe8ErY+2wY0LWUPuASJ0nXr0y+VlzAp0SNE2a4cX2UwmMTergNXECnlAir9Ej0OU5kwrfjR7pX3h0rVjsMv9RZEybpyaBkRY0VZ72mZrdOrxWY7PRjw8Pr2bW1CaBLm+ok0nQcM1qc9SyLBIYT2CkBQ2aYl3v+CyWDMrOJwES8AlQ0AxvZHDNGh5r1jS1CIy8oJla3cXWkgAJkAAJkAAJeAQoaDguSIAESIAESIAERp4ABc3IdyEbQAIkQAIkQAIkQEHDMUACJEACJEACJDDyBChoRr4L2QASIAESIAESIAEKGo4BEiABEiABEiCBkSdAQTPyXcgGkAAJkAAJkAAJUNBwDJAACZAACZAACYw8gUkhaORtq/bNrSPfOxUaMMy2y6+c6neXVDCRpygCdd7MTnC/fAeZfgcYuUwNAnytytTo5zZb2UlBc8kxx4Szn/vcsp3yKvdUo+UtqfZtqnVA4W2veMOr95p4rxy8MO1jxx3Xe0FanbraPLeNtle1B5vx9OnTey+zxHWy6Hgv4+zKr8/at1lXbe8gzqOgqUc19ULXeiX98mz7pvGm5fC6wRLomqCRX3imuB5sv/dTeicFzY0nnVS2CW88lTeqjrKgEbFURZzV7cxhChpsBHjrN97dJIds0HgTsvbceO+sybUN7+zZsWNHWL9+fe7UWt/LBoa3hy9YsKDytXjbMI42357bBUEDG1Jv5q4MaAgnUtAMAXJHqxhVQdNk7etoF4ycWZ0TNOc9//nlq+ERPpLXyZ+1d2/5GvnYMcxNvUkPi32jLGhiiwtEyJ49e8K8efPC1q1be2IEdzOLFy+uJSC8txA34a2vgd2rVq0q7ahbPgVNv/T7v34QgqZ/q1jCMAh0TdBUbTMFTVVS7Z/XOUEjOSHL77wzvL0QN7952GFh44MPhg0PPNBr/eojjwy/V4SkjnrWs8L3nnwyHFZ4ck446KAgIScRELhOn/c3Dz8cfuvww8syH//5z8PXHn00nH/33WW5VnTI35fef39YWXgfUNe+n/60tOOaRx4Jby4++8ALXlDWv+SOO8IJz352+LOjjy7LxoFz33fffeG9hTg79eCDx/Xc7FtvDRJWE+F2+DOfGd64b1/5+ZxDDim9UzjgoXrPvff2BF2u7bgGZby6sAM2SxkfK1h887HHyr93n3xyafcdhUj87SJ0ViX3KOZZgPcDQubYY48dd9fveQFwLjw5cojrVkJCGpJ8B1Ehnp+9hbDFAQG1Zs2a8t8oc38hfpcsWeLODi1KYgIFogzeGxyoA2VZW+VzlIE26PpE1IlNsqCJQdu2bevZazkKP4g/YbNu3bowY8aMsGzZsnE26QZCnMkhtuFvqRtlrF279gDWuq34EuzEa2X7AWVob5wL+OkPbZvlBbHiptfeu9zY0O3xBI1ug3B4sBjf4K/bL7bbjdF7e3eOJ9oj/eHlkIlY1sztS3LtSyn19zI2MQYwFmXM6HGo+0rGvp5Pur+kPJwn9tqwcGqc2r72xmlqXON6b77FOON86SepW5hr3no9wHmx8I+0zeu3XBnaRrEFbHGgf6VOay943HPPPb1xoq/dvXt3GBsbK1+cbMeR7mNv7Ms10v8p++vM4dichd12rGq78L033sFl+fLlYeHChWXTc+NNj83U2lLnu84JGoSbHv2//zeccfvtQbw1OuwkuSteI62gqQJCcmZigsaWIbZYQSMCBd/Dm/SyQpSMPfRQ+MNCeKUEjS4fHhyIJHv8QyGgILyqtP3yIq8HIsUe9//sZyVTHBA0+qiSe+Rt5PpOBOVhwspkt5s8BrdeAFGeDgF5m5w9RyayXrhRrpe/I+3TXhlvc4WdOESgoI6bb7659DR5C3JO0IDJhg0beiJBFj2x2RM02JTke2mjXkAsO/u33qD1IiUbQRXWshDKNXU8I3rzkHAhbERZVQQNFvTVq1eHXbt29RZCGSvWDuEjdtr8qCaCpi5Pb12RTVDGv7Rb+tXmX1g7pV1WJMRCgzYPyNZny7N9lBunto2y6Up7pF9ElHk3PHb+VOGs2y9MY+PYG1titzcP8J2dC7YMK3Z1HqAdiyLybIjc89DE7Kky9rWQTXmt6szhKnNWi0V742jHu9xkyFrsjTcRdMLLzuUq+3XunE4JGhEwsoGXKq8QOPBWwGMDD4MWDvBcHFN4Rj5UiADPQ/PPxfl//qMfheXFhoH/4JX5ROFhub4QCMhrgQcDHpjP/PjHUQ+NlHFmIRIQCsMBD0tK0MDjAS+OHF7ISdoBT8m7nvYSoS1nFInJEBgQRe8r2gW7xQuUazs8Utc97WmQ8NYrCk/Np48/vmQon4mgkbbDu5QK6clCgP/rfBIbVtITXAsJTwTYhcQuflYIoO7UAuYNdC/spRcob/PT5TQRNLHNLrbwg9nOnTt7HhxvwdJ2eG3SXLw2WW4xD4kOGaId1rbYYpLKC6oiaGy5elPxNhHNC9dq8VxX0DThmetj+V7zswJf7MZmhTnlzRG7QUm5sXmg6/PKy/VnKonfu1b3U07Q5Dh7bbJzwQsZx2yOze1cGfZ73W/eWMSNh82xSwmanNczNfbR/966qMdb1TmcmrNeX9v+sdy9/tXsUjfEOSY5EaO/75SgkeRZrwESFpFNXXsVbA6NFRBWfJSLSeHSh+fEenVk0/dEiAgBT9BAFMA2PCmFAyLkI4VYgghLCRrdDglbnVqEzyRcJGUhrJVr+01FnToMFhNUuh1VB4u3uduNUf6++OKLx3lrqkwQe7cTWyBtuCdlvw2vyLni/cjFupsKGi+E1pag8cqWduFOtsqG7gkaz82OcvUdc0rQxDwJVQSNdd2jHrnTs5uIt4H1I2ia8KwqaLRdNoQpZUg7vQUf52j7dBjPy0/Tm2HOk2jLFntsmMwTZ/KZnh85QZPj7F2vBY0Nj+g+8Gz25kGVMvRaZb0MntdS96t4kuoImjpjX9qsr9He6TpzOPVggOd5ys3DKoIG9lvxlxLRVfemTgoabObiXfAagpyUs57OMcEj3RL6gQci5qERcTIMQSM2wx7J/fFyesT74okTyR+SnKGUh2bZD38YbNv/7ic/CZte+MLSFGk7wlSXFPkt8NBIeK2poKmaO4JNEEnCkpsR24Tk7tRbALwF2bqsUwM+doemJyauhxs0dodQRcShDL1xeRu4br8XcurXQ6M5NBU0Mfd5lUUldbfneZz0YurZm/PQ2LtQL7yp+zSVQ5NLXs958bQwsRtrzkOj2cYEjd3EdH6VzeXJeWjqjFPb7zkPjccx51nUdXjXV/HQxMZnHQ+NLsMKTy3oU2FYHcqqKmjqjn2vrXpNrDOH6aGpsrL1cQ6SXVcVv3GCEM95RXhJDi10EHb61cJ74eWZ4PyYt2UYggbeJRwI3cBmeGrEqyRCRdqkk4K1h8aeJ+dLyEna4WHO5Q9JGbjWEzQyuWJ35N4E8CaQeEV0DoiN99vYqbdQxHJN9KZhy9VcUhNWLwI2hwbXIbFPcmisiLO5EDaHw4YJ5Py2PDRe7LuJoNGCE9fb3AI7xmLhD5zn2YS+gaCN3eXK+LAudDk/5qGxdspY0uPWjgubi+HlHMU8E3UEDVjYHBqb+B77UcqcoLGbJNqk787tuMx5aHLj1BM0OtfL9pv9W+yJ5VTY8mM5FzhPmNm5mtpuYv2WKkOuifVRStDkRHrqRkPEd27se+3Va3BuDnvrhF1PMWdlbNgcGh1eqxtysjlXVdacJnKiMyGn1G+1yHeyaUP8nFs8AQWvAzbqbxWJuMg1EQFhQzySTKs3dSkzdk0s5IQ8nLm33XZADg28KfKYOc6BTcjfgcDB5/geYSRJzvU8NPC4yFNR8hQWEny13bm2S9jq5YWgAh9rS1NBYydzLFwjC5neYKyr1z6tAZtk09HfaReqPLUjkywnwLwnWWSC2Imv78q8J4Zwnf489ZQNzrXfI/lZvAr9emi0gNAT3m4cKQ9FjLeIA12u3pCtCNLnWde5Xih1uAH9Cxbz58/vJWLb7+VpNrinc25+jDOEu/STb9YWGTt6YxTvYBOe3kIrC7w8wYJzrOfPC7voZHDPAypP36E8zdQLn+gNKCdocuPUEzTwJGIMyJNVVgTq8YM+RJ/oH+L0bPZEmdSN9sCDqgWGF0b2BEhKiKbK8PrIS1CHjbBNH7GnsdDH8pRTakxgTObGvrVP8xORYHnEngRLzVm7Fth66goa2CZ7gzDz9oEmIkZf0xlB029DeP3gCbQd7xy8xayhLQJ13Nlt1Vm1HC/htuq1bZ032edGLqG4LY4TWY4XHk15ZSbSVtbtE6Cg4cioTMDLKal8MU8cWQK4s5ozZ06rv5jcJgwKmjZp+mVNBUGTexJr8JRZQ78EKGj6JTiFro+FmaYQAja1gwQoaAbfKVNB0IBiKuw6eMqsoV8CFDT9EuT1JEACJEACJEACE06AgmbCu4AGkAAJkAAJkAAJ9EuAgqZfgryeBEiABEiABEhgwglQ0Ex4F9AAEiABEiABEiCBfglQ0PRLkNeTAAmQAAmQAAlMOAEKmgnvAhpAAiRAAiRAAiTQLwEKmn4J8noSIAESIAESIIEJJ0BBM+FdQANIgARIgARIgAT6JUBB0y9BXk8CJEACJEACJDDhBCaFoOnCL4UOuyf1212HXXfX6+vye3Wqvr2564zbsi/1VvS26mA5JEACU4NAJwWNffV8riv6FTTyBtPYa+Nt/XXPz9nf5HsKmji1poJGxIZ9i3CT/oldM9UETYrpVGPR5jia6mXJSyPt26vrcsFaIW/Trnstz+8egU4KGggUvFocAqOKyOiqoPHe3trWEKCgoaBpayzZctp8Z1dK0OC9OQ8++GBYs2bNoJoykuVO5ZfAVm07Bc1IDu2BG905QSMLIIQMXoi2devWsH79+iSIfgXNoChT0AyKbLrcph6aYVg7Cl6JNgXNMJhOtjqqbuqTrd1oz1Ru+2Tsz2G3qXOCRnseYl4ICJiZM2eWrLB5TZs2LezZs6e809PKfe3ateU58PYsWLAg6Ot0WEFCXOINEoE0a9asXj3aLWnPlzql83AujoULF47rz5UrV4bZs2cH2IX6ly1b1rNN2iIXoF0rVqzoXS9hLmnPzp07A+xbsmRJ7xzdPnyo2ygsxfNly9eG2vbhO2kj2rBr164D3kqb8qRZ2yFS58+f37PdChBvQ9VlwJ6Uq9mWJ+2RNla9FtctXry4FNXoKxx79+4t7YbYxriztsiCjM+FiVyDzzxBY+3z+g3jW8aT9B3+L4f0i/xt3xqsv0+Nb2uLbl+Oox5/us2x/tVjTo8fuZEBe2GcCgNWOd/OUVkTxk1Q9Ydtqx73sMnOO1l/dB97c9lbn/RY0eNKjzf8W/PN2W/ni+ZbZZ3Q4033peUlcwTrEcan7Xc535ZhbZAbWOlv3XaZU/gO6z7W102bNoWxsbFx60Csz1CWng+anX2LuMzP2NjM7Q24ztsPtBdSz9sU29jY5OdxAp0TNNorYzdRPTBlgsrEFcEh1+hBKwNIFkUZ+LJIeYIGE0fOt+5Ne37Mk+R5aDz70C7YKG2ybnqpTzZiKUNPBkw0HLLQyjnSBuGUEjJ6mNhNCAuCLOT4980339zznNm6dTlVbM8JGpuz5I2LmO2of86cOT1xmMt/0raI7cJZL3bSF7Y8WTi1AEaZwt0KGjsW7fe23/RiqTdZjFeIdpkj+u+649sTlDmOdgzoMaKZeiEoYSbjXzZ1YWwZ2eUsd74XnoC9GM/CzBuzwhfX4z/MLT0P5BrtIfbapzdNb/577FC2vqHBOVu2bCn/w4EyMS71OWKPHZO675qsE6k8EztHxAZ7jaQRwF4RQR57z0PjzancPLJ9pucD+OCAyNB9U2VsihCL7Q3eWNPjnx6owcqxTgkaTwBYBW3/Bh69oMREkF0gMMjsgqk9NBBEerHwNjq9AHuLS0rQ2Dtqb5HGXQ8mnbeIau9VbIPXi0jdp0lsnanwX6rsnO0i5vQduN1Qvbq9caAX09gdfV0xBM+Mvbv17sZTd/Caj12IvXBprt8sDzvO9Nj2mOjyve+rhJw0R5Rh75ZjAtMbD5ZJ7K455lnLne+1NzUOvPOlPTlB43mVdf979dr5U2XT8+wQG2Nzo+k6keLheXM9waLPSwnUmKCxXjFvHtk1u8p6oFlVGZu5uZOzH99rcTXY7X3qld4pQWPd5NId1ttiN6thCBq9iXiTWLuKZQOsI2g8V7/c5XuTyBM0NuyjJ2hdQaMXPwmT6fK12xT9FHOB52yvImhsXTIuYk8nWI+PdW/j+pigTAlXK57xt938vUVRL/De5q3d7HoRhqD2+i0laDyXuZQp88brE11mTNDEOIqgqcI0tllr7t6G7Im01Aauz/dEYyqXyTu/qqDJrWGeqLACwGPk9WssXFHHY4x25daJlMDy1kIb7tLbqqwher3T8zgnCKSsKjcGei5VEcNVxmZu7nhzBHbovtJjpN+ntKaeZEm3uFOCxkvm9DYAmyjcBUGjFzxR4FUFjbfI2TsHlG9zaiSHpumdV24yCNfp06eXp0r9dsPJeWhStuM7uwBX8dCkbLcuXn13NwoeGt22uoIG16Y2fxFl9m42J2isUBumhybXppwAatND43lg9PqTe/qwqaBJhYDtXGjbQ1NX0KRCStZWG+bpR9BMlIdGz50q3jVhkAul5tZnfn8ggc4IGk/pi7k6Xmxddja+OqiQU85DI7bmQkGxBQ2hDR2zR+Kw3LnEcn606od9mNA2h0bnesybN29czkAqNo72yMIEQaDvJOx1qBtHlXwEL+Zu4/ri7YrliOQmsl78vfwE3CVW8SZ4Y9LevXseGpRvc2jk71iOTCypuomgsW22vHJ3mZ73IsfRfg+777nnnjLPSveHze2CbXZO5wRKlQ3cCynrMZxi5OU1vf/97y/nlv0ulsMXu/OuKmi0CPdyO9C+mIfGyzlbtGhReUPSZJ2oK2g8e3M3IMLL83BWCQWl+syOL5x77LHHHpBDU2Vs5uZOHZHi3fDm1jZ+nybQGUGTignbCarDO9go4EGQ37MYtqCpkhUvT2Tpp5xST6VgocKhczW0mxLf79ixY9yTQnIXq7tbL6rexuh5xOxwwTk2nCSM5Vz0gRVLuhxrO9qln9CyDGE3BJ1m5Lnyq4gSywW24mmMKtc2FTTYjORpMqlfvFueWPBc9CkhmsuhQZ2e6zuVI2bL9NziOvTncdTzMvWUkw2v2vHVtqABD8s493SJPd8+JaafskT5+vd07PzA9/ahBV2e9Wjo+SB2WmYozz7lGJtz+DwVLs6tE3UFDerz1kVJjLdzWYt/r+1VBI3Xx7E+Sz3llBubOUEDO7z0AQn36jmCcxlyaleidUbQtNsslpYjUNUtHHNf58pPfZ9zy/dT9kRfmxLmE20b6ycBEiCByUyAgmYy926ibRAqq1evLn9TJnbk8k2aoqOgaUqO15EACZAACcQIUNBwbEQJDMrbQEHDQUcCJEACJNA2AQqatomyPBIgARIgARIggaEToKAZOnJWSAIkQAIkQAIk0DYBCpq2ibI8EiABEiABEiCBoROgoBk6clZIAiRAAiRAAiTQNgEKmraJsjwSIAESIAESIIGhE6CgGTpyVkgCJEACJEACJNA2AQqatomyPBIgARIgARIggaEToKAZOnJWSAIkQAIkQAIk0DYBCpqWidp34jQpfjL/8FwTHryGBEiABEiABHIEKGhyhGp+34agQZX6bcE1TeDpJEACJEACJDDlCFDQtNzlbQkavNVVv227ZTNZHAmQAAmQAAlMKgIUNC13Z1uCpurbsFs2n8WRAAmQAAmQwEgS6JyggSCYNm1aCXPv3r1hyZIlIfbWZx2WQd7JwoULe52wcuXK3pukRWQsXry4V/bmzZvD+vXry/PhDZk5c+a4Dpw7d275N4TFsmXLet+tW7cubNmypfe3tnfbtm1h3rx5YevWrb2yxXa5QNdrv8P1a9asKU8d1JuuR3KU0mgSIAESIAESyBDolKCBOFi9enVPiECwyCaP73bu3Nnb8LUHA2IGh4gBvCUaAmXBggXl5yI6RIyISNGiRzhB3Ozfvz+sWLGiFDNz5swp/41DRJOIHZwL8SX1oF58J6IFogT/QZRpcST1prw5p59+ehgbGwtWQHFEkwAJkAAJkAAJHEigU4LGmqfFBcQEvB8iHlI5JiJYRHhYMRQTC1awWHus1wSCS3tcRDxpD40uw9YLu+CFEsFk62NiMKcsCZAACZAACVQj0ClBY0MwaAI2dWz4Wgzs3r279F7YsJKEqqTpMUEj5WrvR0zkeOEo1IvD86BYr4t4bXR36Hp1yErslXMpaKoNYp5FAiRAAiRAAp0RNJ6g0B4adJV4ZfDvWbNm9UI59rych8YTNLYMnAMxApEkISPPQ+Pl1IiHxnqVUmEkGyZjyImTkwRIgARIgASqE+iMoBGxIAJBNnTx0KBJkjeDHJcdO3b0Em9t6Ea8KlU9NFZ4CD6Ug0MEjXjoPu0GAAAgAElEQVRbxDNkv5d6JQxlRYqEtLy8GPtjelY8iUhjTk31wc0zSYAESIAEpg6BzggaINdPKkG0IL8Eh84xgcDBocMzIn6k25BIjCeeqgoaHfaRMkQ4SH34XMrVoS79PYTM/PnzDxBbEgqT61G2hM30UNNtsiKLgmbqTEq2lARIgARIoD6BTgma+uZP3iu8ENjkbS1bRgIkQAIkQAL9EaCg6Y/fwK5mQvDA0LJgEiABEiCBSUiAgqaDnYrwEkJXkrvTQRNpEgmQAAmQAAl0igAFTae6g8aQAAmQAAmQAAk0IUBB04QaryEBEiABEiABEugUAQqaTnUHjSEBEiABEiABEmhCgIKmCTVeQwIkQAIkQAIk0CkCFDSd6g4aQwIkQAIkQAIk0IQABU0TaryGBEiABEiABEigUwQoaDrVHTSGBEiABEiABEigCQEKmibUeA0JkAAJkAAJkECnCFDQdKo7aAwJkAAJkAAJkEATAhQ0TajxGhIgARIgARIggU4RoKDpVHfQGBIgARIgARIggSYEKGiaUOM1JEACJEACJEACnSJAQdOp7qAxJEACJEACJEACTQhQ0DShxmtIgARIgARIgAQ6RYCCplPdQWNIgARIgARIgASaEOiMoDnttFua2M9rSIAERoTAd797yohYSjNJgARGkQAFzSj2Gm0mgREkQEEzgp1Gk0lghAhQ0IxQZ9FUEhhlAhQ0o9x7tJ0Euk+Agqb7fUQLSWBSEKCgmRTdyEaQQGcJUNB0tmtoGAlMLgIUNJOrP9kaEugaAQqahj3y2c/eX1751rce1bCEwVz2/vf/YzjllFeFr33tc+FTn3r7YCrpUKkbN/4gHHHEkeHyy98SvvGNqzpkWdyUd7/7y+GlL31duPLKNeG66zY2tvmss1aFc8+9LNx001fCRz/6hsblDOLCo46aET7+8e+Hu+66JVxwwdyyCgqaQZBmmSRAAkKglqA5/fTTw9jYWI/e/v37w4IFC1qhiaecLr98dzjyyF8ZV55eEFupqKVCPv/5x8qSzjnnsMYlvuMdnw6vfvVbWhUfl156Yzj++FPCt7715bBhw9LatkGoHXzwYZUFwitfeXY4//zPhX37/jW8972vStY3iPZKPzQVB29605+G17zmP5bj7sknHwu7d+/oWxykmMyePT9cdNFXKvHKdZ6I16uu+nD44hc/HIRvlb7IlW2/b9J3Mp9FbFLQ1KXO80mABOoQqCVotm/fHlavXh127dpV1oG/9+7dG1asWFGnTvdcCBrZnPQJFDT10PYraOoKhFEWNOLhsISbiiMpJ8UEIuSEE349XHjhvHD//XfU61xztvUSrl69Jbz85W8Y5xXpqwJ1cRNBI9eIuKagaas3WA4JkIBHoJagsQVcccUVYdq0aWHJkiV909WCpt8NpW9jKhTQhoemQjW1Txm2oKltYMsX1BVgunoRALfc8vVw8cW/FeA9Offc/1II9Sv7CgW13ES3OBFjWvAPUtA0aZMIO7GRgqYJRV5DAiRQlUBjQSPhp82bN4f169dXrS96XhVBgwV79uwzypwJHHCtX3nln5RhAp1PgPg9wi5wdc+f/wflXStySk477TVlaOEnP3kgXH/9xjBjxkvCS17yujLEgrIuu+wPy7tm2Rh0HooNxVhBg7yIE088vWfbAw/8oPA4vafM68jZpsNDOgSCNqKcv//7DdENdvnyS8MZZywt68XGcfDBh5ZtlDLB4m1v+0S5WaOdaPuuXddE82usQBCBhLDGmWeuKuvx2qY3Vt0G1HfDDVvCpk0X9Ljq9qb61Bss4CxtQe4IclFwiAiu017xICDUtGXL+1zGOOf0019ftltCUv/tv/2ncpxgw/6937uoHGsyHhF288QGzn3jGy8ovTM4bD/oMXfSSa8oy9TsLAvr/cD3OUGTY41+kz7W9YHtaactKOeR9F1Ve/U8oaDpe5lkASRAAgkCtQSNzaFpS8zAvljISRZQSaS0bcGiv2rVr/Q2kdhCXGUUiICRxVpvvHajt4LGC5dh4z///NlZ26QebChnn/2nrqkf/ODrSuGmD7kD9i6QMiXPwp4jeRf285igsedJnobdvGM2IdfIcs31aWwT99orgqZOeyF+Lrro+l7elghd5KPggFhctOidB1QnSbgi9vA3DghaPRZF5EGAoa0QlPa49tpPjhN79nuIKC/x3BujKUGTYy25PTG2MUGTs1eStjF+r7rqF4n0PEiABEhgEARqCRprAHJokBjcdshJ14ONedOmC8snJnDIxqU3CXyGA098YFMaG3tX+Ld/+9Y4bwvExSc/ubIIkR1bJrHikE3/Ix/5ennnLBtVE0GDO+bt268oRYfe1LGRy6Yfs03skCRK7V3BRhRL8hU7xbt05JEvCu9851jPQyPcsCniKRjYlkscjQkahGXA7zWvWd4TXbptsnnLxqltOu+8vyifdNFcq/SpfQLIhtM0Z4yBnTu3luOkTnshapYvXz/O8yfCVvpDxJ/UJyJD27N16+U9wWlFnmUC7458JtyEjYxTjE8RQV4Ito6gkSeOqswfCb+JmIuJ/Kr2CiO0YcOGbYNYw1gmCZAACZQE+hI0S5cuDWvXrg0rV67sJQo35ZoKOXkufNSjF0sRNDaJOCVO5Akle2fbRNDgGtyh26e0vE1fGNl6vLwcz5bY9ZoJRNF3v7u9FHneEXsSJiZo9Kaq7bR9o/vEChLdFrHN9lfqeu87ba+MgTrt1eeKd0ds8rxuOF8EDQTOOedc0utzEQNVmNhzvH6uylKeZot5aKrMn337biqfvrKH9Lu1r6q9FDRNV0ReRwIkUJfASAga7Q6XBRabCbwN8ojx8553dLl5tyloZNP36tebutzNyoYW89DkbBP3vPbQSEjE+10Z7aFB7gbs1B4aeA2wSWmPRW6A9CtoRBRYrxFCb3oTFNu018D2qf1dGdkchYX10MimXLW98Mzt2/ed4pHnD5XePPFeST9Jf8TCc8JSCxvtLZRyLBPUpT9D31UVCCkxGxM0VebP/v33lB4hHJhTYPid73yl9+h/U0HDkFNuxvF7EiCBtghUFjTIn9mwYcO43525+uqrSzsk5ISnnubOnVv+V/fIJQXLZmbLlU0jdhfaxEMTy53Qm68naLw21/HQiK22HGwu3mO+sceOcb2Iohi32JNk/QqamE1eDk2uTy2HGB/dL3XaGzvXhlmsHcIWm/Xdd98SHn74vp53DonoVlyn+inmAUGdKQ+NiC/9o3oxPrBJJy/r9tiQV0y8NRU0TAquuxLyfBIggaYEKgsaVCCCRSrDb9Do/Jl+BU3qR92QBwDvA3Jd5A4SXgDkdeCOt46gkXok5OTllUiOA8QE6nniiUfLJ2rkR8JseEgno+L85zxnehmKqCNowBUbh32S60tfujT6K7gQX6997cqSCTan22775rgf67PcpO9igsb2QSzMI2EXj7t+8ir1lFOuT71BrZNb4RGz/VKnvfbJI+Sv/O//jZytC3pV2/7QYlF+U0aeHtu9+4bSo+Ex8Z5e++pX/7r8QTzpd/0UkRY03q8gx+rwkspxPXLKUvNH56RhHMnxL//y30sb6wgasZePbTddlnkdCZBAEwK1BE2TCqpeAw8NDxIggeoErDCvfuWBZ+pXZtx++87yMXV5hNt7wq5KXdaLxMe2q1DjOSRAAk0JUNA0JcfrSGCCCdhXH1y19G/CH/39+eGeR+4Nb5qzJJzz0jeHz9/0hfDFm6/O/v2ZP/nHMP3O+8NTL35x+NnJJ4dn3XprePb3vx+eOPlXw/l/eXZ4zdHzapWH+hf9/nvDYaf8WhBBREEzwQOG1ZPAJCdAQTPJO5jNm7wEJOwkyetvmvO74bSj54Rrbr02vOc3Lwyf2TkWzpu3svL/f/TC54ej7/xxeOrXfi08+//8nyB/1y1Hzn9i4cJw50N38uWUk3cIsmUk0CkCFDSd6g4aQwL9EXj7y98WFp10VmXPTF1PTt3zdWvooemvb3k1CZBAmkBnBA07igRIgARIgARIgASaEqCgaUqO15EACZAACZAACXSGAAVNZ7qChpAACZAACZAACTQlQEHTlByvIwESIAESIAES6AwBCprOdAUNIQESIAESIAESaEqAgqYpOV5HAiRAAiRAAiTQGQIUNJ3pChpCAiRAAiRAAiTQlAAFjSG3dOnSsHbt2rBy5cqwa9euplwHch1eEDo2NhbWrVsXtmzZ0qgOvFB0//79YcWKFY2un6iLLrvssjBr1qxx7w6bKFt0vbBr3rx5417aOgi7pO+rjku8V23atGmd4zUINizzlwTQ7ziGNb8vvPDCsGzZskYvJGa/pQm0sd5PNcadEjTSgdIJN95449AmptRpBY19o3hsgMh1/YiN3OBrY7GioMlRDgHjbtu2bWHNmjXZkylosoiyJ8i837x5c1i/fn32fJ4QJ9DGGlGHb1NBs3379oCXGw9LeNVpU5NzsWbIoV/ajPVhYfGL2XPnzq1d7KgJmqp7ZW0QNS7olKCxGwkAwRPR1BtRg0Pv1LYETd076pytUl6TiaHLpqDJkaagyRNq9wwKmvZ4TjZBM+z2NOkJK85g880331yKcwqaJkSbX9MZQdMVNdpWyKltQdO8i8dfSUHTFslflEMPTbs8WVp/BIYtAJp6aKq2ctjtqWqXPg834oPwLnZlT2zCZKKu6YygAQAMDO2us1Bk8sjnqUGEiaC9GTr3QFSzlKNDW1bQeLkIUOTITxCb4TbVg2/GjBllXFkfEoqS8r02yORF2TNnzuyFPWy7dVgLAmXPnj1lfgmuwZEKl3iCRrtLbZgv5kq1fWOZCnuxD3kmaJf0meVgbdblIedn586dB+TQ6H7AOQsWLOiZBbvBCflQcthwoB4j+nqUi/ok5GRDodpWT9CgzdIXqFuPQ8spFqK0dYIbxlRqHOuyUjk03iZkc5Ri88cbP+C1devWXrioyRi3m4Itw/avHn9oz+LFi0sb9Lyz3kw9XvQ6I3UJY11Xam7YOaD73bNXl6XHkG2r7sfcmqf7CW1CvTh0KCc2h1Pttm2LccgJmqrjyJszur9gj+6z1ByT8YgxIes0mOp12e4zqTme25xRHw69/sg1OT6yh8j52q6coLHrlJQl4yeWwuHdtMsc0m2IzRftUZX5hrnmrTm2nwYh/HT/dErQ6IltN1YZGLKgpzpbyvHCM54LEHVJfTlBY92LEhbbvXv3uIRdz0ODsvHfkiVLyj6wbZLJrxc7nDNnzpzeAmXtlwFjhUJso7QbEtotnKzrv+rdkbVJ22ztQ7u9fCO9oQkXKwL1ZPfcvDoJVhZgGS/WRrQNokMmML7HARGjFwow2bBhQ+88a7sVNDaOrL+v47XTYxJ2yeISa09u3FoBYBM5taBJzZ+coGkyxmUhTo1h1Iv+TW0adsPT54Pf6tWre4n+Orwt7fVEcWxueGJGh8ft+LThdLFn9uzZpejWm5CMt9yaJ2NaxoScr9dOL4wvDwXE2u2JmRiH1IZddRx5m6nY4K1BqTmm54owlXVVjw/NJTfHc4JGCwcrlHKCJtU//QoauZm0uYBVBE1qvuj26j3WChrbT1pADypXrlOCxqpa/C2D0uucWPgklaDruQf1ppPaGFLhKDv4qmxe9poqT6Z4OT72qaWUCzQXctKbud30YxPbu1OQc736vEVKt93jkNtwLZfYHb8s/ilGqfbYzTcnWHQfi+jN3aV448yOJ+sVkYVcPEv9eGhS8ycnaOwYqTrGdX94daTmnrdppM6HjbqO3LnSpty40G3X/FObWqqfcmtebm55QkHbUrXdtk81hyqCxru50rZb4WY54m/xOHnrqh1jtp88YZW7WWsSRtI35DLHU3xy/dOGoAE7uYEWrlUEjSfYZZ+J2aXHcmxs5fafnHjMfd9JQaM3Q+kQ636Uc6wnx3aabEAyISQUoRONU5Pc6yTP81NV0FgXrBZtscXNuu1wjWzMdTcYe751aaNs7SHS9sa8Pt7mmhI0XntwvtzdeG3SgsazWeqLCRa7EHrjILZx2TARzpMFyxPD3qTz3MCx8Kq3CHr2e/VI3/UjaFBuzFtaZbw1GeNW0CCMqu8sU4t7FV66PXbtiC2+ubmh+Vv3vh7PdT0QehxKyETXJWueJ7D0Ru2NWykHa1hVQZPikPNAVB1Hug67/sBmWb+9fpQ2yRxrImhSczy3idrv9Y1gik+uf/oVNLBLr7WyNlYRNKn5UkfQ2L2yyk17Xd76/E4LGt34mPusSuO1W28iPTQ2PFHl7tUOgCoemqoCwxvYsbvQ1F1UGx4a3Y/e3VPOQ2PHge1nTxDEPCW5O1Bdds5DkxqfNiwh53p3lFU8NJZh7HdovPJtDo3dQLVQ0hsM/q3HW5MxjjIG6aFB+fb3m3Iemjpzw9qPvwflodH94q2Jeu6khBTKqSJochxygiY2jmJ36rmwdxXPd11B47WhiYdG2qrnQF0PjeaVEzRe/8du1HTI3WOox4pXr+6vOoLG/m7WlPHQ6LwL6VQtRLzclypixi64cveolaMXT5eOsILCy9249tprQyyHxiZq2rwN/EaBjvXaTcjGIcX+Njw0VqTI4uUlFXuboJ7A+rcWcO6iRYvKuypvAKfEEcq038vfsRi4Nw5ygsaG01DHsccee0AOjZcfhPwTz0MjY63q72ukRLqNrducoFw4MHUnZDcN6duYx8gKFt3XMh6Fh7VL+KXGuBUE0t82+R3nWfe5Hi82h0bOtyE0ab94OmJ3rDoJOzU3LE9pT2q8ou8vvvjiYHNoZAwhVyi35tnv5W9pl2eXnitVBE1ujagjaPQ4Sm1selP2xnHsRkDaVlfQ5Oa4Nx6lLjDEf3pcavtSfHL9kxM0dq6JN8bzpFtxa3OIIPglhyw3X6oIGhnHKFPY2HKr7t91zuuUh8aGIlJPvkgjvc6zrjwblkrVYye5N6Fkc5GFyz7lJOEsL1yjQ2doX07QSB3SXrmmDUGDMrWNWIBxiLvfhvlSPxpowwz6KSfvl4k9N7b2mFi7duzYEebPnz9u4dD9ALvtBqLL8+5K9DhIPeWkz0OdEKXyVI/1SMhE1qECKdu2OfVEn3X5or+x6Og7Hi+0ExPidlHQcwT2oT3CNzd/7BjGE3boH0n0azrGdX9ZG6o8/ShPKaGtNsHXtlfGOuZubGNPzQ3L0/Yt5qn+ZWsbkrKJ//rpLD3PvLCEFXryRB3G5oMPPhimT59+QM6Jtjcl5LzNI8WhTkhFr8Na0NhxrNlobvahAG+OyfzTTyl6N2PWC5ya4ylBY9dQvSdosR37/TAvVGkFaWrd1Wsgxj+e7Nq4cWP52212fdRrhx2vqGPVqlXjHpLA3iRzSc+XqoLG7l34e5A/PIvyOyVo6igxnksCJEACVTYNUiIBEpgaBChopkY/s5UkMGkJ1Al7TFoIbBgJkAA9NBwDJEACo02Agma0+4/Wk0BbBOihaYskyyEBEiABEiABEpgwAhQ0E4aeFZMACZAACZAACbRFgIKmLZIshwRIgARIgARIYMIIUNBMGHpWTAIkQAIkQAIk0BYBCpq2SLIcEiABEiABEiCBCSNAQTNh6FkxCZAACZAACZBAWwQoaNoiyXJIgARIgARIgAQmjAAFzYShZ8UkQAIkQAIkQAJtEaCgaYskyyEBEiABEiABEpgwAhQ0E4Y+BHmJn/fivdTbkj2T7dtUJ7BZU7Zq70WVg4CRevP5IOrzyky9KXxYNoxaPbm3J49ae4ZlL+aVftHnsOplPaNHoPOCxr4iffQQ+xbbzU9+vr3q25Jtqf0Imve94AVh+bRp4duPPx6W/fCHvaJf/5znhI8dd1x4/Oc/D3Nvu21C0Ittm4o3Qn/ovvsmxIaqleLttoN+myxssYIGwhiiGG+Ojh115pEdixQ0VUdA+jwKmmYcraDBPNNv5G5W6mCvsm9J1+tCXfurzMfBtmZ0Su+UoPGUeJ2FeHSwh2BfXz+RguaSY44JZz/3ueF7Tz4ZltxxRw/jmwuR84FC7OCYfeutE4J3VAQNxu706dOToqItgBQ0bZEcbjkUNM14D1rQ2LW4mZW/vMqu5ej3DRs2hAULFpQnpQSN532loKneI50XNNWbMlpnwmW/v/A6xO6qhxly6rKgGa1eHY61DDkNh3PbtVDQNCM66JBT24Kmn9BzF+Z2s17qxlWdETTY4GfOnOlSsTkmknuCkyEKRPmK+oV7b+3atb2ybBgg5Q60BkgYQZe3efPmsH79+t6pqfJkskwrvB1oH1ylCxcujPZ+1ZCTqHYpCDYtXrx4HAvLdO7cuW69dQQNzn39EUeEQ5/xjHD/z34Wxgr+n/nxj4OUoUNDN550UnneH999d7jmkUfC5UX46mWHHBKOetazSjv2/fSnYcMDD5TfiTfoH4p/z3j2s8OpBx9cXvfqww8vvUdXPfxweM+995bXnff854c/KD474aCDeuWMPfRQ+EJhS5UjxSX1HcYCOC9btqysRvpKX2PHo7ZHwoI7d+4sx4Ae1yhbDjveZZHTfQ0bpD+tOPbsXL58eZg3b94Bc8XywlzBgfEu7cPfuo0oH+N5z549Yc2aNb0idBs0H69PZHOX71IhhNj88kR/KrdHNkbYLXPQ9lfKLu96L/8t1pdVBI1e21CO3PBYu8BNz2dpN/oYfYNxev3114exsbFxY1auATt9ve7rFG/pL7k21347DsRO5MTIem/7XteP/sF80Tk0YITPZOxZNpqbzB27J4j9mjds1e2pun7a8S1rs90n5Dxrv3xuudtydX+l9pwqjO2a0vUQXpV1Hed0RtDAGE+J289svoBd1GQxkQkqHS+Dwf4tHasntIZny5PBKiIpV54sHHbA2E3I2pHy0Mi5MmFkQuvFGeXjWLJkSfn/1F1DVUEjogNC5NtPPBFOKITHvqeeKoWGlKGFx+6TTy7r/kCR+wKxIX9rvijrrH37eoJGf4frXloIGy1oIGYuOOood3wvv/PO8M3HHkuO/VSuUY6ZHQuoCNds2bKl/A9HKp9Fxo7dBKwLWo8N6Vs9fsSOlKCxG4nt/5gIglD3xiLqsnPI2qT/lnnhzSvrgtebjnCUTpT2e+U0ETQQMnrDQ39h3mCe5OySNunrbd9V6ctYnpUdOzK2du/e3RMmciMl64oeAxAIehPVG73eDG0YX8Ylzsnxxjm231M87DgQkSB22r6366t8r+eMFgRir263/l6uT62NnocmtxbkNlgtGG1/xwQNyvQ8NPaz3J6TY+zNN7kJ0jfquTZ28fuREjSpzpYFz3aMXZwxmLZu3TrOw5IaYF5H6/Nz5cWEST+CxhMneqP2FqXU3WETQfO3hccEnhk5qgga5MNc9+ijpeiQhGNcj/wcEUvw+iD59+YinwdiyZZ73QknlJ4ZEU4QVR8vPD/w6GgxFZtssXh0FWZVJn1KiOqNQ+zzBJY+z7vGzoOUOJF67JixCczas+HNGX1HLEJOPDQxsVyFl9gXO9fbsOSaJoLGeqk8vnrsaLu8dmr2ub5MzcHUjZXXTluWF8KO1eclr0s7tVfHbm6eHZpJlXHg2akZx+qIeWhiN8HSzx5Xa6cVNFXWgqqbuYgLLaj6FTS5PacKY9iv0x3qpjhUbf+wzxspQWPDLBpWTNDYwWnd4lJGzOXmLbR68c+VNwhB45WpF1PrTtScvLtD8XrEkoLFi4JyEDZCGEhCTp8oRA28L1UEDc5ByElCRWKXFjTWBluueHl0krJXd2oi6XEk/V6FmTcWvFCA54aHPd7mmXIz427Y2yTaEDSpu1y7CeTmQCzHIbVwe+2Oueg1Y822DUETu/vV40fs8vpCb4a5vqwiaLywcCzHQ/dLVUHjjVdpq/X44vMcb73uVBkHnp16g/a+97z0IrBt6EzaIgLCEzRWeFq+VdaCOhu1FeX9CprcnlOFsZfeEVu36rR1os8dKUFTJWHKLr5W0HjqNtUJTTw0urxBCBpv4ch5aFJt1N4SyYF5xWGHhQ8VHhWID/s4N7wieMwb/4kAEVEh5+L6TS98YVktQkfHPvOZYVXxFNA/F96Z84rQUMxDkxM0N5x4YpmDoz00f3X88aWddR/t1guN3JnGQo9ohzcW7GdteGh0X3l3/W0JGuRaeIK+ildTi/oqd+a2TToHKMbWG7M6LOPNg1wOTcpD4wnOnIdGb4a5n06oImiqhtba9tDE1gfNe1AeGr0me+ItJWhiIkra00TQpMJuTTdsPY76FTS5PSwnaGICuWnbunRd5wSNXXDsgLUxagszJ2hs/DjXGaKGZaHxHq+G2tWJyYMWNDYG6sWJU7kcXpsllON9JzkwCBm9uhAqyJ85/N/9u/Dbxe/UiIBZfeSRpWCJXS+Cxvu+jodGhJMtB7+V88YiFwdhKhtjzglW8VrlmMXGlvYs4Jw6HppUSAV22++9vIi6IScpI5Yk7uXQ6DFu88K8PJ9UH9jvckmUuv+0YLFzUcqNeVu9HBgrkJBjI1ysXTkPTdW+rJpDA87XXntt2XwkaetxZtexqh4alGXzQ1LzQ/O2/S5CVHhXGQe5zdb2qZd35uXIxJhWFTQQ95JviHbl1gK0A9d4677Nq7NtqiJotLC1NzC5Pawu4/+/vfMBvvMq6/xxVgHLv9gWqFVpzEKD6Ygh4r8yQiYCG6Nipugag7WJ40hmcMomTmsUbC0DGtO1v7U7zERXCbU2+3Nn7VZ0IkswBnYaRgeTCEs0HQ1pwAJLG6OU8kdH937f8tw+vyfP+fP+u/e9937fmU7zu/d9z3nO5zznnO/7nOe9b24NnKXvByVoZIDg/xIy9BS4DbnZp0W8xDjtIF6YMpUUrJ9sgW128KTK6yNCAxt0eBusDhw4EHbt2rVigGHg6Lvw1BM4iLr80vOfH75lFOmQp5AgVv5o9NSRPD2EPJedz33ueMsI3yMqgqeUcGA7CiIH4uLDo++e+Nd/rf6Wp5x+exSx+d6RIMKBa68cRW0QWakjaPGfhA0AACAASURBVHAtRA2ElbZT2xGLGOBa21d28Usx8yI0dhsU5cV+1TSWr+FtA+hES1sHfBVPr+SecrJP4umbBW97xG6/6TGhueA8/ObOhQsXxk+aeGH6mGCSRVXC3mgr/m1z23CebbsVi5KjoOcObZeejMUv5CkzfJcrT9uVEzQoL9WXqQiN2KnntpQP2LFcR9BY/lI3+ivFW+Yy1C19q21EOTk/yC22doyif44fPx6uv/76seCwgsCrM+XLNpIW29JMzQUpQeP5gB1LNidN+6n2aVy3du3aStDaxG47vvRTl/YnQWxUx0vfiG35atuG/u/BCZqhAauT2Dg02xfVnlxIdlG5SLtLkuvnkVFK6M5je7tu07wkjnbNheUNhwAFTaYvKGiG46wlluDOY926dRP5xd4Se4Z4Tu5pnCHa3IVNFDTtKFLQtOPHq/snQEFDQdO/l7GGwRGos+06OOMbGkRB0xDcVy6joGnHj1f3T4CCpn/GrIEESIAESIAESKBnAhQ0PQNm8SRAAiRAAiRAAv0ToKDpnzFrIAESIAESIAES6JkABU3PgFk8CZAACZAACZBA/wQoaPpnzBpIgARIgARIgAR6JkBB0zNgFk8CJEACJEACJNA/AQqa/hmzBhIgARIgARIggZ4JUND0DJjFkwAJkAAJkAAJ9E9gYQSN/iEx+w6Muj+4VfLW7z66Tt40Le9G6qOOoZa5aG3HL1THXrjXpI/a/OK194K/Jjb0dU3d8Zt7K3bXdqbeAN51XbNUXsm7rWapPbR1+gQWQtDYCdm+FbfuhNiVoHnghS8M3/L0p1cvc5Q3Radc4syLX1x9LW+/buI+p170ouqy9X/7t0WX4w3bN45eSomXP779s58tuqaPk7poex929VVml4LGe8FrHbspaOrQuvTctoKmztvjUXvd89u1Ln116s3Q3osq+7SFZc8/gYUQNLG3q8rbRachaL5/9Bbq/zJ6OzXEzNd+1VcVCYYuFvU+BQ3KRlvw9uyujy7a3rVNfZbXpaBBWbG3yZe0gYKmhFL8nKEKmq5uzFJ0YoIGde/atSts3LixHVxeTQKKwEIImpxgyX1vPaaLieDukZj5DyNRc+ejj4ZbrrwyPPzlL4fXPvxw0jmHvqiLfRQ07eeYLgVNW2soaNoRbCto2tUev7qLeawv21guCTQhMChBc+zYsXD48OGwZcuWsGq0zYHj6NGjYc+ePeO2Idqyffv28d8SZcEHElq/ONoeQZ4MFgWUs3r1apdNaYRGBr4Ugutgg87FsS/7y90RIycExys+/vEg+SE3/v3fh7944omxrRA9r3zmM6uox/9+/PFKAOGQLScIiL/+0pfC+X/+5/F5/2d0/Z9+/vPhx57znGo769F/+ZfwP//pn8LSY49V11rRIWWgnO9/9rOruv7yC18Iv/CZz4SHR+X+6gteEG4YlXX/qAx8hsjSGy+/vCobB87d/slPjssV41He1vPng2yrHbhwIdz0dV8XTn/xi1U0SpeBKNUHRzbf/KlPFbf9mq/5mvBLz39+ePnXfm1ls5Tx6yOBqO1GXbD5mf/u3xVvs8Fv5MC/d+zYMf7b+oLOc5FQv5xcxz90neJfumxbrx4Xnt/DZs9v9+/fH50nMP5k3J07dy5s3bq1OjcnaER87d271x2XMjY3bdo0/l6PD2/c63GNi3LjfsOGDdG7fe9azDE6OgDRoecJm2enoeW46rJkDjp79mw1j+m8Ec0L9ek5RPev2C82iUBas2bN2ObU+Z7voD26P/A3+mTt2rUBdokPYi4VTk3GhXezaFnrvpZoOtYBmee1DVHn5RckMCIwOEGDCVUmchmI4vAysGUytEllsqDYRcgbVDpJMhWhkTr0hCEDWyYYG1a1E5D1NNlugvj46ZGIkWiNzlOR3BXPS7WgKfFiLPaSM+MJGq8MscUKGhEoEFg4vv0Zz6hEmZQbEzT6c4gdiCR7IFr12//wD6Gk7e+75ppwzdOedkkZwlTs1ieURI7Qt9KvNtdK/FH8E98vLS1VE77NW4APrFu3rhJDOf/Ago5JWwSETPh2HGiBY/0Xi5P2e9iK/6RMO3YsONiwe/fucPLkyeorlCU+XyJoZEHE9VKX2As2OOTGxPIQISXnW1tLxn1M0Ng5RPpUL5LgjUNYpeaDHFcRJeJD4hfCUupHfXKOtN/ytjy0oIH4knnR+qWdf0QwWjHrRWjkMysi2owL3TeWdWyO14Ia9uNvfWNRMu/xnMUjMDhBc+LEiRURGZ045oVu9fexiaiNoPHEiZ0IvO2B1FMlersJC7gIHERTIA5wiHDQkRHk3OCwgkbEx6Fv/Mbw7aOIBbavJCIj17x2NCEgchETNFKG2CYRlpiggV3/63OfWxFR8ractABCBAaRletHUadnjqIqaDsOsVvamms7rsU2HXjtHkWNENX66VH0B5/hgHARu9GON38l8oP21z0wmYpPYrGC4JaFT5elz7N1pPzjyJEj4eDBg5c80aSvQb049ISubSnZMq37RIkeVyWCxkZUUjy8BVePe2tr03EPZh4bnVMndemIUR1W9lyv3dp+r2wvaVuLEC9CA8Gh/UHPNx5fTxCkBE0uwlw6LjT/mB9pX/Pm29S4qzueef58Exi8oNGTuQ6J626RO9M+BI1Xpp4I9B2XdRU7ycv3kjzruZY8ki2Lun6iyebQWAFhxQfKz11jy/jx0YL9y6Mnm2KCBuJr9xVXjKMjEhHRdelIiNcOlIEnp9aNojvYLpLDCppY21862u7S22ByvW6Lx6JkKNvtCVwjd86esJAyY3fBOf84P9qWQ4jfLiBa0NgQvdQpd7Exv7fboLgu9ii43ZbAuTKumggaK0K8sasjFPZGRre/6bhHG7zFUAsar93CN8YqxdW7kZmEoEkJILRHMxTudQRN03HhCRq7naf7yBM0bZ/SKxn3PGc+CAxe0OQiNLob+hA03m9WlERoYu6hIwneOdjKQSRDhIBETiSKg2tshEYExCQEjdishY21B7lAnxlFQxAR8QSNzhnCeciF+d7LLhvn6eTaftUoH2bXKI9HR2ggsvCZbK81ETTewl16J1o3QiMcvQiBiAlZUFNCCud6fm8/S0UdvO+6jNDYx3NzERrb/lxSbSpC5S2GuQhNamrPcfWE7RAEjbRJb/eVCpo246KLCA0FzXyIjUm0YnCCxsuh0XvxyBWIJez1IWhsHoW3B273hVMd99vf8A3V4o0kWdkWwvkidGTbycsBkXKnKWggRv56tKX12dF2D/JnkMciUSURKrDTJgXraIs+T7OSCE2u7cdHCcR/OMqh0dEdKceWIX/L96lcEvudTOSx3Aa58/VyaHDt5s2bq22BnH/YHIFcTon1L8/vbZ6K5HJ4UQcvNwjbYHUiNLBJokyWo22fRJxKIzQ2P6mk/XKObZuXI1InRyPH1X4v0RybQ2OTyZHgq7cy62455SI0wkOLA0+oeJ+1HRc6h8bmi+Xyf0Swaz62jEkslKxjNggMTtAg9IwBIE9b2G0bmdw0Xi14vOTANjk0qMeGWzFxY8LXwsrbFvCEl/wOjPdDerIVJYu/5LPABmztPPGv/1o96SQCwm4XSTKtXsSlzNg1sS0neXrJRjogyOTJIoivD47swtNPOBAlwZNMEBqyFeVFaLCt9bOj86786q+uoiwQSDpCg7JybZdtK+QM4bC2xCI0uYRtvZ2ALR0c8oSK5wt6YbJbEaX+YbelUCZ+o+PAgQNheXm5ssEL+eee0tPbDFhQcTMQ20bR4wr5GdJ2/bRULK9Ctln004e6Hts+saVU0MiiZp/KyY17vYjLtWgbuNrfQLHbWqkna3Jc7feXjyKHF0Y3MPYpJ+nbLnJoYoLG2/KM+aV+ysn2ddNxEZt7vflb+7m20fKhoJkNcTENKwcpaPRj2tOAwjrnl0Bu+2J+W95fy9q8VqE/q1gyCZDAohGgoFm0Hl/g9tpHbhcYRadNp6DpFCcLIwESaEiAgqYhOF5GAiTwJAEKGnoCCZDAEAgMStAMAQhtIAESIAESIAESmD0CFDSz12e0mARIgARIgARIwBCgoKFLkAAJkAAJkAAJzDwBCpqZ70I2gARIgARIgARIgIKGPkACJEACJEACJDDzBChoZr4L2QASIAESIAESIAEKGvoACZAACZAACZDAzBOgoJn5LmQDSIAESIAESIAEKGjoAyRAAiRAAiRAAjNPgIJm5ruQDSABEiABEiABEqCgoQ+QAAmQAAmQAAnMPAEKmpnvQjaABEiABEiABEiAgoY+QAIkQAIkQAIkMPMEKGhmvgvZABIgARIgARIgAQoa+gAJkAAJkAAJkMDMExiMoLnuuodmHiYbMNsEPvaxa2e7AbSeBEiABBaYAAXNAnc+m76SAAUNPYIESIAEZpcABc3s9h0t75gABU3HQFkcCZAACUyQAAXNBGGzqmEToKAZdv/QOhIgARJIEaCgoX+QwFcIUNDQFUiABEhgdglQ0Ki++67vuiHcfPPvhYcf/qvwi7/4PdleXbv2+nDbbe8PX/rSE+GnfurK7PldnTCteruyfxLlvP71bwk33PCW8OEPvycsLW0rqpKCpggTTyIBEiCBQRJoLGiOHTsWVq1aFfbt2xeWl5dbNw5POd1556lw9dVPPWkCoQBx8c537gyPPnq+dR25Al772l3hppvuCo888lC45Zb1udODnI8T3/CGy7Lnx0648soXhv37T4SnP/2yorq7qLeueIPtv/IrHwrXXPNt4e67fyL8+Z/f37i9XV34rnc9WhXlickDBz5RfffWt76i2HcoaLrqGZZDAiRAApMn0EjQ3HXXXWHDhg2dC5r77nvCJVAqMNrim5ageeMbfyu88pU/UUV6IGpygmHogkbEUt/9FhM0N954Z9i8+U3hnnv2hPe970CxW1DQFKPiiSRAAiQwOAKNBM2pU6eqyMzevXs7jdCIoJGFSBamthGQUurTEjR3330mPOtZV4Q/+7OD1UL8kY+8P/zar70uanYXgqaUSZPz6nJsUkcf11DQ9EGVZZIACZDAZAjUFjTvfve7K8t+4zd+Ixw8eLBXQbN793J4+cufXNixpQOB8x3f8bpwxRXfVH32uc89Fh58cDnce+8t1d8QRIgKPPLI34Rv/dZXV9EObFndddePjbcdsNj+4A/uHpeB7++55+fCmTPHx1tIscgCtob27Pn9attFtsOuvfbJXBvZckJ+y003/Xp1Do7HHvtE+OM/XopGCiQf5qGHPjTauvulKicH7dq168k24sjVKwICQui5z33e2L6PfvT94fz5j4bXvGZXePazr6hsue++X6i2i6zo0GU84xnPDGgX2gguIq5kS1AEJ/JUpGyci/o+9rFj1badPiSPRfoH24cvfemrwwc/+Hvh1Kn3hh/5kdvGW422TrT9TW86WLXJ9qcIYGFvz5Wyfud3frbqf/En1PuiF31nVaf2IQqayUw6rIUESIAE+iBQS9C87GUvq0TMzp07K1v6EjS2oRKxsDk2ct6b3/ySasGKbVlhAfvN3/yZIOLBlo+F/uab12YFjeSQeB0hiypyNyAe9IGFFaIA4sAest303ve+sxJmiNZAsOltp1y9OmKTcxJJeI4JGu96scUKGvAWIfOc5zyvEhzHjt2TFDRW6OBvEa36u/vvf0f4gz94xzhvJyaQ8LmwF3a2DRCLd9zxfWNBY7+XpG4Kmpz38HsSIAESGC6BWoLmgQceCGfPnh1FKfYEETddJgVbQYK75zNnHhw/pYIIDRYnRBhwN/72tz9YiQeJGMj1ImB+/uffU0UCJOIif4tA0mVg0X7uc5+fTAq2W2IiRmRRlSdrUB8EDESWiBGxybqCLMIiyqRMWYRxfq5eESdYmJeX3xpOnDg8ZiMRqte//q1Vnk5MvHllgBeiGBJhiQkabJX9yZ/81xVRMC+5WtohYgX8N2zYUvUhxAsO4YU677331lEk8G+qz6WPwQcHBKqO0Ah7+MzS0o9V4lE+k/6RCA0YINEcB9oIIYbyl5aODnek0jISIAESIIEkgWJBs23btipnZv36J5/+6VPQxJI5sUB993f/6IonofRiZ7cgbBQiFuFBGXUEjUQEbC6L3iKz1D1BI8mzXg/pR8Fj7ZKF2stZseLD2hqL0OjtNmlPTNBAYL7iFdsqQQJ7ITQhNGI5NLYdsB8MfviHbwlXXfXiSljIgTpl+yq2BajLs7ZKOblzNCcKGs6WJEACJDC7BIoFDZ5s2rRpk9vSc+fOha1bt7aigMe2bSRCFyjbRZJfgr+RW4HtGRuhsYJDFsTbb//TKjcklnSbS2YV+2QLxkZoJIlZR2hSUCRiFDtHIhm5eqclaMRuCM0f+IHdlSABe7FH+gqRGL0lqB9xly26t73t1aPo0SerPkUfQdAcPnx3lVOkRSuYX3bZc6qonRYrwl5HaOQzEYee6KGgaTVseTEJkAAJDIZAsaCxFnsRGiQMI4IjUZw6rSwVNF6ZpYImlmsigicnaFIRHizS+vdkrJ3e79ToxVzn14jQkW2nXL3TEDT/+I//b5RL9Rvh4x8/Gb785SeqJGwc+E0Ym6ukk4IlqiR8vJwjfGejQpqnV16KvZxPQVNnRPJcEiABEpgtAoMSNPhdkdTvsODuHFsUOAd5EI8/fqF6+iUnaPQv/yKa8KpX/eT4KSd0V6mgwaIpeSWSDHv11S8ZlfWN4x93ky0UecpJ3MEKmtRvteitKBFKqXo9QSO5KMJGypRoRZ0tJ9ku09EM5OmITWgj+uMDH/jdcS6Mjj5JwrO35QQ78Iu+2LZCdOVTn3poHKFBFEY/4YV69FNrtjzL3uZgpQQNom7vetf/na3RS2tJgARIgATGBBoLmq4ZIkLDgwSmSYBPOU2TPusmARIggXYEKGja8ePVc0SAgmaOOpNNIQESWDgCFDQL1+VscIwABQ19gwRIgARmlwAFzez2HS3vmAAFTcdAWRwJkAAJTJDAYATNBNvMqkiABEiABEiABOaMAAXNnHUom0MCJEACJEACi0iAgmYRe51tJgESIAESIIE5I0BBM2cdyuaQAAmQAAmQwCISoKBZxF5nm0mABEiABEhgzghQ0MxZh7I5JEACJEACJLCIBChoFrHX2WYSIAESIAESmDMCFDSZDt22bVvYu3dvoxduzrKvnDp1Kuzbty8sLy/PcjOitsvLVXfu3BlOnjyZbaP3MtbsRTxhBQG8vHbVqlVh69atnZJJlSvjt7SfOzXMKWxo9vTdXpZfRmAI68xdd90VNmzYEDZu3Fhm9ADPGpSg6WvCa8O9raPJQnjo0KGwf//+IlMgJo4ePRr27NlTdH4fJ1HQrKQK38SxY8eOPnB3XuYQfMg2qq/xbcvVbR+agBiaPZ07nipwiD7otVf6ZJo3cG3XmS76kYKmC4qqjL4mvDZmtnW0PgXNAw88EM6ePduL8KGgecprpA/Xr1/fxpV6u/bYsWPh8OHDKwTzEBeTvsY3BU1vrtWq4CH6YFtB09e82HadadVRX7mYgqYLinMuaDpGtKI4CprmdOtuOTWvqf8rPUHTf631a5iUoNGWDS0iMjR76vfiYl9BQTPs/p+pLSc4kz70vvitt94atm/fPv46tcWDBQB7+TjOnTu3Yk9fJhwpCOWgXLk7FxGxZs2asHr16uo0nHP+/Pkq1wbHxYsXV+xDwm6xR4c35Xxco+/+Yd+JEyfGkRdtr5RtWeBvbIeIfdgLRRulXqjvTZs2jfnYnAJdnrRZh2AtX8tN2ih9IOXbelNlxvpMFuwtW7aM+81uydl+s30gAsb2q9gpW0pghn6V8m27tf1yje4/6YfYsNd9qW3BdqS10ZZl/WD37t3h4MGD0RlG87Rlez6HKI9mbPsj5UMxv9PGeYIG18k4krEkW7M5HlK2LVePH/EL8Wm5Rvu/+Jf4rvRxzuet7SURPE/QdFFPrFz0p+RExMZirF909Nf2hR5/KBfzIcYcGIjf2nks54OpuUL7UZO5BtfHxt6RI0eqcaTHtp4PMdchl1DP19pXY/Zo/7DzUW6dQfmWR24+sLkvsbw/vR5prl6EJjU+ca3l1HV+XHRyi3wxM4LGhi+ls2ViKlXOcGosBJIIqssVB9CDVTpMCxpMwFYoaIdFHRgEkm/hCRp9PpwGhziDnghksvAcxYvQiAPqxQhl4JCcHExgaIMMANQHe6QOKcNO7HYR0NcIJ32O9JGws5NunT6D0BB79CKFxc/bA0cbcI20EXXpCUEmNy1oYKfueyw069atG/ejbQ846mty24uphde7ttQPvAiN/swrW2yXvhEesT7P+ZDnd3bOse23fm/7tTQCWSJo9HjLtR12i8iI+Ty+12KhdOK1Y6CrenKCJhWRzAkaXLu0tDQeS3a8ybjwFly5Mcv5YJ2IaZO5pmTsie+n8uW8OcuzB74LESQPVeg1oWSdsXONiAdhnFoXtC/CDvi+rEXib574toImNz6HmFc4E4ImtrenhYIVPKUTjO5wr7Pt3qZ1EG8gWmfzBI1d+HV2uV3IEFnxHDAmaLQDexx0O1MqXga4vdPSE77Y5an+2EIrk1xpn3n1636wfQL79AS/du3a6u5KM7f9VrIdYhcN7xrPVukDy0NPCN4Epf3em+Bi5crdqOTVeHbafo/dTccSJe1Y8fogJWhiWy+2X7XQj43pEkHj9X3Kv3M+7wmRkjnHtrurekoFjRcFzQkar116vMfmZ922nA+eOXOmipKUPDzRZK5JjT07FuwNn25/TNDk7NbtL1lnvDaWzgfaXltXSoTo8kvGZ4pTyVjo45yZETQIadoohZ0MRCnb8J4GZ0N9onyhYL2BOQlBY+/2bLt06FEPnDqCxgu3QozEHFcPXE+YeNEWO6h1OFL3gRcBS/WZN+nrgelx0JPUC1/4whXbhrClVNDYkCuu1VEd+xhyKqpgF30t6CRqYAe55hLzg1yEJjaJ6UnTY2wn75gPweamgsYKdS+KI1tSsUev6woaGfM5QWMTrWPRFZRX+lSiJ2i6qCcnaLTP4996y7hE0NjtD5Sho9Te475W0OAa+5Sg9kG9JWW3tK2oqDvXpMaed1Onx6PdirIi3xMf3vaatKlknfGEkxUnsfnAziH2xj92k+IJmtz4jHHqQ6yUlDkzgsYbMJ4jyeSK/1sB5DmujdDYMPIQBI10pA31lgqaVNgxFuq1gkbn9MAeO7hK75piTmnDm/q8riI0enCWCBo70ZdEaHKCRueL6BB9aQgZXKwflAgaK7xyERq76OdC100FjRUpsXJSEaq6gqak7bnIifbP3FajPrduhKa0Hm8cp7bF9BaI53vaj72IQtcRGvt7V9q+1AIt33ljQF9nb0z02ItFqfU8l0pt8OY++5mN0OTWmVyExvOplFBBQOD48ePJbdK6ERptQ9OIZYlIqXPOTAgab88xN8F5dwN2IZByxbntxKRVts6h0Vs6XWw55SI00qG2Lm/y9z6zk4MMbp0/oXN+bD6FzVeCPbZMbwDWCUmmQqHWHtuPMpj0gLYCyW5vSfQoF23RwljuRnLXxB6lR52xKIOXBxQbyNYPvMVXT/A2NwXl2r7JRWhyPlRX0IgP6TysFIPU4lwiaGwOjc0hs4K9xOd1/+gbgJTfW0HTph5voZdIkfhILPLpCRabyC9l2blWxludCE2JD1oBkhpHNkKTm2tSYy8laOwNbYl48QQurpMITck6I3ONvgmzc1hsXbB+oX3B+rk+10aOMOZLx6flVEeEdHnu4ASNDXGJ2PC2imyyqYBJbV/oMB3Og5Np8WOfOMAgx97utASNvbPQA1kzEU7ewmLDn5iodF6O/R7CYNeuXeHAgQPjpDa7JaLvcMAvFi3ztlLAVPJaSvpMFlt5cgvX5J7AyT29Jv2aEifSLrFRuDUVNNa3pHwJw3s+LotKyg90uXK+vWO1ddsxkhM0OR9qImgsX/wde9IE37XZcrJPOaWeKpT+Tvm8/U5vOXlbOFKmtzXUtB67EHhP5GEcIzG+zpNUIvYvXLgwfpBA+x++hyCUrbKSHBrYmvLBnH1WPMZygez6IT6TGntexE6egrU+6W3zeHOfrQ/+odMmcusM6rVjXvtYaj7wBIKcn/rFbK8fxRekTD0+7Rb0NH+YUOwblKDpUqmxrPkh4C22s9Y6L5KXujOctfbR3qcIePkP5DM9Ahx7T0Zk+3jtyPR61a+ZgmZoPUJ7LiEwD4LGC8nGErLpArNLAHe5OKb52pLZpdeP5Rx78Qh6P8SnVyoFzfTYs+ZCAvMgaNBU70mRIYRpC7uBp5HAzBJY5LGX+u2Zme3QiOEUNPPWo2wPCZAACZAACSwgAQqaBex0NpkESIAESIAE5o0ABc289SjbQwIkQAIkQAILSICCZgE7nU0mARIgARIggXkjQEEzbz3K9pAACZAACZDAAhKgoFnATmeTSYAESIAESGDeCFDQzFuPsj0kQAIkQAIksIAEKGgWsNPZZBIgARIgARKYNwIUNPPWo2wPCZAACZAACSwggbkTNIvyzooufHVS7xIayptYu2DGMkiABEiABIZJYK4EjfcSsmFiH4ZVVtBADOItung7b5cHBU2XNFkWCZAACZCAR2CuBA0WZP3K+1yX43wcO3bsyJ06l99T0Mxlt7JRJEACJLCQBOZK0NTtQQqal4WDBw+Gvl+QyAhNXc/k+SRAAiRAAnUJDErQ4K3Khw8fDlu2bAmrVq2q2nL06NGwZ8+e6t94Y+qaNWvCxYsXw/r168OpU6fG0RX8W45z586FrVu3jv9+4IEHqq0UOXAt6pI68Lm+Rn+nP5eFGQJg7969VXGwBVs0uo5Dhw6F/fv3j+uTt53G7IOwgk1y7Ny5M5w8eXJFX0o0BWVv3769+k6uyV2vbRN7cb2N0IDvhg0bqvbId9oIzTtWJs4XTnKt2KzbaN9+q8vGdboPtM0roPAPEiABEiABEvgKgcEJGogMiRjIwigCQRZBu/jhZCCANgAAIABJREFUby18sNhiEcRWEsQEBJKXF+JFaLCQ7t69eywodNlij15gRUiJjSJeRJTYv2WxRhkQXaXRCy0wtDCweS/2VfFgsby8XP0ndUOkgU1K0OgRYs8rKVP3hzASu6UfdTtwjvSrCFctSjliSYAESIAESCBFYHCC5sSJE+OIDAzX4kRHEKRRnmDRi7onKOTaki0nXb+IDx1B8crAwiyiDALJtknbp6M+Ijq8Dos9kaTrkuvwmY0S6TZDNEIslAoatEFEkGebfrLMCiodsREB49mn+9YTPBzGJEACJEACJDDTgkYLBk/Q2K0L3VhZQPWWj44ceGLEbpegPIkcNBU02EbTW1C2HF2njT5JezxB420LyfkiaLxzZButRNB4zFNleufbKJQnwqwQ0v0aE2cc2iRAAiRAAiQgBOYyQhPrXp2HAoFhBY0nGvqO0Fhb7fZZStCI2Eol9dpoiI6m5ARNKiqkRYaN0NgtPk/QWJHiCSEd3ek7cZlTAgmQAAmQwGwTGJyg8XJoZDFLRQtK7+J1dMD+CJ/d/pEFvU2ERiINepsqtYUjidE6ogMXi4kLCC4cXr6JFXAigEojNN52WWmZXoTIJjHbHBodPbNCTvjBJsk/mu2hR+tJgARIgAS6JDA4QYN8EzxpI08gaaESu4tPPZFjnwDSi6a+ThZ5vdWBhROf40ASbZMtJ1xrbdDbSrmnfXIRGnxvn+LCZ952Gz5H+/GkWC6Hxtt6k2Ro+9SWLhN12O8hRvB4uBYw1mab1K2fStM+QEHT5fBnWSRAAiQwPwQGKWjkMe35wcyWkAAJkAAJkAAJ9EmAgqZPuiybBEiABEiABEhgIgQoaCaCmZWQAAmQAAmQAAn0SWBQgqbPhrJsEiABEiABEiCB+SVAQTO/fcuWkQAJkAAJkMDCEKCgWZiuZkNJgARIgARIYH4JUNDMb9+yZSRAAiRAAiSwMAQoaBamq9lQEiABEiABEphfAhQ089u3bBkJkAAJkAAJLAwBCpqF6Wo2lARIgARIgATmlwAFzfz2LVtGAiRAAiRAAgtDgIJmYbqaDSUBEiABEiCB+SVAQTO/fcuWkQAJkAAJkMDCEKCgWZiuZkNJgARIgARIYH4JUNDMb9+yZSRAAiRAAiSwMAQoaBamq9lQEiABEiABEphfAhQ089u3bBkJkAAJkAAJLAwBCpqF6Wo2lARIgARIgATml8BgBM111z00v5QXoGUf+9i1C9BKNpEESIAESGCoBChohtozM2YXBc2MdRjNJQESIIE5I0BBM2cdOq3mUNBMizzrJQESIAESAAEKGvpBJwQoaDrByEJIgARIgAQaEqCgaQiOl60kQEFDjyABEiABEpgmAQoaRf+7vuuGcPPNvxcefvivwi/+4vdk+2Xt2uvDbbe9P3zpS0+En/qpK7Pnz/MJFDTz3LtsGwmQAAkMn0AtQfPAAw+E1atXr2jVqVOnwo4dO1q3FE853XnnqXD11U89LQOhAHHxznfuDI8+er51HbkCXvvaXeGmm+4KjzzyULjllvW504OcjxPf8IbLsufbE974xt8Kr3zlT1wioERYTVMoiW0f/ODvhd/8zZ/Jto2CJouIJ5AACZAACfRIoLaguXjxYicCxrYJgua++55wm1oqMNpymrSg2b17Obz85a+7REC1FUptOeB6CpouKLIMEiABEiCBSREYpKC555494X3vOxBuvPHOsHnzmyoWTSIgdSFS0NQl9tT5jNA0Z8crSYAESIAE2hMYtKCRCIYIGgic7/iO14UrrvimquWf+9xj4cEHl8O9995S/Y0ID6I5jzzyN+Fbv/XV4elPv6zazrnrrh8bb1lBtPzgD+4el4Hv77nn58KZM8fHW0ixiNCVV74w7Nnz++Gaa76typvBtdde+2SujQgu5NXcdNOvV+fgeOyxT4Q//uOlSqDZo06EBudKm9DuI0cOhD/4g3cEKUNvDb3rXY9Wbb/77p8If/7n94ef//n3hG/+5peFZz/7irFN9933C9V3IuI+8pH3B7QPW3647vrr/2MVPfrwh98Tlpa2Vde9/vVvCa961U+O2em2UdC0H4wsgQRIgARIoDmB2oLG5tCsX5/PNSkxL7XlhMX2137tdZfk2Ei5b37zSyrBEtuyksVeknitPViYb755bVbQ/MqvfGgsVGwZImgOHPjEWDjIORA/sB+iSR+lgkZEB+z8+MdPhuc975rw2c8+XAkNKUMLD+EgkS6Pi22ztgvXXXfdxhWCBmLmhhve4nbl29726nD//Y+WdDPPIQESIAESIIFeCNQSNNYCJAmvWrUqbNy4sbVxnqBBJOLMmQfHEQJEaB566ENVZAHRhLe//cFKPNiFWwQMIhMvfemrxzkq8rcIJF0GohLPfe7zk0nBVihIngkaD0Ejiz4iPBAwEFkigrzk2iaC5gMf+N0qMiNHiaCBnceOvbsSVJJwLDaLWALrgwffHP7u7z5c2W3LvfvuM1VkRoQT2IEnIjr47Kd/+rbWPsACSIAESIAESKApgVaCZtu2bWHv3r1h586d4eTJk01tqK7TgkYEii0QguG7v/tHVzwJhXOsoJFoic2JsU9R6fLrCBpbvogDvUVmbfcEjRZA+qkqHZFB5AgHxAMiTNhKgvi4//53VNtYJYIG52DLSbbqxDa0I5Y3ZMsVMadzmfQ5FDSt3J8XkwAJkAAJtCQwM4JGtouwmO/a9U3V4v6mNx2sFulSQXP77X9a5bxIhMayyyUFy6IuuSk2QiNJzDpCk+ofHS3R22LSLvt7OIiKvP71b60e9ZY8HxEVcq7eVgOXF7zg31eJ1Yhs3XHH90UjNDZvyAoa2UrTEZrbbjtS8YftN9/8n1u6Ii8nARIgARIggeYEigXNy172snD77beHrVu3jms7duxYwGPc8tm73/3ugJyaJnk1uQhNLP+lToRGPw6tkclinhM0qQgPIhcQHPv3n6iiKPaIPaUlWzleF4pQg3C67rpXVfkzT3vaZdU2mggY/SSYLUMLGq/8OhGaWPQJ+UG33rohfOADz2juhbySBEiABEiABFoSKBY0qMf+sJ79Ub22gsY+nWPbhoUdUQ0IBiS1Pv74hSpJNxeh0ZEO+6QO6igVNDpvBAv5Rz/6/tH210tGUYpvHP9SMOz74R++5ZLk4ZigQZmIyHz91187TiaGvceO3TN+Msp7MusP//DOKpcIh+QGyZNXX/zi5yvRI5EkiUzhXJT9rGddXkVW6ggaXAtRs3btK1bYKXbwKaeWI5GXkwAJkAAJtCJQS9C0qilzMSI0PGaXAAXN7PYdLScBEiCBeSBAQTMPvTiANlDQDKATaAIJkAAJLDABCpoF7vwum05B0yVNlkUCJEACJFCXAAVNXWI83yVAQUPHIAESIAESmCaBwQiaaUJg3SRAAiRAAiRAArNNgIJmtvuP1pMACZAACZAACYwIUNDQDUiABEiABEiABGaeAAXNzHchG0ACJEACJEACJEBBQx8gARIgARIgARKYeQIUNDPfhWwACZAACZAACZAABQ19gARIgARIgARIYOYJUNDMWBfihaAnTpwIe/bsmTHLnzI314a77rorbNiwIWzcuHFm2wjDU+3Ytm1b2Lt3b9i5c2c4efLkRNuJF80ePHiw07rxHjccO3bsqN2WFCexdd++fWF5ebl22X1cIH3X5CW8fdiTKnNRxlqMQYn/wHdXrVq14sXLk+4n1Jfrq7Y2DaWdbduRun5QgkacTwy2L7/sE8QslH3rrbeGLVu2zPxCnxu4iyhoMNmsXr16In07dEGDcX/06NFKtJcsSJMeu1bQwJ/PnTvXSMx1bbv1o6GMtWktpiX+08a2Lvs+11fWV+rU3ceY79p3uyhvUIJGT2RoHN7ujbuyodyZxYBP6o4NDnzgwIFB8WgisnIDl4ImPrSb8Lal9TG5dRmhoaBpPrXPu6DB3LBmzZriaAoFzZO+BL+4cOHCTEf2S0bFYARNieOVNGga50xK0Eyjbbk6myywFDQhNN1yasJ71gSNtneI88IsjfehjLU2URDtD0MTNLn5sc73ub6qU9ainjsYQYMOwJ0ZQrdbt251+wOT+fbt28ffHTp0KOzfv989F2Vh3x15CnIgX+HGG28MmzZtqj7ytrTwmT50joNX/1VXXTUuT9ezdu3aqm7YCJsvXrw43k7QdWgbZLFCjgxsFBZ2K07C8V7DvUEhLBDpkjoOHz48ZqltkzJjNuo6MUnZPAL5236nzxMbkSeDvWscuk1ehAbXyLkpH0FZuF76GH/ruhH1w9aOHNqHZLI8e/bs+PpcXSmfrJNDY8+1bYAvb968uRFv6z/ikynfzrVb9y/OhQ/h0Dk02odS5dm2ax8W28Vm6TedU4M+RZ+JP0mf2r6xNlgfjeUziYDRPoMxLX6F+tF+aXusXLETEQbxQTsH2brs2PTmNc0ixrLOWEtx8fyyJIKeEjQeX29et2NXs9Hf6c9L/MezrWT+gz/Yvs/1D67RfLWt2u+9Gx57M6Pr9top/lln7nQX0xn6cFCCRju2HegyOcmkk7tzE4eU88XhpVztADJ47JaXDF4pQwsD3cfeHZt85k1I4mjWBmmjnnhxztLS0lgMSbmxJMkSQYPJWNdh92LRzpiN1re9iAEG7OnTp8diE+xxiFCVASZtkDbJQuRNyrt37x4nz9p+0jZJn4n9sG/dunXVYmPt8OqFENK+l6or55NNBU1qS6gJb7RBt0n4i1/bdoAnzoHvejcXdlzI9SluduK3faaTwD1Bo4WprV/GthanuTaVRlmkL7TglrnFEzSpcq2dtmxvbOMaCHlJkLfzmvV3b+zg+tKxZreshCPa2marMiZo0Gb8J37m9Zv1FbvlZFMT9Hymxbz0l/Ufa1ud+c8TNLBXxpbtH8sX3+NAvlgXgsbewKHM0rlzhnRL1NRBCRqxUt9ZyUCUuxv9dE9qkoRT2gnOJtTqMmOLjy4ntrilBE3uKRbtxHrySDmXbZs+t1TQ6KhFLhycCoWWbIGk7sDFdt2XuRyaVL/HbI1t8eTqTdWV88m2gsaLQNbl7bXbLkwes5Qvekx0Do1nY6q8kgiNFfB6DHj25NqUuzGwc5EeL3a86/pT5ca4yRM23ve2/+zYt9+3HWveTZvUeeTIkerpuFRkPDZv5eYYuS53o1qy5aTripWnOeZsS81/nqDRfHL9F5u7m0Zock8DpuYzCpqeCeg7ah0209XaSI5810TQeMlm1pnlDklHXuoIGhsGh71y9xeb9G2YF9fEJpUmgsZOEikbbZfHFlgdssU1sdCqlKcXRDsp25A0ron1O9qP7TQbso7dOevJzBMgqWTXnE82FTRon76z1NG0urw9n/IEjWWWyvHxfMz2n97y0z7jPercRNDofo4JmlybUhFhsdnrw5SgwXWxcj079djzBLJdkO28ZvuyRNDExprdmtT9JvNNzC9zS0FKNHhb17GF2RM0nt12u96Wp/3H2lZn/ssJGts/sSg/+HURobHtrDN35vpwFr4fZIRGL3L67gX75KW/v9JE0Hi/fRKLhmixVSpovEUiF6HxFqRUhMabFPUg8srTk0TOxhJBYxe8kkk2Finx7rAmGaFJCRqPtebTRtDYOzd5LNgTNCnenm92EaGxYzEXoUlNhk0ETdsIjbUnFn31eOcEjb3hkhuWPiI0TQRNKiqZWnAtM7tVnerjmKCxfd8kQmPnwzYRmrrzXxNBU3Iz6m3vleTQaEFTd+6cBcGSs3EwgkbnOojRepKxe5G5htUVNN5eeapOPYF7gyAWMkT+imxDyTmpCI21QQRJbFDYPVrZtxdHzwkau4dtbfQEjU6QlOiJzjnAxIdD8gBiOTRio57kbAhf+ikWobG8cD2SaZFDY/NCbNl1IzQ5n+xK0GjhFBO4Kd52sY7lYejt0dRiZdstf0ufePlpbQUNrrc5ELGkXJwrNpW2KRbZs23xcjJyAlsiRTIWbbTDJjHbhGe0R3JMmkRovBwab6yhHn2jlptj7ZY9onKxLfaYoPFySlBOKkKjbzxjuZDeAxUx/9G21Z3/6goaL0cJD5bYHBo7j0o7bSK0JKN74qXu3Jnr71n4fjCCRgaTfgLFPs3jbb3EHL+uoEH9XnhOBoH9zib7ymSFcjCo5SknO8B1eBWDDofc7ca2nHTZaBcYedsqWgjKvzFZIndIfr8mJ2hwXcpGz6n11gt4WVboR5v0qZ+yQpn2aSN9vu53cBdusV+ltSFsvc1ht8JST4gIC/w/VlfKJ5sKGhvytk/n1OVt+wM+aX8p2DKLCUbpf+uT+I2Lyy+/fMzJ2wZIidBcUrB9ykmPq5igSLXJ9luqvbY/hJ8nqFLlip0QGDLP5eY42/dNBE2dsebNw/gMbU35pScg9VzhbSsJc+3P4JESNLLQ4/8yB1u7UIakD2jBo5+Q1f5jxVad+a+uoLF8U1vxtl2Yq3bt2jW+MdR1xyJbdefOWRAtKRsHJWhmHSbtJwESIIEYgXlPyGTPk8C0CVDQTLsHWD8JkMBCEKCgWYhuZiOnSICCZorwWTUJkMDiEKCgWZy+ZkunQ4CCZjrcWSsJkAAJkAAJkECHBChoOoTJokiABEiABEiABKZDgIJmOtxZKwmQAAmQAAmQQIcEKGg6hMmiSIAESIAESIAEpkOAgmY63FkrCZAACZAACZBAhwQoaDqEyaJIgARIgARIgASmQ4CCZjrcWSsJkAAJkAAJkECHBChoOoTJokiABEiABEiABKZDgIJmOtxZKwmQAAmQAAmQQIcEKGg6hFlSVOwFlCXXDu0c/YJC/QLINnZOi4996V+bNszztbGX4M1zm9m2p17cWzrO5YWosbdv98l0EX0UL/g8ceJE9dZue8TedN5nH0jZsbfY91X3wgga+1r4voCiXHQi3pLrvaF5XhbOroSHfhvu/v37x2/01W8yBtOtW7f22WVhXvqlC0iYAPE26I0bN15SXB8/37+IC5D1+y76rc8yRKCUChr4ydmzZ90Ftk87Ubb1p5Q/a1tmrU+07VrQ2LWOgqZvj5tC+UMQNHiV++WXX+4KnSkgaVUl2rJmzZrWQqOuoMHgxOGJxTYNoqB5il5sAcCitmvXLlfotGFPQbO/Db6JXFtH0PTlJ6UN7VLQYF7Yt29fWF5eLq1+KudR0DyJfWEiNFPxsjmutC/Vn4v8UNDMn1MtoqCZtV6sI2im3bYu/WkWBY3l39dcXdLPC73lJI3fsmVLWLVqVcXr6NGjK8KWiAxs2rRpzNLu0cIB7QGFjWPv3r1BzpeFEZ9LGBXX6jt/GcRS3qFDhwK2ReSwtuhtkosXL64oy9ql7S6xRbfJOx9bXHpbJmW7RFdgI2yWdufaKzagn6R/dB/l+kbn3Gh7dXTECho9GG29ugz9nf5cR4C2b99eNcELm9sIjdghbU7dpcmkB/+KnY926Hq1z1m/suF67Tu2ny1z1G/Zik05/5Y2oswNGzasiMTovkN52mawwpg9fPhwEMbwLW/LypsEcwuQbaNth+77WL2eULZRRluP8PAWBNtHqbEj4xVjBlt5MqdZn7Nl2LbE7LNMPX/MzV0538D16Fs9x2FLCX6Cdkn5qTnAm9+tXbotqfamfML6U86fvbno/Pnz1XqhD7G1ydyqyynxxbqsdITG5i+J/8p8b+eI1ByZGvfeWNZjEX4O/8C8IOumZWfXd6/MOp8NKkIjMGQikcbrwYLGSeKTDY3b/X09YXidjMEpQO3WB87HfyIS7JaVDCgZ4Ph+3bp1lYjx7NAdJ9dqcZWyxXaoLI66TLRVC5MS2/UklmuvZwMmMuGDNuX6Bt/L+WjD6dOnK0cvFTS43ovQwG92794dTp48WdmA8my/4vPU/r+1QfoS19m+9hYQfCb9ac/XbcV58A9hYRdL8UMpS7dFrhWxbH3aTty4Vtrs+TcmbBlr+H5paakSIbYcbS9ssONSxoYVmLE8MssvJWg89trXS7c+c4uI5a5tzAma3Njxxqv4qV0ktXAGd4wx9EnKvpw/Stu1YMVNoR4PmqnUZecXPYZkodOCJDcH2Pk9lQaQam/OJ3KCxvpzbC6SPtJ9kutrsc0KRN1HOV/EuXVYyfmSFJxb66RdYqPwsnNkbtxbv9P+KnM1fCzl411v9Q9O0NhM7VQSonUMGx7Ud1Ex1aqjGqlMcTtIUudqm727AzuZeRNm3az1WD2oKzfArWN619hzcmFM3Te5O/C2gsYbWLLo5+qWa1MDK/fERuxOO/aEh+4rT5RIbpJEPnSkQ3O1i3luW0D7VKr/UvYJL+3j3gSd8w/dZ6k+8vpF25cTm1JPbhFJJYTmBE1OoMVY6LZ585z2DdRx8ODBFZExb9zauUXO0X2fY+qxsr5Vkhxuy7FzWqrfU/2Rsz813+XmA1u2XVNyfZ2ah0t90QqUkvm4JEKj1zptp8ckNuel+t3rF73l5N2M1pknYv6uPx+8oLEQ7LaDVpW6U2N3pDoqoiMMKMeGke02Ac4RtZ7aG7SCxkuezS0uqacEPCewi1/K9tigS11TImhifZO7u2wraGwYUyZ1RMtyE1hM0NhQK86LCRQ7kL324hx96O0E7Qvar7ztJCkDdz7e9px+Oslum+Fauev2Jhcp2xM0NrqlfTAnFnITUU7Q2O0+W5/mFNvCKLFR36nqaFOJoEmNnVJBY58Kslxi9lm+3sKi5xNvkbZC2W45lgqa0vlZj7vYdm6svTn7SwRN6Vj26moyt+o+KvFF74Y2Ja7qChq9XqQETWrc6zbFxrCez7w5FWXYbfTcfJH6fvCCRosDqw69OwAvtwMASiI0etDbRX/SEZq6gsbeteoJqSRCk2tvTtCk+iYnKtoIGq9sbUuubk/Q2AWoboTGCho7OVnWEmnBkxTYBtLbmMhNieWieIJFrvVszonolKCxC0AuQlO6FYQ6c4LGy/+wC64e494C6UWvUjaClWyZeefVmStKBY3Nu0v5nbavRNDUjdBYvysRNCXzs43A5yIg0jbd3mlGaHLzZEmEpsQX+xY0fUVo7NjLRWjaiBfv2sEJGggSm0OjoyJ6X14UHyZxmRRjeRJ1BY3Nz5G7wNg+NMrfvHnzJTk0YpeXQyO2ltwB6s6L5dDou299p+7ZbheEXHtzgsZOsLpvcK3dj4VNn/70pxvl0OjImvSrzgVBaN7uD+cevbThf9is833QV6V3dVbQ2DwYsMIhQkXOlyiOJKanwu64Hn124cIF97c+bH6CcBIfsdxQHuzycmjwORZb4WGvLb3j1GWU3N1JG8He5nt4yYSpSGAsYhu7O9SCJZY/VzreSgSNzXPxxoxmlrrhET8Sf7X2y/wRY2pZ6UhJ6sGH3BxQd5GOtbfU/liSe+lchPqteMrNkyWCpsQX67LKRWh0jqa0y+YZemIkNe7tmmC5yhogNySpnKmuhM3gBA0UvGTOo5H67kwPLHyHDtHJbV6I3k7gdbacdPhU6tKdbkOPscHubYnoyaSJoMGirrPWbRJayvbYoMu114oqLSxyfSMLpkTQmjzlhDK8MLTudzBB2TjabDnpLSLp+6aCxva/ZP/ryIsMfjupWK4yGYnosVtZ+F4LZfm3MNHbGjbCk3rKydaj7exK0NhJTXjbULUWM/a70qdm4Cd4+uL666+vhJplYYWOrkdYaDGZGjslggZtt/OXtiFnn2Yni7A8cYbvrF+lmOJ8Wx/6AjcKKUGTmwPqLNK59qbsL4lI6/6KzUW2T8S3msyt1rftnKV9UebKOtGsnKBBmfKUnZ1DchFSbXvJjaGcD14YX8ePHx8/5eRFlVNjtq7QGaSg8X6+OdcwL4yX2yrIlTnU77tOpBpqO2lXmoB3l16SrEmu800gleA+3y1n6xadwNwImtwTIfPU0RQ089Sbzdui96elFO8uuHkNvHIWCVDQzGKv0eYuCMyNoAEML/t8Gi9H66JjUmVQ0PRNeDbKz21HzUYraGXXBChouibK8maFwKAEzaxAo50kQAIkQAIkQALDIkBBM6z+oDUkQAIkQAIkQAINCFDQNIDGS0iABEiABEiABIZFgIJmWP1Ba0iABEiABEiABBoQoKBpAI2XkAAJkAAJkAAJDIsABc2w+oPWkAAJkAAJkAAJNCBAQdMAGi8hARIgARIgARIYFgEKmmH1B60hARIgARIgARJoQICCpgG00kuG+AN4qZ/GL3mxWmnbuziv9E3ZXdTVRRld/0qv946kLuxkGSQwSQKTnFcw5+KQd5113U7blkm9asT7JfxU27qei7rm2Fd5cylo7Fs/+4KXKjf15t9p2CN1UtB0R9/6WW4SsW/qzVnivdogd03f3//46KWov/y8562o5uEvfzn8j3/6p/Db//AP1efvu+aacM3TnrbinL/8whfC0c9/fnxO7Ly//tKXwtbz5/tuBsufIAEKmvawKWjKGFLQjDh5L7Yswxc/C4uXfhtv2/K6up6CpiuSIfQpaDCByZugu7O4fUm/+oIXhBue8xy3oF/+7GfDfx+9xfrMi18creje0fdvH52HwzuPgqZ9Hw2thCELmro3DYzQDM27Vtozl4KmLvI+BE1dGyZ1PgVNf6RzEZr+ap5cySJoRHhc8zVfE/7b1VdXEZn7R1GaX/jMZ8ZCRQTOd152WfiZr/u68L2j/+O48e//PvzFE09cct7kWsGaJkmAgqY9bUZoyhgOStDA8Tdt2jS2fN++fWF5ebl66eSqUah769at4++wMJ89ezbs2bPnkpba80WFb9mypSoHx6FDh8L+/fuDrRPfyQstJYdBKpBr8DeuW7NmTbg4uuNcv359wAvhZN8W/5bj3Llzl9i9evXq8fe4NnXE8khSL6CzbdIv6CwRNIcPHw7bt2+vzLL22xciHj16dEUfWGa67lj/oh7pzw0bNlR9BNZHjhwJBw8eDOIHOM+Wb+1LsfTqgA+IoJVrS9vk+dmJEyeCtAHl6bLsxC5+Kay1v2u/0P9Gv+O8vXv3XjJOvLZ7HBvpAAAbiElEQVR7IkvKwNgSP8ZYkrGXYmoFDcTK0ihqc+VXf3VU0IhdshUlURqJ0IjwyU1Z6L/Y2KnLxb7IVvy07lwDm3VZmA82btw4bgr4y5yDD7UvS74Hvke7xFdkbItfiG2p8SNzkp4/9ZzksW1qd12f8QSN7Us9t8LW1Byq26LbAL8Ffxw6h8Yry3uxq/BPzXElEZou5n9v7cH6pX0rNR4W4ebK8+nBCJpUzkndScZbaDBpyGQiziIThRehsedYYSGTi5008LdexLSAqKuypcOsCEkli8IuHCL0bN5GTtBgQrTiTA/0paWl8aASbimuOAdCVHjJ4izXSh/I4NQTm2Vu+wTtxMDFJKbFbmxh9OqwbZDJVOzwfEXalPMzKVuLZ4gdmZRksbOL3OnTpyuxjcNua8lkaRe5mDAuETSpPrcsY1tOX/i3fws/88gjyciLXGsjOboO+c7WaznYhaUOl1REtslcAzEifarHH9hjkZXFVXzJClcroG1btFiJjR87vsSPY6LGzgt17PbmPjvv6f7zRAC+lzFrx0lpYq/YYW9AY/OXjCfMF9IndssJc05qjssJmi7mf8tD5kEtlnPjgYImtgpM6HPpNKvUUX2TSUZHdGzn2oXSm+C8CJAWA95dhydYtPjwFuQSvFbAlA54lG2vzQkaveB6E4C1V0eKUmV7e9W6X7xrbT95g7TOk0BeHR5L7W+pNsUiNDpqmPKZkknHW7j1GLHC0PZPiaCp0+eeoEHCL6Iuf/L441X1schLU0Hj3exY37ARyxQXT8QKt7pzTSxSGvNL3R+xpyC9MnPjx7smtdXTxu5YxEULhZigifWLHielyfO58Zybj+WGCBFpuYHw5mPNKiVocvWVzv+5taVkPJTMLSVrz6ydM5gIDcDpUJ8Oe9edZEoWGh129wSNDRVLx4r695zO276S6+TOSocS7Z1Zynn0oNK2e9d4tkv9dQWNXfC9NsoCm9oG1GFYbbMwKBU0dvLJLei6Lq8OG7aV88X/6m5tYstJCxrNz9tysuejfstK35nZhSj3NF0TQZMSzHbLyfO/mKCRLacDFy6EpcceK86hsVuCuk6JdtTlosvUd/R155rYWIxFY+3CbbfSpf9TWzDe+PHsSIn9NnZ7c1/KZ/T5seiY5a63knQEU7fd82073vQWnL5W5kNPKKbmuJSg6Wr+93xQ+1PJeKCgGZgU0+Fa2bNtk0NjF46coEktZECVU9E5nKmIlHetMDh+/Hiwe6mpRbtthEZPEN4E2SZCkxMb04rQ5OyK3c17k0jdCI0tIxehyQkaz4+179ddnJoImrZJwbk2eiKg5Bp9kyLCuu5c0ybS0TZCo/102hGauoJG59ahHbEbrVRUw/NtO1+l5krUawVNbo6rG6GJrQOp+d/zQS1oSnybgia3Ak/4e+2s1qlFCcciHE0jNF4Cayw3wVsI6ooUvbDkwqx6H9W7q5fusfv2EoHoIkJj9+mlX2L5JrD59ttvr/bKc+0ridDYPXOZkHSeQmov36sjFwb2cql0m+zWps7VslsbJREaaz/6E4fkaNSNRFju4g9y19unoPGmDInO4Ls6ScHWr23ZdbnYO32J/DWZa3QODa6/6qqrqigdbNLRH1t2HUGTGz8S0bAJ5Kk5sqnddX3G83ud95baAkzlO9n5SP4W5iXzsXcDgaiOjajH8uD0nFJSnxWhXvTJ8pC/daQ2Nx4oaCYsWGx1eisG36WeDpKQfOx3XuoKGrlDkCcoYk8V4LzUQoDvvex5GWA6jIpz9WQTm9w0J1mM7N2NPsfL0NcDtO2Wk96iQbvATG8D2bCrttW2H3brpGC7B+894WXL0AsGyovdMUsfe/v81vdwrn2iTYeuY0/EyN2ePJ3ilWOTgq049Z640tc0Wbj1FhbahbvWAwcOVE8Q1l2c3jr6Ub0bRwn2yJvZ/slPurOG/WE9JAyf/uIXwx+NcmzwOzVynHrRi8LXftVXhf/0qU+N829S05DdSm26FWd91PqQ9XHYlPpNKX2+tsmbC+x4KN1ygg2p8WPnMDu/eFyb2l3XZ7zz7baqXthtP8e2nGybUSb66fLLLx8n/abmY1zvpQCk5rhUhKbN/G/7R/sofArjddeuXckn6KzgSd34psbZLH83qByaWQbZ1vZcXoxMaN4E2Lbuebk+lrcwL+1jO0iABEiABOIEKGgG4B1Q4zi839TR5qWiDwNoxtRNwJ3d7t27w8mTJ6duCw0gARIgARKYLAEKmsnyblxbnceTG1fCC0mABEiABEhgRglQ0Mxox9FsEiABEiABEiCBpwhQ0NAbSIAESIAESIAEZp4ABc3MdyEbQAIkQAIkQAIkQEFDHyABEiABEiABEph5AhQ0M9+FbAAJkAAJkAAJkAAFDX2ABEiABEiABEhg5glQ0Mx8F7IBJEACJEACJEACFDT0ARIgARIgARIggZknQEEz813IBpAACZAACZAACcydoCl5yeMidHvqLbV9tD/10ssu6/NedNdl+SxrOgRy43Za/T60txaDw5o1a6o32Pd9tPl18jbX9t0u+BqOHTt2dFJV1+V1YtSCFjJXgkberJp6G/Us97O8hbakfZMUNJOsq+nChvdg6bebz7IftLVd+iv1FuO2ddS5vmTcNu33OnZ452pBI4t0yfjDdefOnets0RTbKGja9uiTby2noGnPcYglzJWggaPi9fG5lzxKR3Tt2H12MBYhvD4er4g/e/Zsto2TFBmIzhw/fjzs37+/TwRV2U0XtlJBg7aU8O29oT1WUEfQlLwFvq2pJeO2ab+3ta0rQdOVX1HQtO3R6QqaSc7L7UnNXglzJWjq4p8lQSOT/qc//emwZcuWsHHjxmRz53Xg9L2wdbXw1PXFoZ4/CUFT0va++z1mQ1dbTl35FQVNibekz+l63q9T3rzOy+17pZsSBiVoMHkcPny4WrBXrVpVtVBvE8hgRpRi/fr1AZOt7IPi33Ig1Kv3mDGZrF69evw9rpXtG+8a/Z0uS9/Z7t27t7oUtkBc6DoOHTq0IlohoeqYfSVdqRcWb5ER26Qs2LB9+/aKkxwYePpvHTqXCRf788IKZZw/fz7Ytmp7NXfdHzhHcxROJW21bbE+sGHDhqig8/pabDlx4sQ4suXZptuCa3R7Um2R/hBOuBZsb7zxxrBp06aqyZaN11+xCBeulf6Usk+ePFlFq6R8fG63kKyP4xyUc+TIkXDw4MEV59vxs7y8PO537VOwMWaPZq/7W7aUdBvED2NjzfqJJ2hKr035k/3O+qkWNHKuHje2D6RdOqcs5lde3pnMgeILunzYBh9O5dCk2op5CHMr5ljMDXr+8sallwdj5xA9n+gy5Frd5/jent90/qgzt2ibMZ+DIw6dQ5NaPyybXHni73KdzF/WV/RYzvlhbqzH5mQ9d+bqaDKP2bZ6fVwy53d1zuAEDYSMTMzSASIQpFPt4mC3E/REIYPYi2h4yhoDZffu3QELhixE4hRij570ZCCIjXaf3dt3Rx0oozSxz7bBToTiVNp5xS6ZQNBWCBXhYCcrWYwsa91WmxeAOqR8vWhhMm56J+lth8gCKuXGBE2qr/XClLLNu5O27bYJrMJaFjphKX5q2aCN+E/6P5ebYcuHX8pYEP52sbU26vaLPTLOUneYnnj27EGbIYLwHw7NTE96ekFLjbWcoKlzrRUJUrbna2gH5iAZJylBY/sA/bhu3bpqobRj1POrnKARv7Dzob1hS7VHjx0pT1+fyvWxcwT85PTp0+ObNdiPw5vHvLos26bzR248at+RPpKxKXbZm2E9d6YecMiVB19fWloa+4/1MS9Ck/PDkhwzabNdC2WcrF27trpB0Tc9Xn9okZWbx+y8hmtF7MWEblfCJVbO4ASNvouG0dq5vLs0bxHTAzG1WJSECnX93h2aV4ZeBLyQdd0nAOxkaK/3yrMDJ7YwiYCJiSR7N5q6O7SiAdGDuo7t8dSLc2rrIdXXpbZZ1qkJSNjoRQM+6/lkasvBCgw7WG35Ihhwp62jOrqNdhHXXD1Bo8WuvduzkR/PHmuz7rNc++Ta3EKSi8xBfHtPrsQWba8+O8ZTgsYb27G2NBE03pNfKTGeGzuxiAsEXEqUxMZwyVjU13rzp/abkjFaMh51mV4fa0659cP6da48b6HV48WzP+eHKBMRVRv5t3Wl1pVcHbiBrzuPef5ZOtb7EjaDFzTa+bwB5IXxBJYMJr3lo5W4NwHYsBzKEjXfVNDYhSc3sHVneyE9+V5HU+xkrwdOSRlNBI3dSoNddntItkRyg1EvBHp7UD6Xu8pcLkWsr+3io/1G2xYTj94AbCNobOge5ceeOvIEhN3GEPuEv+1PfefmTTraHm1HTghLvZ6PSZ/FJrnUWLO8bb/XuVYEoGxj620hmwBubc0JGju2uxQ03iKUiy6mxo634KXK8863fhfbSvautZGGJvOHd40w954+80SnXVP0tq32O0/I5crD9d6aJHNMTNDk/FCPr1iELhWh9gS19fUmggbttTcRJTc8CytomkRoYrBsiMwKGm/inXaEJraAa3XsOXJJhCZ1J+OFOfXk54my2B2rF1KN9VEuapYTNHaBlYmk1LaSCI21ve5EYNuQu6spjdDY/tSLmw6xp+qzUa5SQWNtzEVocmMtJWjqXqvL0luvJXetOUFjI8p1BE1sy1tEkvd93QiNbntbQePdFKS2f20On54zZAtEi5CSMYr2YOukNPLrLeS5CE1qsS0pz7a7bYRG0h/ErljEkRGaEAYXofFyaOSO0VvMvH28lEPqCdqGzOzCK2W3idDYPVe5W9S/UQEHjeXUxAa5XnhQpg5JejkLqf1uXF83QmMXPmHn/daLFUcle++x3/ooFTRoU27rD+d4ttmtC7sv3VbQ2Hwm8ZE6ERpbhmdTjGFK0HhC2EbXrHjxxiDOSUVocmMtJWjqXqvL0oLA5qjIOMD/ZQumTg4N7Nq8eXM0h8b6lc3BkShZLh8vdYeOxTTW720FjZefAVZefmIsh0bYtpk/cuPR9rfe+rZ5mHXXD9tntjwvrwp9YiM0uo9K/NDerMR+WsKywVx7xx13hNe85jVVIrjNodG+XvfGTMahnh9y81Jqbe7iu8EJGtzxQPVLeFjDii1mXrhbRIgN7esF1wvj6XAhJiBMHjgQVmuy5YRrrQ36blkEjidoSu7cpT02FIsBA5Gj72QkyUs7jvdUhrfQ4zN7d6jbJZxkoNm67LZOLN8B9Xhh5dT2mrQn1dd6YUrZprcydD/ZULteVOpOBNLn+kk+TLp1BI3nV/jMJj/qvpb2eNsqYgvO13Z4W3NexMj2GfxS8q1ifpwaa3Zys2O/9FpvbtBjwm4PWLGQEjReH8TGU8yvUL72AzDTv+lkxxi+u/7666MPFKTGTltBY7f50Me5BH3M57KlY7enms4f4J4aj9Z39HjHdfitsssvv3y8VZJaP7xFNlee/R6RUr01qb+X8ZryQ9unMUGr522xO5YCgO9tOU3mMWtbnadZuxAwtoxBCprSH8brAwjL7JeAt5XVb42LV7rHOCeOF48SW0wCJDBvBCho5q1HB94e3JXpRz8Hbu5Mmlf3SZCZbCSNJgESIAFDgIKGLkECc0jAe9JiKO9umkPcbBIJkMAACAxK0AyAB00gARIgARIgARKYQQIUNDPYaTSZBEiABEiABEhgJQEKGnoECZAACZAACZDAzBOgoJn5LmQDSIAESIAESIAEKGjoAyRAAiRAAiRAAjNPgIJm5ruQDSABEiABEiABEqCgoQ+QAAmQAAmQAAnMPAEKmpnvQjaABEiABEiABEiAgibjA/zJeB/QpF4R773tmcOWBEiABEiABCwBCpqMT+hXzdN9niKgBY19c26XnChouqTJskiABEhgfglQ0CT6VqIz+u28KVfw3qEzr65DQTOvPct2kQAJkMBsEqCg6bDfFlXQdIjwkqIYoemTLssmARIggfkhMChBc+zYsXDixImwZ8+eMWG9oOGFe2vWrAlnz54NmzZtqs45d+5c2Lp1q9sj3vkXL14MGzduXFH+oUOHwvbt26vPdu7cGU6ePBnsy/30i/1ki0UKwfVXXXXV2Cb5PFaWfI7zHnjggao9aNfq1aurS1He+fPnw969e6u/rc34DKxWrVo1bkfqxYMSTanTRhSM7TYdndL/1hEaEXLSLnynD91HqTJxjb5W+iXFPtX/8zNM2RISIAESIIEcgZkTNBAyWPR27NhRtQ3/Pnr06AoRJI0WUaLPhxCAQBARJAuoFhlynSzg3oLtCQgvQoOycIhIw4IO4SKiCoIGf2Px3r9//1hIaREDm7FwS5vt3yKwYqKmSRth5+nTpyubcMBOHJqb2Gz5aKfTwidXpu0bYSPt8nJ17DU5h+f3JEACJEAC80lg5gTNhg0bVkRYsOhh8ZfFXncTxIQ9XxZFESve0zpYJA8fPjxezFGmjh7FRFTJlpOt39oveTtWYCGCAzFhr5f2etEt+a5JG627W5apCI1ca0VQqszY02Q6Que1McZjPocrW0UCJEACJBAjMPOCJvUUkidorOjwFnu7ZSLwdCRIztGRlJigsdtDKE8EVRNBs2XLlhWiTiIoMWHXto3Sft3WnKCJCQ3LVsqMRXmsoLFCMxUd4rAnARIgARJYHAKDEjSST5LKobERl7qCpmmEJuYSOgrhCRorWIYcodFttNGQuhGaWFRI50jpMr3IFOxhhGZxJiO2lARIgATaEBiUoInll0gOhRdxyQkam3Nj80+8hdfakQKs6/eiBbY+yQtpGqGRRV7nBeV+B6ZJG+22GtqBQ3J/UhGa2DZgrkwvVwiJz7r/0Z96O87rT82mzeDgtSRAAiRAArNDYFCCRhZrwYekU2yvHDhwICwvL1cJs00iNIgKxJ6K8hZ71G+fxsFnWEjXrl07fvoIn9knkESwyPn4/8GDB8cegW0r2NJG0Eg0Q7uZXuSt+9VtI57yEnEmZcFuzT4maGx75Xq0N1embReEzK5du8b97/WLFS/4m4JmdiYgWkoCJEACXREYnKDpqmEoxxNAXZbPskiABEiABEiABIZBgIJmGP1AK0iABEiABEiABFoQoKBpAY+XkgAJkAAJkAAJDIPAXAuaYSCmFSRAAiRAAiRAAn0ToKDpmzDLJwESIAESIAES6J0ABU3viFkBCZAACZAACZBA3wQoaPomzPJJgARIgARIgAR6J0BB0ztiVkACJEACJEACJNA3AQqavgmzfBIgARIgARIggd4JUND0jpgVkAAJkAAJkAAJ9E2AgqZvwiyfBEiABEiABEigdwIUNL0jZgUkQAIkQAIkQAJ9E6Cg6ZswyycBEiABEiABEuidAAVN74hZAQmQAAmQAAmQQN8EKGj6JszySYAESIAESIAEeidAQdM7YlZAAiRAAiRAAiTQNwEKmr4Js3wSIAESIAESIIHeCVDQ9I6YFZAACZAACZAACfRNgIKmb8IsnwRIYDAErrvuocHYQkMWg8C+fWfCD/3QDy1GY6fcSgqaKXcAqycBEpgcAQqaybFmTU8SoKCZnCdQ0EyONWsiARKYMgEKmil3wAJWT0EzuU6noJkca9ZEAiQwZQIUNFPugAWsnoJmcp1OQTM51qyJBEhgygS0oLnvvifC29726nDmzPEpW8XqSwnceeep8Pjjj4U77vi+0ksmfh786p579oT3ve8At5wmTJ+CZsLAWR0JkMD0CIigufHGO8NLX/qacMst6ytj8PfmzW+6xDAKnun1lVfzLAia3buXw9VXv2TsW4zQTM6HKGgmx5o1kQAJTJmACBosjB/5yJFw7723rBA0b3jDZbUshBB6xSu2hV27vqnWdfrktWuvD7fd9n5GiwoIzoKgee1rd4WbbroriC9R0BR0bEenUNB0BJLFkAAJDJ8ABI0nICRCQ0Ez7D6cBUEDggcOfCI8+OByJZgpaCbnUxQ0k2PNmkiABKZMAILGEy85QWO3pN773neGNWs2hGuv/Z4VLRJBZM9/5JGHxlsQ+gJvq0vyL0R4yfkPPfShce6IRIawaMpW2ec+99iKSJG9XsqRbbRSG3GdbKM88sjfhJe//HVVUbY+Wcif/ewrxk3UuSS33/6n1efPetYVoy2Za8OHP/yesLS07RKPsHbpMkTQ4CJhb8uRCIkUbO0UsSHcpHzYp/uzrrjVDdHCi4JmcoOegmZyrFkTCZDAlAlA0GBxXrv2FSsWf09YaAFhEz2lGd6Wk5Sl82+wiGJhlZwdjcGLGMlnEE6yLYYyzpx5sBIBUocWSvj+U596aCx69PlSnizedW0EMwgZzcS2ydYvdVjBEBMyYIJrIBQl6VfqFXEBoQAxJFxEvEgd9m+UiWsgsmRbEHbibyu2zp49MWaNa3B4/VXiwhBHEG64noKmhFg351DQdMORpZAACcwAARE0OmlTFlLcscfuyiFovIXYEzRaSGjhEyvfEzQ2sRTlaCHmRZT0IuqVqbdB6tqYEoFgFotw6Xq0faWuIgJFxKG35YS+EYHjfW/L8Npu7fHaW2qz9JX4GAVNHXLtzqWgacePV5MACcwQgaaCBk3EwolDb2HEBI3kTwgau6hqZJ74sNsfcr7U7QkIK4L0Qm8jF1rclNjoLfA6+TWWHK0FRqmgkSiMZpQSNLotuBbbYnory0anYoJG+teybuLeui8oaJoQbHYNBU0zbryKBEhgBgnktpxK8ib0dsQkIzQad6mg0dfEtq/knFQe0aQiNFb0lERorKCxv1NTEqGxIqdthIZbTtOZHChopsOdtZIACUyBQNOkYG2qJLcizyMmLJBvYnNodH6LF6HROR1eLkgdQYPrb7jhLdHHySU3pdTGWA6NbhMiHDZxGdtsUkdJhMbmrkikqjRCY/N2wMyW6UVo7JYizsGh824kB8rW4eVHMSl4CoN7VCUFzXS4s1YSIIEpENCPbWsBEfthPZyDA78rIof31Iw82SMRHrtlpBd6r9n6fJvgqs+XPJ6SCI23baWjNHVslIgFkpLlKSf75Jb3VJUWTCWCBm3VWz9orxaHXo6M3T4T8SXcrJ2eoLFPRqFenTiuRUuJoNHbfdxymtxAp6CZHGvWRAIkMGUC8sN6JYmhUza1VfWpp69KttVs5W23YFo1ZsYutltcFDST60AKmsmxZk0kQAJTJiCCxnuKaMqmdVp97impupVR0JQT46sPyll1fSYFTddEWR4JkMBgCdiXU+ptp8Ea3dAw72mhJtEZVE9BU94JiP7df/87+HLKcmSdnUlB0xlKFkQCJDB0AlrQDN1W2jcfBLjlNLl+pKCZHGvWRAIkQAIkQAIk0BMBCpqewLJYEiABEiABEiCByRGgoJkca9ZEAiRAAiRAAiTQEwEKmp7AslgSIAESIAESIIHJEaCgmRxr1kQCJEACJEACJNATAQqansCyWBIgARIgARIggckR+P/8wY7S9hbi7gAAAABJRU5ErkJggg==;" vertex="1" parent="1">
          <mxGeometry x="-120" y="30" width="579.46" height="662.69" as="geometry" />
        </mxCell>
        <mxCell id="MDVyfrV4ghfDJYjMpp-2-4" value="" style="endArrow=none;html=1;rounded=0;entryX=0.206;entryY=1.019;entryDx=0;entryDy=0;exitX=0.567;exitY=-0.008;exitDx=0;exitDy=0;exitPerimeter=0;strokeColor=light-dark(#FF0000,#FFFFFF);entryPerimeter=0;" edge="1" parent="1" source="DhtlSGsxXgPWsNs7nV4f-426" target="DhtlSGsxXgPWsNs7nV4f-423">
          <mxGeometry width="50" height="50" relative="1" as="geometry">
            <mxPoint x="1063.88" y="427.03999999999996" as="sourcePoint" />
            <mxPoint x="890" y="220" as="targetPoint" />
          </mxGeometry>
        </mxCell>
        <mxCell id="MDVyfrV4ghfDJYjMpp-2-5" value="" style="endArrow=none;html=1;rounded=0;entryX=0.5;entryY=1;entryDx=0;entryDy=0;strokeColor=light-dark(#FF0000,#FFFFFF);" edge="1" parent="1">
          <mxGeometry width="50" height="50" relative="1" as="geometry">
            <mxPoint x="950" y="1060" as="sourcePoint" />
            <mxPoint x="1095" y="800" as="targetPoint" />
          </mxGeometry>
        </mxCell>
        <mxCell id="MDVyfrV4ghfDJYjMpp-2-6" value="" style="endArrow=none;html=1;rounded=0;entryX=0.5;entryY=1;entryDx=0;entryDy=0;strokeColor=light-dark(#FF0000,#FFFFFF);" edge="1" parent="1">
          <mxGeometry width="50" height="50" relative="1" as="geometry">
            <mxPoint x="1570" y="1050" as="sourcePoint" />
            <mxPoint x="1460" y="800" as="targetPoint" />
          </mxGeometry>
        </mxCell>
      </root>
    </mxGraphModel>
  </diagram>
</mxfile>
